<svg id="Layer_1" data-name="Layer 1" xmlns="http://www.w3.org/2000/svg" viewBox="0 0 330.76 317.06">
  <defs>
    <style>
      .cls-1 {
        fill: #dba6e0;
      }

      .cls-2, .cls-3 {
        fill: none;
        stroke-miterlimit: 10;
        stroke-width: 3px;
      }

      .cls-2 {
        stroke: #282828;
      }

      .cls-3 {
        stroke: #000;
        stroke-linecap: round;
      }
    </style>
  </defs>
  <title>Operation</title>
  <path class="cls-1" d="M208.78,186.38H195.53a5,5,0,0,1-4.75-3.49,83.94,83.94,0,0,0-5-12.23,5,5,0,0,1,1-5.83l9.44-9.29a8.55,8.55,0,0,0,.11-12.09L176.7,123.56a8.56,8.56,0,0,0-12.1-.1l-9.44,9.29a5,5,0,0,1-5.83.85,83.76,83.76,0,0,0-13.52-5.67,5,5,0,0,1-3.48-4.75V109.93a8.55,8.55,0,0,0-8.55-8.55H95.88a8.55,8.55,0,0,0-8.55,8.55v13.25a5,5,0,0,1-3.48,4.75,83.76,83.76,0,0,0-13.52,5.67,5,5,0,0,1-5.83-.85l-9.44-9.29a8.56,8.56,0,0,0-12.1.1L23.4,143.45a8.55,8.55,0,0,0,.11,12.09L33,164.83a5,5,0,0,1,.95,5.83,83.94,83.94,0,0,0-5,12.23,5,5,0,0,1-4.75,3.49H10.88a8.55,8.55,0,0,0-8.55,8.55v27.9a8.55,8.55,0,0,0,8.55,8.55H24.13a5,5,0,0,1,4.75,3.49,83.94,83.94,0,0,0,5,12.23,5,5,0,0,1-.95,5.83l-9.44,9.29a8.55,8.55,0,0,0-.11,12.09L43,294.2a8.56,8.56,0,0,0,12.1.1L64.5,285a5,5,0,0,1,5.83-.85,83.76,83.76,0,0,0,13.52,5.67,5,5,0,0,1,3.48,4.75v13.25a8.55,8.55,0,0,0,8.55,8.55h27.9a8.55,8.55,0,0,0,8.55-8.55V294.58a5,5,0,0,1,3.48-4.75,83.76,83.76,0,0,0,13.52-5.67,5,5,0,0,1,5.83.85l9.44,9.29a8.56,8.56,0,0,0,12.1-.1l19.56-19.89a8.55,8.55,0,0,0-.11-12.09l-9.44-9.29a5,5,0,0,1-1-5.83,83.94,83.94,0,0,0,5-12.23,5,5,0,0,1,4.75-3.49h13.25a8.55,8.55,0,0,0,8.55-8.55v-27.9A8.55,8.55,0,0,0,208.78,186.38Zm-98.95,68a45.5,45.5,0,1,1,45.5-45.5A45.5,45.5,0,0,1,109.83,254.38Z" transform="translate(-0.83 -0.82)"/>
  <path class="cls-2" d="M208.78,186.38H195.53a5,5,0,0,1-4.75-3.49,83.94,83.94,0,0,0-5-12.23,5,5,0,0,1,1-5.83l9.44-9.29a8.55,8.55,0,0,0,.11-12.09L176.7,123.56a8.56,8.56,0,0,0-12.1-.1l-9.44,9.29a5,5,0,0,1-5.83.85,83.76,83.76,0,0,0-13.52-5.67,5,5,0,0,1-3.48-4.75V109.93a8.55,8.55,0,0,0-8.55-8.55H95.88a8.55,8.55,0,0,0-8.55,8.55v13.25a5,5,0,0,1-3.48,4.75,83.76,83.76,0,0,0-13.52,5.67,5,5,0,0,1-5.83-.85l-9.44-9.29a8.56,8.56,0,0,0-12.1.1L23.4,143.45a8.55,8.55,0,0,0,.11,12.09L33,164.83a5,5,0,0,1,.95,5.83,83.94,83.94,0,0,0-5,12.23,5,5,0,0,1-4.75,3.49H10.88a8.55,8.55,0,0,0-8.55,8.55v27.9a8.55,8.55,0,0,0,8.55,8.55H24.13a5,5,0,0,1,4.75,3.49,83.94,83.94,0,0,0,5,12.23,5,5,0,0,1-.95,5.83l-9.44,9.29a8.55,8.55,0,0,0-.11,12.09L43,294.2a8.56,8.56,0,0,0,12.1.1L64.5,285a5,5,0,0,1,5.83-.85,83.76,83.76,0,0,0,13.52,5.67,5,5,0,0,1,3.48,4.75v13.25a8.55,8.55,0,0,0,8.55,8.55h27.9a8.55,8.55,0,0,0,8.55-8.55V294.58a5,5,0,0,1,3.48-4.75,83.76,83.76,0,0,0,13.52-5.67,5,5,0,0,1,5.83.85l9.44,9.29a8.56,8.56,0,0,0,12.1-.1l19.56-19.89a8.55,8.55,0,0,0-.11-12.09l-9.44-9.29a5,5,0,0,1-1-5.83,83.94,83.94,0,0,0,5-12.23,5,5,0,0,1,4.75-3.49h13.25a8.55,8.55,0,0,0,8.55-8.55v-27.9A8.55,8.55,0,0,0,208.78,186.38Zm-98.95,68a45.5,45.5,0,1,1,45.5-45.5A45.5,45.5,0,0,1,109.83,254.38Z" transform="translate(-0.83 -0.82)"/>
  <path class="cls-3" d="M250.22,237.32,262.3,249.2a10.92,10.92,0,0,0,15.47-.12l25-25.43a11,11,0,0,0-.12-15.48l-12.07-11.89a6.38,6.38,0,0,1-1.22-7.43,105.88,105.88,0,0,0,7-17.42,6.42,6.42,0,0,1,6-4.56l16.95-.26a11,11,0,0,0,10.76-11.13l-.58-35.69A10.94,10.94,0,0,0,318.39,109l-16.94.27a6.42,6.42,0,0,1-6.18-4.36,105.49,105.49,0,0,0-6.64-15.55,6.39,6.39,0,0,1,1.09-7.47l11.89-12.08a10.94,10.94,0,0,0-.12-15.47l-25.44-25a11,11,0,0,0-15.48.12L248.69,41.53a6.41,6.41,0,0,1-7.46,1.21,106.26,106.26,0,0,0-15.65-6.4,6.4,6.4,0,0,1-4.46-6.1V13.29A10.92,10.92,0,0,0,210.2,2.34l-35.7,0a11,11,0,0,0-10.95,10.94v17a6.42,6.42,0,0,1-4.46,6.08,107,107,0,0,0-17.31,7.24,6.39,6.39,0,0,1-7.45-1.1L122.25,30.54a10.94,10.94,0,0,0-15.47.12l-25,25.44a11,11,0,0,0,.12,15.48L93.94,83.46m49.15,25.26a58.22,58.22,0,1,1,90.67,72c-1.15,1.18-2.35,2.29-3.57,3.34" transform="translate(-0.83 -0.82)"/>
</svg>
