<svg id="Layer_1" data-name="Layer 1" xmlns="http://www.w3.org/2000/svg" viewBox="0 0 350 281">
  <defs>
    <style>
      .cls-1 {
        fill: #dba6e0;
      }

      .cls-2, .cls-3, .cls-4 {
        fill: none;
        stroke-miterlimit: 10;
        stroke-width: 3px;
      }

      .cls-2, .cls-3 {
        stroke: #282828;
      }

      .cls-2, .cls-4 {
        stroke-linecap: round;
      }

      .cls-4 {
        stroke: #000;
      }
    </style>
  </defs>
  <title>Sales</title>
  <path class="cls-1" d="M48.66,159H96.34a3.66,3.66,0,0,1,3.66,3.66V279a0,0,0,0,1,0,0H45a0,0,0,0,1,0,0V162.66A3.66,3.66,0,0,1,48.66,159Z"/>
  <path class="cls-1" d="M152.66,132h47.67a3.66,3.66,0,0,1,3.66,3.66V279a0,0,0,0,1,0,0H149a0,0,0,0,1,0,0V135.66A3.66,3.66,0,0,1,152.66,132Z"/>
  <path class="cls-1" d="M255.66,72h47.67A3.66,3.66,0,0,1,307,75.66V279a0,0,0,0,1,0,0H252a0,0,0,0,1,0,0V75.66A3.66,3.66,0,0,1,255.66,72Z"/>
  <g>
    <line class="cls-2" x1="1.5" y1="279.5" x2="348.5" y2="279.5"/>
    <path class="cls-3" d="M48.66,159H96.34a3.66,3.66,0,0,1,3.66,3.66V279a0,0,0,0,1,0,0H45a0,0,0,0,1,0,0V162.66A3.66,3.66,0,0,1,48.66,159Z"/>
    <path class="cls-3" d="M152.66,132h47.67a3.66,3.66,0,0,1,3.66,3.66V279a0,0,0,0,1,0,0H149a0,0,0,0,1,0,0V135.66A3.66,3.66,0,0,1,152.66,132Z"/>
    <path class="cls-3" d="M255.66,72h47.67A3.66,3.66,0,0,1,307,75.66V279a0,0,0,0,1,0,0H252a0,0,0,0,1,0,0V75.66A3.66,3.66,0,0,1,255.66,72Z"/>
    <g>
      <polyline class="cls-4" points="48.5 140.5 167 46 197 75 288 2"/>
      <polyline class="cls-4" points="267.5 1.5 288.5 1.5 288.5 21.5"/>
    </g>
  </g>
</svg>
