<svg id="Layer_1" data-name="Layer 1" xmlns="http://www.w3.org/2000/svg" viewBox="0 0 345.85 186.5">
  <defs>
    <style>
      .cls-1 {
        fill: #c27acc;
      }

      .cls-2, .cls-4 {
        fill: none;
        stroke: #000;
        stroke-miterlimit: 10;
        stroke-width: 3px;
      }

      .cls-3 {
        fill: #dba6e0;
      }

      .cls-4 {
        stroke-linecap: round;
      }
    </style>
  </defs>
  <title>Productivity tool</title>
  <circle class="cls-1" cx="173.93" cy="172" r="13"/>
  <circle class="cls-2" cx="173.93" cy="172" r="13"/>
  <path class="cls-2" d="M215.36,98.94a5,5,0,0,1-6.22,1.44,82.11,82.11,0,0,0-72,.07A5,5,0,0,1,130.91,99L82.31,35.1a5,5,0,0,1,1.35-7.29,171.65,171.65,0,0,1,179-.09A5,5,0,0,1,264,35Z" transform="translate(-0.29 -1.1)"/>
  <path class="cls-3" d="M58.34,46.75A171,171,0,0,0,1.79,169a5,5,0,0,0,5,5.14H86.36a5,5,0,0,0,5-4.78,81.65,81.65,0,0,1,22.52-51.79,5,5,0,0,0,.39-6.52L65.65,47.44A5,5,0,0,0,58.34,46.75Z" transform="translate(-0.29 -1.1)"/>
  <path class="cls-2" d="M58.34,46.75A171,171,0,0,0,1.79,169a5,5,0,0,0,5,5.14H86.36a5,5,0,0,0,5-4.78,81.65,81.65,0,0,1,22.52-51.79,5,5,0,0,0,.39-6.52L65.65,47.44A5,5,0,0,0,58.34,46.75Z" transform="translate(-0.29 -1.1)"/>
  <path class="cls-3" d="M280.65,47.33,232,110.88a5,5,0,0,0,.4,6.53,81.59,81.59,0,0,1,22.64,52,5,5,0,0,0,5,4.67h79.56a5,5,0,0,0,5-5.14A171.06,171.06,0,0,0,288,46.63,5,5,0,0,0,280.65,47.33Z" transform="translate(-0.29 -1.1)"/>
  <path class="cls-2" d="M280.65,47.33,232,110.88a5,5,0,0,0,.4,6.53,81.59,81.59,0,0,1,22.64,52,5,5,0,0,0,5,4.67h79.56a5,5,0,0,0,5-5.14A171.06,171.06,0,0,0,288,46.63,5,5,0,0,0,280.65,47.33Z" transform="translate(-0.29 -1.1)"/>
  <path class="cls-2" d="M116.1,115.55" transform="translate(-0.29 -1.1)"/>
  <path class="cls-2" d="M61.1,44.55" transform="translate(-0.29 -1.1)"/>
  <path class="cls-2" d="M134.21,101.1" transform="translate(-0.29 -1.1)"/>
  <path class="cls-2" d="M231,112.38" transform="translate(-0.29 -1.1)"/>
  <path class="cls-2" d="M288.37,43.6" transform="translate(-0.29 -1.1)"/>
  <path class="cls-2" d="M211.63,101.66" transform="translate(-0.29 -1.1)"/>
  <line class="cls-4" x1="183.59" y1="162.57" x2="201.47" y2="145.1"/>
</svg>
