<svg id="Layer_1" data-name="Layer 1" xmlns="http://www.w3.org/2000/svg" viewBox="0 0 353.1 348.5">
  <defs>
    <style>
      .cls-1 {
        fill: #dba6e0;
      }

      .cls-2 {
        fill: #0c0c0c;
      }

      .cls-3, .cls-7 {
        fill: #fff;
      }

      .cls-3, .cls-4, .cls-6, .cls-7 {
        stroke: #000;
        stroke-miterlimit: 10;
        stroke-width: 3px;
      }

      .cls-3, .cls-6 {
        stroke-linecap: round;
      }

      .cls-4, .cls-6 {
        fill: none;
      }

      .cls-5 {
        fill: #eaeaea;
      }
    </style>
  </defs>
  <title>Website</title>
  <g>
    <path class="cls-1" d="M2.54,53.32V23.89A21.63,21.63,0,0,1,24.25,2.4H304.93a21.63,21.63,0,0,1,21.71,21.49V53.32Z" transform="translate(-1.04 -0.9)"/>
    <path class="cls-2" d="M304.93,3.9a20.13,20.13,0,0,1,20.21,20V51.82H4V23.89a20.13,20.13,0,0,1,20.21-20H304.93m0-3H24.25A23.1,23.1,0,0,0,1,23.89V54.82h327.1V23.89A23.1,23.1,0,0,0,304.93.9Z" transform="translate(-1.04 -0.9)"/>
  </g>
  <path class="cls-3" d="M108.24,321.9H25.63a23,23,0,0,1-23-23V52.82h324V298.91a23,23,0,0,1-23,23H134.86" transform="translate(-1.04 -0.9)"/>
  <line class="cls-4" x1="1.6" y1="51.92" x2="0.77" y2="51.92"/>
  <path class="cls-5" d="M58.41,93H268.6a0,0,0,0,1,0,0v71.18A11.82,11.82,0,0,1,256.78,176H58.41A11.82,11.82,0,0,1,46.6,164.18V104.82A11.82,11.82,0,0,1,58.41,93Z"/>
  <path class="cls-4" d="M283.14,130.9v37.25a8.25,8.25,0,0,1-8.25,8.25H133.64" transform="translate(-1.04 -0.9)"/>
  <path class="cls-6" d="M110.64,176.4H55.39a8.25,8.25,0,0,1-8.25-8.25v-65.5a8.25,8.25,0,0,1,8.25-8.25H269.64" transform="translate(-1.04 -0.9)"/>
  <line class="cls-3" x1="46.1" y1="206.5" x2="109.6" y2="206.5"/>
  <path class="cls-3" d="M134.64,221.9V147A15.06,15.06,0,0,1,149.7,131.9H337.58A15.06,15.06,0,0,1,352.64,147V332.84a15.06,15.06,0,0,1-15.06,15.06H149.7a15.06,15.06,0,0,1-15.06-15.06V238.35" transform="translate(-1.04 -0.9)"/>
  <line class="cls-3" x1="46.6" y1="245.5" x2="109.6" y2="245.5"/>
  <line class="cls-7" x1="133.86" y1="175.8" x2="350.6" y2="175.8"/>
  <path class="cls-5" d="M177.41,212h131a7.16,7.16,0,0,1,7.16,7.16v32a6.81,6.81,0,0,1-6.81,6.81H177.41a6.81,6.81,0,0,1-6.81-6.81V218.81A6.81,6.81,0,0,1,177.41,212Z"/>
  <path class="cls-6" d="M256.64,258.9H178.92a7.28,7.28,0,0,1-7.28-7.28V220.18a7.28,7.28,0,0,1,7.28-7.28H309.36a7.28,7.28,0,0,1,7.28,7.28v31.44a7.28,7.28,0,0,1-7.28,7.28H282.64" transform="translate(-1.04 -0.9)"/>
  <line class="cls-3" x1="171.1" y1="300.5" x2="316.1" y2="300.5"/>
  <path class="cls-1" d="M351.64,175.19H136.2V146.35a12.94,12.94,0,0,1,12.94-12.94H338.43a13.21,13.21,0,0,1,13.21,13.2Z" transform="translate(-1.04 -0.9)"/>
  <rect x="24.6" y="22" width="10" height="6" rx="3"/>
  <rect x="43.6" y="22" width="10" height="6" rx="3"/>
  <rect x="62.6" y="22" width="10" height="6" rx="3"/>
</svg>
