<svg width="700" height="1851" viewBox="0 0 700 1851" fill="none" xmlns="http://www.w3.org/2000/svg">
    <rect width="700" height="1851" fill="#F5F5F5" />
    <g id="theme_viin_healthy_care_preview 1" clip-path="url(#clip0_0_1)">
        <g id="Theme_preview">
            <path id="Vector" d="M700 0.439453H0V1850.44H700V0.439453Z" fill="white" />
            <g id="Group">
                <path id="Vector_2" d="M700 0.439453H0V37.4395H700V0.439453Z" fill="#3AADAA" />
                <path id="Vector_3"
                    d="M76.3438 23.4392V21.9182H72.6028V14.7122H70.7578V23.4392H76.3438ZM81.0238 23.5592C81.7938 23.5592 82.4868 23.3832 83.1038 23.0322C83.7228 22.6822 84.2108 22.1722 84.5708 21.5042C84.9308 20.8372 85.1098 20.0272 85.1098 19.0752C85.1098 18.1242 84.9298 17.3142 84.5698 16.6462C84.2108 15.9792 83.7228 15.4702 83.1048 15.1192C82.4868 14.7682 81.7928 14.5922 81.0228 14.5922C80.2478 14.5922 79.5518 14.7682 78.9348 15.1192C78.3188 15.4692 77.8308 15.9792 77.4738 16.6462C77.1158 17.3142 76.9368 18.1242 76.9368 19.0762C76.9368 20.0242 77.1158 20.8322 77.4738 21.5002C77.804 22.1398 78.3112 22.6709 78.9348 23.0302C79.5518 23.3822 80.2478 23.5582 81.0228 23.5582L81.0238 23.5592ZM81.0238 21.9262C80.6105 21.9354 80.2039 21.8212 79.8558 21.5982C79.5228 21.3792 79.2658 21.0582 79.0818 20.6352C78.8988 20.2122 78.8068 19.6922 78.8068 19.0752C78.8068 18.4592 78.8988 17.9392 79.0818 17.5152C79.2648 17.0922 79.5228 16.7712 79.8558 16.5532C80.2035 16.3302 80.6098 16.216 81.0228 16.2252C81.4688 16.2252 81.8578 16.3342 82.1908 16.5532C82.5228 16.7712 82.7808 17.0932 82.9638 17.5162C83.1478 17.9392 83.2388 18.4592 83.2388 19.0762C83.2388 19.6922 83.1478 20.2122 82.9638 20.6352C82.7808 21.0582 82.5238 21.3792 82.1908 21.5982C81.8428 21.8215 81.4361 21.9357 81.0228 21.9262H81.0238ZM90.3008 23.5582C91.0338 23.5582 91.6848 23.4102 92.2528 23.1132C92.8107 22.8261 93.275 22.3854 93.5908 21.8432C93.9148 21.2932 94.0768 20.6352 94.0768 19.8682V18.7682H90.4248V20.1582H92.2968L92.2928 20.2842C92.2758 20.5212 92.2228 20.7362 92.1358 20.9292L92.0628 21.0692C91.9036 21.3435 91.6661 21.5639 91.3808 21.7022C91.0848 21.8522 90.7268 21.9262 90.3098 21.9262C89.8498 21.9262 89.4498 21.8152 89.1118 21.5922C88.7738 21.3692 88.5118 21.0442 88.3278 20.6182C88.1438 20.1922 88.0508 19.6752 88.0508 19.0672C88.0508 18.4592 88.1448 17.9442 88.3318 17.5222C88.5198 17.1002 88.7818 16.7782 89.1188 16.5572C89.4683 16.332 89.8771 16.2164 90.2928 16.2252C90.5308 16.2252 90.7488 16.2552 90.9468 16.3142C91.1438 16.3742 91.3198 16.4602 91.4748 16.5722C91.6298 16.6842 91.7608 16.8202 91.8688 16.9812C91.9768 17.1412 92.0608 17.3252 92.1208 17.5332H93.9958C93.9407 17.1146 93.803 16.7112 93.5908 16.3462C93.3818 15.9871 93.1062 15.6711 92.7788 15.4152C92.4384 15.1488 92.0544 14.9435 91.6438 14.8082C91.1983 14.6614 90.7318 14.5884 90.2628 14.5922C89.7125 14.5872 89.1665 14.6902 88.6558 14.8952C88.1651 15.0943 87.7221 15.3949 87.3558 15.7772C86.9718 16.1829 86.6765 16.6641 86.4888 17.1902C86.2828 17.7452 86.1798 18.3762 86.1798 19.0842C86.1798 20.0042 86.3528 20.7992 86.6978 21.4682C87.0203 22.113 87.5229 22.6504 88.1448 23.0152C88.7648 23.3772 89.4828 23.5582 90.3008 23.5582ZM99.2588 23.5582C100.029 23.5582 100.722 23.3832 101.34 23.0322C101.958 22.6822 102.447 22.1722 102.806 21.5042C103.166 20.8372 103.346 20.0272 103.346 19.0752C103.346 18.1242 103.166 17.3142 102.806 16.6462C102.446 15.9792 101.958 15.4702 101.34 15.1192C100.722 14.7682 100.029 14.5922 99.2588 14.5922C98.4828 14.5922 97.7868 14.7682 97.1708 15.1192C96.5538 15.4692 96.0668 15.9792 95.7088 16.6462C95.3508 17.3142 95.1718 18.1242 95.1718 19.0762C95.1718 20.0242 95.3508 20.8322 95.7088 21.5002C96.0668 22.1682 96.5538 22.6782 97.1708 23.0302C97.7868 23.3822 98.4828 23.5582 99.2588 23.5582ZM99.2588 21.9262C98.8128 21.9262 98.4228 21.8162 98.0908 21.5982C97.7588 21.3792 97.5008 21.0582 97.3178 20.6352C97.1338 20.2122 97.0428 19.6922 97.0428 19.0752C97.0428 18.4592 97.1338 17.9392 97.3178 17.5152C97.5008 17.0922 97.7578 16.7712 98.0908 16.5532C98.4388 16.33 98.8455 16.2158 99.2588 16.2252C99.7048 16.2252 100.094 16.3342 100.426 16.5532C100.759 16.7712 101.016 17.0932 101.2 17.5162C101.383 17.9392 101.475 18.4592 101.475 19.0762C101.475 19.6922 101.383 20.2122 101.2 20.6352C101.016 21.0582 100.759 21.3792 100.426 21.5982C100.078 21.8213 99.6718 21.9355 99.2588 21.9262Z"
                    fill="black" />
                <g id="Group_2" opacity="0.6">
                    <path id="Vector_4" d="M282 15.4392H245V22.4392H282V15.4392Z" fill="black" />
                    <path id="Vector_5" d="M340 15.4392H303V22.4392H340V15.4392Z" fill="black" />
                    <path id="Vector_6" d="M398 15.4392H361V22.4392H398V15.4392Z" fill="black" />
                    <path id="Vector_7" d="M456 15.4392H419V22.4392H456V15.4392Z" fill="black" />
                </g>
                <path id="Vector_8" d="M630 15.4392H593V22.4392H630V15.4392Z" fill="black" />
            </g>
            <g id="Group_3">
                <path id="Vector_9" d="M700 1661.44H0V1850.44H700V1661.44Z" fill="black" />
                <g id="Group_4">
                    <g id="Group_5">
                        <g id="Group_6">
                            <path id="Vector_10"
                                d="M489.998 1798.13C494.14 1798.13 497.498 1792.46 497.498 1785.47C497.498 1778.48 494.14 1772.81 489.998 1772.81C485.856 1772.81 482.498 1778.48 482.498 1785.47C482.498 1792.46 485.856 1798.13 489.998 1798.13Z"
                                fill="black" />
                            <path id="Vector_11"
                                d="M517.998 1798.13C522.14 1798.13 525.498 1792.46 525.498 1785.47C525.498 1778.48 522.14 1772.81 517.998 1772.81C513.856 1772.81 510.498 1778.48 510.498 1785.47C510.498 1792.46 513.856 1798.13 517.998 1798.13Z"
                                fill="black" />
                            <path id="Vector_12"
                                d="M545.998 1798.13C550.14 1798.13 553.498 1792.46 553.498 1785.47C553.498 1778.48 550.14 1772.81 545.998 1772.81C541.856 1772.81 538.498 1778.48 538.498 1785.47C538.498 1792.46 541.856 1798.13 545.998 1798.13Z"
                                fill="black" />
                        </g>
                        <g id="Group_7">
                            <path id="Vector_13" d="M303 1779.56H210V1782.94H303V1779.56Z" fill="black" />
                            <path id="Vector_14" d="M288 1788H210V1791.38H288V1788Z" fill="black" />
                        </g>
                        <g id="Group_8">
                            <path id="Vector_15" d="M117 1779.56H70V1782.94H117V1779.56Z" fill="black" />
                            <path id="Vector_16" d="M109 1788H70V1791.38H109V1788Z" fill="black" />
                        </g>
                    </g>
                    <g id="Group_9">
                        <g id="Group_10" opacity="0.6">
                            <g id="Group_11">
                                <path id="Vector_17" d="M393.998 1713.75H209.998V1717.13H393.998V1713.75Z"
                                    fill="black" />
                                <path id="Vector_18" d="M378.998 1722.19H209.998V1725.56H378.998V1722.19Z"
                                    fill="black" />
                                <path id="Vector_19" d="M288.998 1730.63H209.998V1734H288.998V1730.63Z" fill="black" />
                                <path id="Vector_20" d="M300.998 1739.06H209.998V1742.44H300.998V1739.06Z"
                                    fill="black" />
                            </g>
                        </g>
                        <path id="Entry Title"
                            d="M71.4493 1726.69V1713.59H80.2782V1715.87H74.2196V1718.99H79.824V1721.28H74.2196V1724.41H80.3038V1726.69H71.4493ZM85.1549 1721.01V1726.69H82.4295V1716.86H85.0269V1718.6H85.1421C85.3596 1718.02 85.7243 1717.57 86.2361 1717.24C86.7479 1716.9 87.3685 1716.73 88.0978 1716.73C88.7803 1716.73 89.3753 1716.88 89.8828 1717.18C90.3904 1717.48 90.7849 1717.91 91.0664 1718.46C91.3479 1719.01 91.4886 1719.67 91.4886 1720.43V1726.69H88.7632V1720.92C88.7675 1720.32 88.6139 1719.85 88.3026 1719.51C87.9912 1719.17 87.5626 1719 87.0166 1719C86.6498 1719 86.3257 1719.08 86.0442 1719.24C85.7669 1719.39 85.5494 1719.62 85.3916 1719.93C85.2381 1720.23 85.1592 1720.59 85.1549 1721.01ZM98.8636 1716.86V1718.91H92.9457V1716.86H98.8636ZM94.2893 1714.51H97.0147V1723.67C97.0147 1723.92 97.0531 1724.12 97.1299 1724.26C97.2066 1724.39 97.3133 1724.49 97.4497 1724.55C97.5905 1724.6 97.7526 1724.63 97.936 1724.63C98.0639 1724.63 98.1919 1724.62 98.3198 1724.6C98.4478 1724.57 98.5459 1724.55 98.6141 1724.54L99.0428 1726.57C98.9063 1726.61 98.7144 1726.66 98.467 1726.72C98.2196 1726.77 97.9189 1726.81 97.5649 1726.82C96.9081 1726.85 96.3323 1726.76 95.8375 1726.56C95.347 1726.36 94.9653 1726.05 94.6923 1725.63C94.4193 1725.21 94.285 1724.67 94.2893 1724.03V1714.51ZM100.639 1726.69V1716.86H103.281V1718.58H103.384C103.563 1717.97 103.863 1717.51 104.286 1717.2C104.708 1716.88 105.194 1716.72 105.744 1716.72C105.881 1716.72 106.028 1716.73 106.186 1716.75C106.344 1716.76 106.482 1716.79 106.602 1716.82V1719.24C106.474 1719.2 106.297 1719.16 106.071 1719.13C105.845 1719.1 105.638 1719.09 105.45 1719.09C105.049 1719.09 104.691 1719.18 104.375 1719.35C104.064 1719.52 103.817 1719.76 103.633 1720.07C103.454 1720.37 103.364 1720.73 103.364 1721.13V1726.69H100.639ZM109.992 1730.37C109.647 1730.37 109.323 1730.35 109.02 1730.29C108.721 1730.24 108.474 1730.17 108.278 1730.09L108.892 1728.06C109.212 1728.16 109.5 1728.21 109.756 1728.22C110.016 1728.23 110.24 1728.17 110.428 1728.04C110.619 1727.91 110.775 1727.69 110.895 1727.39L111.055 1726.97L107.529 1716.86H110.396L112.43 1724.08H112.532L114.586 1716.86H117.471L113.652 1727.75C113.469 1728.28 113.219 1728.74 112.903 1729.13C112.592 1729.53 112.198 1729.84 111.72 1730.05C111.242 1730.27 110.666 1730.37 109.992 1730.37ZM122.588 1715.87V1713.59H133.349V1715.87H129.338V1726.69H126.599V1715.87H122.588ZM135.07 1726.69V1716.86H137.795V1726.69H135.07ZM136.439 1715.6C136.034 1715.6 135.686 1715.46 135.396 1715.19C135.111 1714.92 134.968 1714.59 134.968 1714.21C134.968 1713.84 135.111 1713.52 135.396 1713.25C135.686 1712.97 136.034 1712.84 136.439 1712.84C136.844 1712.84 137.19 1712.97 137.476 1713.25C137.766 1713.52 137.911 1713.84 137.911 1714.21C137.911 1714.59 137.766 1714.92 137.476 1715.19C137.19 1715.46 136.844 1715.6 136.439 1715.6ZM145.206 1716.86V1718.91H139.288V1716.86H145.206ZM140.631 1714.51H143.357V1723.67C143.357 1723.92 143.395 1724.12 143.472 1724.26C143.549 1724.39 143.655 1724.49 143.792 1724.55C143.932 1724.6 144.095 1724.63 144.278 1724.63C144.406 1724.63 144.534 1724.62 144.662 1724.6C144.79 1724.57 144.888 1724.55 144.956 1724.54L145.385 1726.57C145.248 1726.61 145.056 1726.66 144.809 1726.72C144.562 1726.77 144.261 1726.81 143.907 1726.82C143.25 1726.85 142.674 1726.76 142.179 1726.56C141.689 1726.36 141.307 1726.05 141.034 1725.63C140.761 1725.21 140.627 1724.67 140.631 1724.03V1714.51ZM149.918 1713.59V1726.69H147.192V1713.59H149.918ZM156.579 1726.88C155.568 1726.88 154.698 1726.68 153.969 1726.27C153.244 1725.85 152.685 1725.27 152.293 1724.51C151.9 1723.76 151.704 1722.86 151.704 1721.82C151.704 1720.81 151.9 1719.92 152.293 1719.16C152.685 1718.4 153.237 1717.8 153.95 1717.37C154.666 1716.95 155.507 1716.73 156.47 1716.73C157.119 1716.73 157.722 1716.84 158.281 1717.05C158.844 1717.25 159.334 1717.56 159.752 1717.98C160.175 1718.39 160.503 1718.91 160.738 1719.54C160.972 1720.16 161.09 1720.89 161.09 1721.72V1722.47H152.792V1720.78H158.524C158.524 1720.39 158.439 1720.04 158.268 1719.74C158.098 1719.44 157.861 1719.2 157.558 1719.03C157.259 1718.86 156.912 1718.77 156.515 1718.77C156.101 1718.77 155.735 1718.87 155.415 1719.06C155.099 1719.24 154.852 1719.5 154.673 1719.82C154.494 1720.13 154.402 1720.49 154.398 1720.87V1722.48C154.398 1722.97 154.487 1723.39 154.666 1723.74C154.85 1724.09 155.108 1724.37 155.44 1724.56C155.773 1724.75 156.168 1724.85 156.624 1724.85C156.927 1724.85 157.204 1724.8 157.456 1724.72C157.707 1724.63 157.923 1724.51 158.102 1724.34C158.281 1724.16 158.417 1723.96 158.511 1723.71L161.032 1723.87C160.904 1724.48 160.642 1725.01 160.245 1725.46C159.853 1725.91 159.345 1726.26 158.722 1726.51C158.104 1726.76 157.39 1726.88 156.579 1726.88Z"
                            fill="black" />
                    </g>
                </g>
            </g>
            <g id="Group 1">
                <g id="Group 2">
                    <rect id="Rectangle 1" y="37.4395" width="700" height="265" fill="url(#theme_viin_healthy_care_s_carousel_default_image_1_id)" class="img_reference_s_carousel_default_image_1" />
                    <g id="Group_12">
                        <g id="Group_13">
                            <rect id="Rectangle 2" x="310" y="195.439" width="86" height="31" rx="6.00534"
                                fill="#EEEEEE" />
                            <path id="Button"
                                d="M338.349 211.446H336.185L336.173 210.537H338.138C338.462 210.537 338.746 210.482 338.988 210.372C339.23 210.263 339.418 210.107 339.551 209.903C339.688 209.696 339.756 209.45 339.756 209.164C339.756 208.852 339.696 208.597 339.575 208.402C339.457 208.203 339.275 208.058 339.029 207.968C338.787 207.874 338.478 207.827 338.103 207.827H336.437V215.439H335.305V206.901H338.103C338.54 206.901 338.931 206.946 339.275 207.035C339.619 207.122 339.911 207.258 340.149 207.446C340.392 207.63 340.575 207.864 340.701 208.15C340.826 208.435 340.888 208.777 340.888 209.176C340.888 209.528 340.798 209.847 340.618 210.132C340.439 210.414 340.188 210.644 339.868 210.824C339.551 211.004 339.18 211.119 338.753 211.17L338.349 211.446ZM338.296 215.439H335.739L336.378 214.519H338.296C338.656 214.519 338.961 214.456 339.211 214.331C339.465 214.206 339.659 214.03 339.792 213.803C339.924 213.573 339.991 213.301 339.991 212.988C339.991 212.671 339.934 212.398 339.821 212.167C339.707 211.936 339.53 211.758 339.287 211.633C339.045 211.508 338.732 211.446 338.349 211.446H336.736L336.748 210.537H338.953L339.193 210.865C339.604 210.9 339.952 211.018 340.237 211.217C340.523 211.412 340.74 211.663 340.888 211.968C341.041 212.273 341.117 212.609 341.117 212.976C341.117 213.508 341 213.958 340.765 214.325C340.534 214.689 340.208 214.966 339.786 215.158C339.363 215.346 338.867 215.439 338.296 215.439ZM346.506 213.973V209.094H347.597V215.439H346.559L346.506 213.973ZM346.712 212.636L347.163 212.624C347.163 213.047 347.118 213.438 347.028 213.797C346.942 214.153 346.802 214.462 346.606 214.724C346.411 214.986 346.155 215.191 345.838 215.34C345.521 215.484 345.136 215.557 344.683 215.557C344.374 215.557 344.09 215.512 343.832 215.422C343.578 215.332 343.359 215.193 343.175 215.005C342.992 214.818 342.849 214.573 342.747 214.272C342.65 213.971 342.601 213.61 342.601 213.187V209.094H343.686V213.199C343.686 213.485 343.717 213.721 343.779 213.909C343.846 214.093 343.934 214.239 344.043 214.349C344.157 214.454 344.282 214.528 344.419 214.571C344.559 214.615 344.704 214.636 344.853 214.636C345.314 214.636 345.68 214.548 345.949 214.372C346.219 214.192 346.413 213.952 346.53 213.651C346.651 213.346 346.712 213.008 346.712 212.636ZM351.908 209.094V209.927H348.477V209.094H351.908ZM349.638 207.552H350.723V213.868C350.723 214.083 350.756 214.245 350.823 214.355C350.889 214.464 350.975 214.536 351.081 214.571C351.186 214.607 351.3 214.624 351.421 214.624C351.511 214.624 351.605 214.616 351.702 214.601C351.804 214.581 351.88 214.566 351.931 214.554L351.937 215.439C351.851 215.467 351.738 215.492 351.597 215.516C351.46 215.543 351.294 215.557 351.098 215.557C350.833 215.557 350.588 215.504 350.365 215.398C350.143 215.293 349.965 215.117 349.832 214.871C349.703 214.62 349.638 214.284 349.638 213.862V207.552ZM355.837 209.094V209.927H352.406V209.094H355.837ZM353.567 207.552H354.652V213.868C354.652 214.083 354.686 214.245 354.752 214.355C354.819 214.464 354.905 214.536 355.01 214.571C355.116 214.607 355.229 214.624 355.35 214.624C355.44 214.624 355.534 214.616 355.632 214.601C355.733 214.581 355.81 214.566 355.86 214.554L355.866 215.439C355.78 215.467 355.667 215.492 355.526 215.516C355.389 215.543 355.223 215.557 355.028 215.557C354.762 215.557 354.517 215.504 354.295 215.398C354.072 215.293 353.894 215.117 353.761 214.871C353.632 214.62 353.567 214.284 353.567 213.862V207.552ZM356.705 212.337V212.202C356.705 211.745 356.771 211.321 356.904 210.93C357.037 210.535 357.229 210.193 357.479 209.903C357.729 209.61 358.032 209.383 358.388 209.223C358.744 209.059 359.143 208.977 359.585 208.977C360.03 208.977 360.431 209.059 360.787 209.223C361.146 209.383 361.451 209.61 361.702 209.903C361.956 210.193 362.149 210.535 362.282 210.93C362.415 211.321 362.482 211.745 362.482 212.202V212.337C362.482 212.795 362.415 213.219 362.282 213.61C362.149 214.001 361.956 214.343 361.702 214.636C361.451 214.925 361.148 215.152 360.793 215.316C360.441 215.477 360.042 215.557 359.596 215.557C359.151 215.557 358.75 215.477 358.394 215.316C358.038 215.152 357.733 214.925 357.479 214.636C357.229 214.343 357.037 214.001 356.904 213.61C356.771 213.219 356.705 212.795 356.705 212.337ZM357.79 212.202V212.337C357.79 212.654 357.827 212.953 357.901 213.234C357.976 213.512 358.087 213.758 358.236 213.973C358.388 214.188 358.578 214.358 358.805 214.484C359.031 214.605 359.295 214.665 359.596 214.665C359.893 214.665 360.153 214.605 360.376 214.484C360.603 214.358 360.791 214.188 360.939 213.973C361.088 213.758 361.199 213.512 361.274 213.234C361.352 212.953 361.391 212.654 361.391 212.337V212.202C361.391 211.889 361.352 211.594 361.274 211.317C361.199 211.035 361.086 210.787 360.933 210.572C360.785 210.353 360.597 210.181 360.37 210.056C360.148 209.931 359.886 209.868 359.585 209.868C359.287 209.868 359.025 209.931 358.799 210.056C358.576 210.181 358.388 210.353 358.236 210.572C358.087 210.787 357.976 211.035 357.901 211.317C357.827 211.594 357.79 211.889 357.79 212.202ZM364.927 210.449V215.439H363.842V209.094H364.868L364.927 210.449ZM364.669 212.026L364.218 212.009C364.221 211.575 364.286 211.174 364.411 210.806C364.536 210.435 364.712 210.112 364.939 209.839C365.166 209.565 365.435 209.354 365.748 209.205C366.065 209.053 366.415 208.977 366.798 208.977C367.111 208.977 367.392 209.02 367.642 209.106C367.893 209.188 368.106 209.321 368.282 209.504C368.462 209.688 368.598 209.927 368.692 210.22C368.786 210.509 368.833 210.863 368.833 211.281V215.439H367.742V211.27C367.742 210.937 367.693 210.672 367.596 210.472C367.498 210.269 367.355 210.122 367.167 210.032C366.98 209.938 366.749 209.892 366.475 209.892C366.206 209.892 365.959 209.948 365.736 210.062C365.518 210.175 365.328 210.331 365.168 210.531C365.011 210.73 364.888 210.959 364.798 211.217C364.712 211.471 364.669 211.741 364.669 212.026Z"
                                fill="#EEEEEE" />
                        </g>
                        <path id="Headline"
                            d="M282.425 120.412V124.758H268.311V120.412H282.425ZM269.964 109.4V136.439H264.393V109.4H269.964ZM286.4 109.4V136.439H280.847V109.4H286.4ZM300.161 136.811C298.601 136.811 297.202 136.563 295.964 136.068C294.726 135.56 293.673 134.861 292.807 133.969C291.952 133.078 291.296 132.044 290.838 130.868C290.38 129.679 290.151 128.416 290.151 127.079V126.336C290.151 124.814 290.368 123.421 290.801 122.158C291.234 120.895 291.853 119.799 292.658 118.871C293.475 117.942 294.466 117.23 295.63 116.735C296.793 116.228 298.106 115.974 299.567 115.974C300.99 115.974 302.253 116.209 303.355 116.679C304.457 117.15 305.379 117.818 306.122 118.685C306.877 119.552 307.447 120.592 307.831 121.805C308.215 123.006 308.406 124.343 308.406 125.816V128.045H292.435V124.479H303.151V124.071C303.151 123.328 303.015 122.666 302.742 122.084C302.482 121.489 302.086 121.019 301.554 120.672C301.021 120.326 300.34 120.152 299.511 120.152C298.805 120.152 298.199 120.307 297.691 120.617C297.183 120.926 296.769 121.359 296.447 121.917C296.137 122.474 295.902 123.13 295.741 123.885C295.592 124.628 295.518 125.445 295.518 126.336V127.079C295.518 127.884 295.63 128.627 295.852 129.308C296.088 129.989 296.416 130.577 296.837 131.072C297.27 131.567 297.79 131.951 298.397 132.224C299.016 132.496 299.715 132.632 300.495 132.632C301.461 132.632 302.358 132.446 303.188 132.075C304.03 131.691 304.754 131.115 305.361 130.348L307.961 133.171C307.54 133.777 306.964 134.359 306.234 134.916C305.516 135.474 304.649 135.932 303.634 136.291C302.618 136.637 301.461 136.811 300.161 136.811ZM322.298 131.908V122.957C322.298 122.313 322.193 121.762 321.982 121.304C321.772 120.833 321.443 120.468 320.998 120.208C320.564 119.948 320.001 119.818 319.308 119.818C318.714 119.818 318.2 119.923 317.766 120.134C317.333 120.332 316.999 120.623 316.764 121.007C316.528 121.378 316.411 121.817 316.411 122.325H311.062C311.062 121.471 311.26 120.66 311.656 119.892C312.053 119.125 312.628 118.45 313.384 117.868C314.139 117.274 315.036 116.809 316.076 116.475C317.129 116.141 318.305 115.974 319.605 115.974C321.165 115.974 322.552 116.234 323.765 116.754C324.978 117.274 325.932 118.054 326.625 119.094C327.331 120.134 327.683 121.434 327.683 122.994V131.592C327.683 132.694 327.751 133.598 327.888 134.304C328.024 134.997 328.222 135.604 328.482 136.123V136.439H323.078C322.818 135.894 322.62 135.214 322.483 134.396C322.36 133.567 322.298 132.737 322.298 131.908ZM323.003 124.201L323.041 127.228H320.051C319.345 127.228 318.732 127.308 318.212 127.469C317.692 127.63 317.265 127.859 316.931 128.156C316.596 128.441 316.349 128.775 316.188 129.159C316.039 129.543 315.965 129.964 315.965 130.422C315.965 130.88 316.07 131.295 316.281 131.666C316.491 132.025 316.794 132.31 317.191 132.521C317.587 132.719 318.051 132.818 318.584 132.818C319.388 132.818 320.088 132.657 320.682 132.335C321.276 132.013 321.734 131.617 322.056 131.146C322.391 130.676 322.564 130.23 322.576 129.809L323.988 132.075C323.79 132.583 323.517 133.109 323.171 133.654C322.836 134.198 322.409 134.712 321.889 135.195C321.369 135.665 320.744 136.055 320.013 136.365C319.283 136.662 318.416 136.811 317.414 136.811C316.138 136.811 314.981 136.557 313.941 136.049C312.913 135.529 312.096 134.817 311.489 133.914C310.895 132.997 310.598 131.957 310.598 130.794C310.598 129.741 310.796 128.806 311.192 127.989C311.588 127.172 312.17 126.485 312.938 125.928C313.718 125.358 314.69 124.931 315.854 124.646C317.017 124.349 318.367 124.201 319.902 124.201H323.003ZM343.673 132.056V107.914H349.059V136.439H344.212L343.673 132.056ZM330.971 126.634V126.244C330.971 124.708 331.144 123.316 331.49 122.065C331.837 120.802 332.345 119.719 333.013 118.815C333.682 117.911 334.505 117.212 335.483 116.717C336.461 116.221 337.576 115.974 338.826 115.974C340.002 115.974 341.03 116.221 341.909 116.717C342.8 117.212 343.556 117.918 344.175 118.834C344.806 119.738 345.314 120.808 345.697 122.047C346.081 123.272 346.36 124.616 346.533 126.076V126.931C346.36 128.33 346.081 129.63 345.697 130.831C345.314 132.032 344.806 133.084 344.175 133.988C343.556 134.879 342.8 135.573 341.909 136.068C341.018 136.563 339.978 136.811 338.789 136.811C337.539 136.811 336.424 136.557 335.446 136.049C334.48 135.542 333.663 134.83 332.995 133.914C332.339 132.997 331.837 131.92 331.49 130.682C331.144 129.444 330.971 128.095 330.971 126.634ZM336.319 126.244V126.634C336.319 127.463 336.381 128.237 336.505 128.955C336.641 129.673 336.858 130.311 337.155 130.868C337.464 131.413 337.86 131.84 338.343 132.149C338.839 132.446 339.439 132.595 340.145 132.595C341.061 132.595 341.816 132.391 342.41 131.982C343.005 131.561 343.457 130.985 343.766 130.255C344.088 129.525 344.274 128.683 344.323 127.729V125.296C344.286 124.516 344.175 123.817 343.989 123.198C343.816 122.567 343.556 122.028 343.209 121.582C342.875 121.137 342.454 120.79 341.946 120.542C341.451 120.295 340.863 120.171 340.182 120.171C339.488 120.171 338.894 120.332 338.399 120.654C337.904 120.963 337.501 121.39 337.192 121.935C336.895 122.48 336.672 123.124 336.523 123.867C336.387 124.597 336.319 125.389 336.319 126.244ZM358.883 107.914V136.439H353.516V107.914H358.883ZM368.949 116.345V136.439H363.582V116.345H368.949ZM363.247 111.108C363.247 110.328 363.52 109.684 364.064 109.177C364.609 108.669 365.34 108.415 366.256 108.415C367.16 108.415 367.884 108.669 368.429 109.177C368.986 109.684 369.264 110.328 369.264 111.108C369.264 111.888 368.986 112.532 368.429 113.039C367.884 113.547 367.16 113.801 366.256 113.801C365.34 113.801 364.609 113.547 364.064 113.039C363.52 112.532 363.247 111.888 363.247 111.108ZM378.606 120.635V136.439H373.257V116.345H378.271L378.606 120.635ZM377.826 125.686H376.377C376.377 124.201 376.569 122.864 376.953 121.675C377.337 120.474 377.875 119.453 378.568 118.611C379.262 117.757 380.085 117.107 381.038 116.661C382.004 116.203 383.081 115.974 384.27 115.974C385.211 115.974 386.071 116.11 386.851 116.382C387.631 116.655 388.3 117.088 388.857 117.682C389.426 118.277 389.86 119.063 390.157 120.041C390.466 121.019 390.621 122.214 390.621 123.625V136.439H385.236V123.607C385.236 122.715 385.112 122.022 384.864 121.527C384.617 121.031 384.251 120.685 383.768 120.487C383.298 120.276 382.716 120.171 382.023 120.171C381.305 120.171 380.679 120.313 380.147 120.598C379.627 120.883 379.194 121.279 378.847 121.787C378.513 122.282 378.259 122.864 378.086 123.532C377.912 124.201 377.826 124.919 377.826 125.686ZM403.937 136.811C402.377 136.811 400.978 136.563 399.74 136.068C398.502 135.56 397.449 134.861 396.583 133.969C395.728 133.078 395.072 132.044 394.614 130.868C394.156 129.679 393.927 128.416 393.927 127.079V126.336C393.927 124.814 394.144 123.421 394.577 122.158C395.01 120.895 395.629 119.799 396.434 118.871C397.251 117.942 398.242 117.23 399.405 116.735C400.569 116.228 401.882 115.974 403.342 115.974C404.766 115.974 406.029 116.209 407.131 116.679C408.233 117.15 409.155 117.818 409.898 118.685C410.653 119.552 411.223 120.592 411.607 121.805C411.99 123.006 412.182 124.343 412.182 125.816V128.045H396.211V124.479H406.927V124.071C406.927 123.328 406.791 122.666 406.518 122.084C406.258 121.489 405.862 121.019 405.33 120.672C404.797 120.326 404.116 120.152 403.287 120.152C402.581 120.152 401.974 120.307 401.467 120.617C400.959 120.926 400.544 121.359 400.223 121.917C399.913 122.474 399.678 123.13 399.517 123.885C399.368 124.628 399.294 125.445 399.294 126.336V127.079C399.294 127.884 399.405 128.627 399.628 129.308C399.863 129.989 400.192 130.577 400.613 131.072C401.046 131.567 401.566 131.951 402.172 132.224C402.792 132.496 403.491 132.632 404.271 132.632C405.237 132.632 406.134 132.446 406.964 132.075C407.806 131.691 408.53 131.115 409.137 130.348L411.737 133.171C411.316 133.777 410.74 134.359 410.01 134.916C409.291 135.474 408.425 135.932 407.41 136.291C406.394 136.637 405.237 136.811 403.937 136.811Z"
                            fill="#EEEEEE" />
                    </g>
                </g>
            </g>
        </g>
        <g id="Copyright">
            <path id="Vector_21" d="M700 1815.44H0V1850.44H700V1815.44Z" fill="#3AADAA" />
            <path id="Vector_22"
                d="M615 1830.44C623.284 1830.44 630 1823.72 630 1815.44C630 1807.16 623.284 1800.44 615 1800.44C606.716 1800.44 600 1807.16 600 1815.44C600 1823.72 606.716 1830.44 615 1830.44Z"
                fill="black" />
            <path id="Vector_23"
                d="M188 1830.44H72C70.8954 1830.44 70 1831.33 70 1832.44V1834.44C70 1835.54 70.8954 1836.44 72 1836.44H188C189.105 1836.44 190 1835.54 190 1834.44V1832.44C190 1831.33 189.105 1830.44 188 1830.44Z"
                fill="#3AADAA" />
        </g>
        <g id="Group 33">
            <g id="Group 32">
                <ellipse id="Ellipse 12" cx="524.918" cy="1765.42" rx="11.7211" ry="11.7211" fill="#D9D9D9" />
                <ellipse id="Ellipse 13" cx="552.877" cy="1765.42" rx="11.7211" ry="11.7211" fill="#D9D9D9" />
                <ellipse id="Ellipse 14" cx="580.836" cy="1765.42" rx="11.7211" ry="11.7211" fill="#D9D9D9" />
                <ellipse id="Ellipse 15" cx="627.795" cy="1765.42" rx="11.7211" ry="11.7211" fill="#D9D9D9" />
            </g>
            <path id="Feature"
                d="M73.1857 1702.77H74.2777V1699.01H77.2297V1698.12H74.2777V1695.3H77.9137V1694.41H73.1857V1702.77ZM82.0286 1697.01C83.1566 1697.01 84.1166 1697.72 84.1046 1699.01H79.9526C80.0726 1697.72 80.9606 1697.01 82.0286 1697.01ZM85.1006 1700.75H83.9246C83.6846 1701.45 83.0606 1701.96 82.0766 1701.96C80.9606 1701.96 80.0246 1701.23 79.9406 1699.89H85.1966C85.2206 1699.67 85.2326 1699.47 85.2326 1699.23C85.2326 1697.43 83.9846 1696.09 82.0766 1696.09C80.1566 1696.09 78.8246 1697.4 78.8246 1699.47C78.8246 1701.56 80.2046 1702.88 82.0766 1702.88C83.7086 1702.88 84.7646 1701.95 85.1006 1700.75ZM86.266 1699.46C86.266 1701.5 87.622 1702.88 89.374 1702.88C90.586 1702.88 91.438 1702.26 91.834 1701.55V1702.77H92.938V1696.2H91.834V1697.4C91.45 1696.71 90.61 1696.09 89.386 1696.09C87.622 1696.09 86.266 1697.41 86.266 1699.46ZM91.834 1699.47C91.834 1701.02 90.802 1701.92 89.602 1701.92C88.402 1701.92 87.382 1701.01 87.382 1699.46C87.382 1697.91 88.402 1697.04 89.602 1697.04C90.802 1697.04 91.834 1697.95 91.834 1699.47ZM95.0234 1700.97C95.0234 1702.29 95.6834 1702.77 96.8474 1702.77H97.8314V1701.85H97.0274C96.3554 1701.85 96.1154 1701.62 96.1154 1700.97V1697.1H97.8314V1696.2H96.1154V1694.54H95.0234V1696.2H94.1714V1697.1H95.0234V1700.97ZM104.986 1696.2H103.894V1699.81C103.894 1701.23 103.138 1701.92 102.01 1701.92C100.906 1701.92 100.174 1701.24 100.174 1699.91V1696.2H99.0945V1700.05C99.0945 1701.93 100.282 1702.87 101.794 1702.87C102.67 1702.87 103.474 1702.49 103.894 1701.8V1702.77H104.986V1696.2ZM107.922 1699.2C107.922 1697.67 108.714 1697.21 109.758 1697.21H110.046V1696.08C109.002 1696.08 108.294 1696.53 107.922 1697.27V1696.2H106.83V1702.77H107.922V1699.2ZM114.103 1697.01C115.231 1697.01 116.191 1697.72 116.179 1699.01H112.027C112.147 1697.72 113.035 1697.01 114.103 1697.01ZM117.175 1700.75H115.999C115.759 1701.45 115.135 1701.96 114.151 1701.96C113.035 1701.96 112.099 1701.23 112.015 1699.89H117.271C117.295 1699.67 117.307 1699.47 117.307 1699.23C117.307 1697.43 116.059 1696.09 114.151 1696.09C112.231 1696.09 110.899 1697.4 110.899 1699.47C110.899 1701.56 112.279 1702.88 114.151 1702.88C115.783 1702.88 116.839 1701.95 117.175 1700.75Z"
                fill="white" />
            <path id="Feature_2"
                d="M231.529 1702.77H232.621V1699.01H235.573V1698.12H232.621V1695.3H236.257V1694.41H231.529V1702.77ZM240.372 1697.01C241.5 1697.01 242.46 1697.72 242.448 1699.01H238.296C238.416 1697.72 239.304 1697.01 240.372 1697.01ZM243.444 1700.75H242.268C242.028 1701.45 241.404 1701.96 240.42 1701.96C239.304 1701.96 238.368 1701.23 238.284 1699.89H243.54C243.564 1699.67 243.576 1699.47 243.576 1699.23C243.576 1697.43 242.328 1696.09 240.42 1696.09C238.5 1696.09 237.168 1697.4 237.168 1699.47C237.168 1701.56 238.548 1702.88 240.42 1702.88C242.052 1702.88 243.108 1701.95 243.444 1700.75ZM244.61 1699.46C244.61 1701.5 245.966 1702.88 247.718 1702.88C248.93 1702.88 249.782 1702.26 250.178 1701.55V1702.77H251.282V1696.2H250.178V1697.4C249.794 1696.71 248.954 1696.09 247.73 1696.09C245.966 1696.09 244.61 1697.41 244.61 1699.46ZM250.178 1699.47C250.178 1701.02 249.146 1701.92 247.946 1701.92C246.746 1701.92 245.726 1701.01 245.726 1699.46C245.726 1697.91 246.746 1697.04 247.946 1697.04C249.146 1697.04 250.178 1697.95 250.178 1699.47ZM253.367 1700.97C253.367 1702.29 254.027 1702.77 255.191 1702.77H256.175V1701.85H255.371C254.699 1701.85 254.459 1701.62 254.459 1700.97V1697.1H256.175V1696.2H254.459V1694.54H253.367V1696.2H252.515V1697.1H253.367V1700.97ZM263.33 1696.2H262.238V1699.81C262.238 1701.23 261.482 1701.92 260.354 1701.92C259.25 1701.92 258.518 1701.24 258.518 1699.91V1696.2H257.438V1700.05C257.438 1701.93 258.626 1702.87 260.138 1702.87C261.014 1702.87 261.818 1702.49 262.238 1701.8V1702.77H263.33V1696.2ZM266.266 1699.2C266.266 1697.67 267.058 1697.21 268.102 1697.21H268.39V1696.08C267.346 1696.08 266.638 1696.53 266.266 1697.27V1696.2H265.174V1702.77H266.266V1699.2ZM272.447 1697.01C273.575 1697.01 274.535 1697.72 274.523 1699.01H270.371C270.491 1697.72 271.379 1697.01 272.447 1697.01ZM275.519 1700.75H274.343C274.103 1701.45 273.479 1701.96 272.495 1701.96C271.379 1701.96 270.443 1701.23 270.359 1699.89H275.615C275.639 1699.67 275.651 1699.47 275.651 1699.23C275.651 1697.43 274.403 1696.09 272.495 1696.09C270.575 1696.09 269.243 1697.4 269.243 1699.47C269.243 1701.56 270.623 1702.88 272.495 1702.88C274.127 1702.88 275.183 1701.95 275.519 1700.75Z"
                fill="white" />
            <path id="Feature_3"
                d="M514.121 1702.77H515.213V1699.01H518.165V1698.12H515.213V1695.3H518.849V1694.41H514.121V1702.77ZM522.964 1697.01C524.092 1697.01 525.052 1697.72 525.04 1699.01H520.888C521.008 1697.72 521.896 1697.01 522.964 1697.01ZM526.036 1700.75H524.86C524.62 1701.45 523.996 1701.96 523.012 1701.96C521.896 1701.96 520.96 1701.23 520.876 1699.89H526.132C526.156 1699.67 526.168 1699.47 526.168 1699.23C526.168 1697.43 524.92 1696.09 523.012 1696.09C521.092 1696.09 519.76 1697.4 519.76 1699.47C519.76 1701.56 521.14 1702.88 523.012 1702.88C524.644 1702.88 525.7 1701.95 526.036 1700.75ZM527.202 1699.46C527.202 1701.5 528.558 1702.88 530.31 1702.88C531.522 1702.88 532.374 1702.26 532.77 1701.55V1702.77H533.874V1696.2H532.77V1697.4C532.386 1696.71 531.546 1696.09 530.322 1696.09C528.558 1696.09 527.202 1697.41 527.202 1699.46ZM532.77 1699.47C532.77 1701.02 531.738 1701.92 530.538 1701.92C529.338 1701.92 528.318 1701.01 528.318 1699.46C528.318 1697.91 529.338 1697.04 530.538 1697.04C531.738 1697.04 532.77 1697.95 532.77 1699.47ZM535.959 1700.97C535.959 1702.29 536.619 1702.77 537.783 1702.77H538.767V1701.85H537.963C537.291 1701.85 537.051 1701.62 537.051 1700.97V1697.1H538.767V1696.2H537.051V1694.54H535.959V1696.2H535.107V1697.1H535.959V1700.97ZM545.922 1696.2H544.83V1699.81C544.83 1701.23 544.074 1701.92 542.946 1701.92C541.842 1701.92 541.11 1701.24 541.11 1699.91V1696.2H540.03V1700.05C540.03 1701.93 541.218 1702.87 542.73 1702.87C543.606 1702.87 544.41 1702.49 544.83 1701.8V1702.77H545.922V1696.2ZM548.858 1699.2C548.858 1697.67 549.65 1697.21 550.694 1697.21H550.982V1696.08C549.938 1696.08 549.23 1696.53 548.858 1697.27V1696.2H547.766V1702.77H548.858V1699.2ZM555.038 1697.01C556.166 1697.01 557.126 1697.72 557.114 1699.01H552.962C553.082 1697.72 553.97 1697.01 555.038 1697.01ZM558.11 1700.75H556.934C556.694 1701.45 556.07 1701.96 555.086 1701.96C553.97 1701.96 553.034 1701.23 552.95 1699.89H558.206C558.23 1699.67 558.242 1699.47 558.242 1699.23C558.242 1697.43 556.994 1696.09 555.086 1696.09C553.166 1696.09 551.834 1697.4 551.834 1699.47C551.834 1701.56 553.214 1702.88 555.086 1702.88C556.718 1702.88 557.774 1701.95 558.11 1700.75Z"
                fill="white" />
            <g id="Group 29">
                <rect id="Rectangle 37" x="72.2617" y="1713.9" width="42.0159" height="5.98317" rx="1.35619"
                    fill="#3AADAA" />
                <rect id="Rectangle 38" x="72.2617" y="1725.17" width="42.0159" height="5.98317" rx="1.35619"
                    fill="#3AADAA" />
                <rect id="Rectangle 39" x="72.2617" y="1736.43" width="42.0159" height="5.98317" rx="1.35619"
                    fill="#3AADAA" />
                <rect id="Rectangle 40" x="72.2617" y="1747.69" width="42.0159" height="5.98317" rx="1.35619"
                    fill="#3AADAA" />
                <rect id="Rectangle 41" x="72.2617" y="1758.95" width="42.0159" height="5.98317" rx="1.35619"
                    fill="#3AADAA" />
                <rect id="Rectangle 42" x="72.2617" y="1770.22" width="42.0159" height="5.98317" rx="1.35619"
                    fill="#3AADAA" />
            </g>
            <g id="Group 30">
                <rect id="Rectangle 37_2" x="230.605" y="1714.47" width="196.264" height="5.98317" rx="1.35619"
                    fill="#D9D9D9" />
                <rect id="Rectangle 38_2" x="230.605" y="1725.74" width="196.264" height="5.98317" rx="1.35619"
                    fill="#D9D9D9" />
                <rect id="Rectangle 39_2" x="230.605" y="1737" width="196.264" height="5.98317" rx="1.35619"
                    fill="#D9D9D9" />
                <rect id="Rectangle 40_2" x="230.605" y="1748.26" width="196.264" height="5.98317" rx="1.35619"
                    fill="#D9D9D9" />
                <rect id="Rectangle 41_2" x="230.605" y="1759.52" width="196.264" height="5.98317" rx="1.35619"
                    fill="#D9D9D9" />
                <rect id="Rectangle 42_2" x="230.605" y="1770.79" width="196.264" height="5.98317" rx="1.35619"
                    fill="#D9D9D9" />
            </g>
            <g id="Group 31">
                <rect id="Rectangle 37_3" x="513.197" y="1714.47" width="114.541" height="5.98317" rx="1.35619"
                    fill="#D9D9D9" />
                <rect id="Rectangle 38_3" x="513.197" y="1725.74" width="114.541" height="5.98317" rx="1.35619"
                    fill="#D9D9D9" />
                <rect id="Rectangle 39_3" x="513.197" y="1737" width="114.541" height="5.98317" rx="1.35619"
                    fill="#D9D9D9" />
            </g>
        </g>
        <g id="Group 56">
            <g id="Group 55">
                <path id="Feature_4"
                    d="M310.007 337.518H312.009V330.61H317.421V328.982H312.009V323.812H318.675V322.184H310.007V337.518ZM326.218 326.958C328.286 326.958 330.046 328.256 330.024 330.61H322.412C322.632 328.256 324.26 326.958 326.218 326.958ZM331.85 333.8H329.694C329.254 335.098 328.11 336.022 326.306 336.022C324.26 336.022 322.544 334.68 322.39 332.238H332.026C332.07 331.82 332.092 331.468 332.092 331.028C332.092 327.728 329.804 325.264 326.306 325.264C322.786 325.264 320.344 327.662 320.344 331.468C320.344 335.296 322.874 337.716 326.306 337.716C329.298 337.716 331.234 336 331.85 333.8ZM333.987 331.446C333.987 335.186 336.473 337.716 339.685 337.716C341.907 337.716 343.469 336.572 344.195 335.274V337.518H346.219V325.462H344.195V327.662C343.491 326.408 341.951 325.264 339.707 325.264C336.473 325.264 333.987 327.684 333.987 331.446ZM344.195 331.468C344.195 334.306 342.303 335.956 340.103 335.956C337.903 335.956 336.033 334.284 336.033 331.446C336.033 328.608 337.903 327.002 340.103 327.002C342.303 327.002 344.195 328.674 344.195 331.468ZM350.042 334.218C350.042 336.638 351.252 337.518 353.386 337.518H355.19V335.824H353.716C352.484 335.824 352.044 335.406 352.044 334.218V327.112H355.19V325.462H352.044V322.426H350.042V325.462H348.48V327.112H350.042V334.218ZM368.308 325.462H366.306V332.084C366.306 334.68 364.92 335.956 362.852 335.956C360.828 335.956 359.486 334.702 359.486 332.26V325.462H357.506V332.524C357.506 335.978 359.684 337.694 362.456 337.694C364.062 337.694 365.536 336.99 366.306 335.736V337.518H368.308V325.462ZM373.69 330.962C373.69 328.168 375.142 327.31 377.056 327.31H377.584V325.242C375.67 325.242 374.372 326.078 373.69 327.42V325.462H371.688V337.518H373.69V330.962ZM385.021 326.958C387.089 326.958 388.849 328.256 388.827 330.61H381.215C381.435 328.256 383.063 326.958 385.021 326.958ZM390.653 333.8H388.497C388.057 335.098 386.913 336.022 385.109 336.022C383.063 336.022 381.347 334.68 381.193 332.238H390.829C390.873 331.82 390.895 331.468 390.895 331.028C390.895 327.728 388.607 325.264 385.109 325.264C381.589 325.264 379.147 327.662 379.147 331.468C379.147 335.296 381.677 337.716 385.109 337.716C388.101 337.716 390.037 336 390.653 333.8Z"
                    fill="#383E45" />
                <path id="Vector_24"
                    d="M413.078 349.38H287.078C285.974 349.38 285.078 350.276 285.078 351.38V353.38C285.078 354.485 285.974 355.38 287.078 355.38H413.078C414.183 355.38 415.078 354.485 415.078 353.38V351.38C415.078 350.276 414.183 349.38 413.078 349.38Z"
                    fill="#888888" />
                <path id="Vector_25"
                    d="M394.178 363.38H305.978C305.205 363.38 304.578 364.276 304.578 365.38V367.38C304.578 368.485 305.205 369.38 305.978 369.38H394.178C394.951 369.38 395.578 368.485 395.578 367.38V365.38C395.578 364.276 394.951 363.38 394.178 363.38Z"
                    fill="#888888" />
            </g>
            <g id="Group 54">
                <rect id="Rectangle 68" x="114.146" y="394.242" width="471.863" height="275.753" fill="url(#theme_viin_healthy_care_s_picture_default_image_id)" class="img_reference_s_picture_default_image" />
                <circle id="Ellipse 18" cx="632.197" cy="532.119" r="14.1875" fill="#D9D9D9" />
                <circle id="Ellipse 19" cx="67.959" cy="532.119" r="14.1875" fill="#D9D9D9" />
            </g>
        </g>
        <g id="Group 64">
            <path id="Feature_5"
                d="M309.928 725.687H311.93V718.779H317.342V717.151H311.93V711.981H318.596V710.353H309.928V725.687ZM326.14 715.127C328.208 715.127 329.968 716.425 329.946 718.779H322.334C322.554 716.425 324.182 715.127 326.14 715.127ZM331.772 721.969H329.616C329.176 723.267 328.032 724.191 326.228 724.191C324.182 724.191 322.466 722.849 322.312 720.407H331.948C331.992 719.989 332.014 719.637 332.014 719.197C332.014 715.897 329.726 713.433 326.228 713.433C322.708 713.433 320.266 715.831 320.266 719.637C320.266 723.465 322.796 725.885 326.228 725.885C329.22 725.885 331.156 724.169 331.772 721.969ZM333.909 719.615C333.909 723.355 336.395 725.885 339.607 725.885C341.829 725.885 343.391 724.741 344.117 723.443V725.687H346.141V713.631H344.117V715.831C343.413 714.577 341.873 713.433 339.629 713.433C336.395 713.433 333.909 715.853 333.909 719.615ZM344.117 719.637C344.117 722.475 342.225 724.125 340.025 724.125C337.825 724.125 335.955 722.453 335.955 719.615C335.955 716.777 337.825 715.171 340.025 715.171C342.225 715.171 344.117 716.843 344.117 719.637ZM349.964 722.387C349.964 724.807 351.174 725.687 353.308 725.687H355.112V723.993H353.638C352.406 723.993 351.966 723.575 351.966 722.387V715.281H355.112V713.631H351.966V710.595H349.964V713.631H348.402V715.281H349.964V722.387ZM368.23 713.631H366.228V720.253C366.228 722.849 364.842 724.125 362.774 724.125C360.75 724.125 359.408 722.871 359.408 720.429V713.631H357.428V720.693C357.428 724.147 359.606 725.863 362.378 725.863C363.984 725.863 365.458 725.159 366.228 723.905V725.687H368.23V713.631ZM373.612 719.131C373.612 716.337 375.064 715.479 376.978 715.479H377.506V713.411C375.592 713.411 374.294 714.247 373.612 715.589V713.631H371.61V725.687H373.612V719.131ZM384.943 715.127C387.011 715.127 388.771 716.425 388.749 718.779H381.137C381.357 716.425 382.985 715.127 384.943 715.127ZM390.575 721.969H388.419C387.979 723.267 386.835 724.191 385.031 724.191C382.985 724.191 381.269 722.849 381.115 720.407H390.751C390.795 719.989 390.817 719.637 390.817 719.197C390.817 715.897 388.529 713.433 385.031 713.433C381.511 713.433 379.069 715.831 379.069 719.637C379.069 723.465 381.599 725.885 385.031 725.885C388.023 725.885 389.959 724.169 390.575 721.969Z"
                fill="#383E45" />
            <g id="Group 63">
                <g id="Group 57">
                    <circle id="Ellipse 20" cx="82.0558" cy="812.738" r="33.7413" fill="url(#theme_viin_healthy_care_s_product_list_default_image_1_id)" class="img_reference_s_product_list_default_image_1" />
                    <rect id="Rectangle 69" x="44.2148" y="862.596" width="77.7622" height="18.272" rx="6"
                        fill="#888888" />
                </g>
                <g id="Group 58">
                    <circle id="Ellipse 21" cx="188.817" cy="812.738" r="33.7413" fill="url(#theme_viin_healthy_care_s_product_list_default_image_2_id)" class="img_reference_s_product_list_default_image_2" />
                    <rect id="Rectangle 71" x="150.977" y="862.596" width="77.7622" height="18.272" rx="6"
                        fill="#888888" />
                </g>
                <g id="Group 59">
                    <circle id="Ellipse 22" cx="295.579" cy="812.738" r="33.7413" fill="url(#theme_viin_healthy_care_s_product_list_default_image_3_id)" class="img_reference_s_product_list_default_image_3" />
                    <rect id="Rectangle 72" x="257.738" y="862.596" width="77.7622" height="18.272" rx="6"
                        fill="#888888" />
                </g>
                <g id="Group 60">
                    <circle id="Ellipse 23" cx="402.341" cy="812.738" r="33.7413" fill="url(#theme_viin_healthy_care_s_product_list_default_image_4_id)" class="img_reference_s_product_list_default_image_4" />
                    <rect id="Rectangle 73" x="364.5" y="862.596" width="77.7622" height="18.272" rx="6"
                        fill="#888888" />
                </g>
                <g id="Group 61">
                    <circle id="Ellipse 24" cx="509.103" cy="812.738" r="33.7413" fill="url(#theme_viin_healthy_care_s_product_list_default_image_5_id)" class="img_reference_s_product_list_default_image_5" />
                    <rect id="Rectangle 74" x="471.262" y="862.596" width="77.7622" height="18.272" rx="6"
                        fill="#888888" />
                </g>
                <g id="Group 62">
                    <circle id="Ellipse 25" cx="615.864" cy="812.738" r="33.7413" fill="url(#theme_viin_healthy_care_s_product_list_default_image_6_id)" class="img_reference_s_product_list_default_image_6" />
                    <rect id="Rectangle 75" x="578.023" y="862.596" width="77.7622" height="18.272" rx="6"
                        fill="#888888" />
                </g>
            </g>
            <rect id="Rectangle 70" x="260.738" y="737.115" width="178.523" height="5.95898" rx="2.97949"
                fill="#D9D9D9" />
        </g>
        <g id="Group 65">
            <path id="Feature_6"
                d="M309.928 949.026H311.93V942.118H317.342V940.49H311.93V935.32H318.596V933.692H309.928V949.026ZM326.14 938.466C328.208 938.466 329.968 939.764 329.946 942.118H322.334C322.554 939.764 324.182 938.466 326.14 938.466ZM331.772 945.308H329.616C329.176 946.606 328.032 947.53 326.228 947.53C324.182 947.53 322.466 946.188 322.312 943.746H331.948C331.992 943.328 332.014 942.976 332.014 942.536C332.014 939.236 329.726 936.772 326.228 936.772C322.708 936.772 320.266 939.17 320.266 942.976C320.266 946.804 322.796 949.224 326.228 949.224C329.22 949.224 331.156 947.508 331.772 945.308ZM333.909 942.954C333.909 946.694 336.395 949.224 339.607 949.224C341.829 949.224 343.391 948.08 344.117 946.782V949.026H346.141V936.97H344.117V939.17C343.413 937.916 341.873 936.772 339.629 936.772C336.395 936.772 333.909 939.192 333.909 942.954ZM344.117 942.976C344.117 945.814 342.225 947.464 340.025 947.464C337.825 947.464 335.955 945.792 335.955 942.954C335.955 940.116 337.825 938.51 340.025 938.51C342.225 938.51 344.117 940.182 344.117 942.976ZM349.964 945.726C349.964 948.146 351.174 949.026 353.308 949.026H355.112V947.332H353.638C352.406 947.332 351.966 946.914 351.966 945.726V938.62H355.112V936.97H351.966V933.934H349.964V936.97H348.402V938.62H349.964V945.726ZM368.23 936.97H366.228V943.592C366.228 946.188 364.842 947.464 362.774 947.464C360.75 947.464 359.408 946.21 359.408 943.768V936.97H357.428V944.032C357.428 947.486 359.606 949.202 362.378 949.202C363.984 949.202 365.458 948.498 366.228 947.244V949.026H368.23V936.97ZM373.612 942.47C373.612 939.676 375.064 938.818 376.978 938.818H377.506V936.75C375.592 936.75 374.294 937.586 373.612 938.928V936.97H371.61V949.026H373.612V942.47ZM384.943 938.466C387.011 938.466 388.771 939.764 388.749 942.118H381.137C381.357 939.764 382.985 938.466 384.943 938.466ZM390.575 945.308H388.419C387.979 946.606 386.835 947.53 385.031 947.53C382.985 947.53 381.269 946.188 381.115 943.746H390.751C390.795 943.328 390.817 942.976 390.817 942.536C390.817 939.236 388.529 936.772 385.031 936.772C381.511 936.772 379.069 939.17 379.069 942.976C379.069 946.804 381.599 949.224 385.031 949.224C388.023 949.224 389.959 947.508 390.575 945.308Z"
                fill="#383E45" />
            <rect id="Rectangle 70_2" x="260.738" y="960.454" width="178.523" height="5.96" rx="2.98" fill="#D9D9D9" />
        </g>
        <g id="Group 68">
            <path id="Feature_7"
                d="M309.928 1363.5H311.93V1356.59H317.342V1354.96H311.93V1349.79H318.596V1348.17H309.928V1363.5ZM326.14 1352.94C328.208 1352.94 329.968 1354.24 329.946 1356.59H322.334C322.554 1354.24 324.182 1352.94 326.14 1352.94ZM331.772 1359.78H329.616C329.176 1361.08 328.032 1362 326.228 1362C324.182 1362 322.466 1360.66 322.312 1358.22H331.948C331.992 1357.8 332.014 1357.45 332.014 1357.01C332.014 1353.71 329.726 1351.25 326.228 1351.25C322.708 1351.25 320.266 1353.64 320.266 1357.45C320.266 1361.28 322.796 1363.7 326.228 1363.7C329.22 1363.7 331.156 1361.98 331.772 1359.78ZM333.909 1357.43C333.909 1361.17 336.395 1363.7 339.607 1363.7C341.829 1363.7 343.391 1362.55 344.117 1361.26V1363.5H346.141V1351.44H344.117V1353.64C343.413 1352.39 341.873 1351.25 339.629 1351.25C336.395 1351.25 333.909 1353.67 333.909 1357.43ZM344.117 1357.45C344.117 1360.29 342.225 1361.94 340.025 1361.94C337.825 1361.94 335.955 1360.27 335.955 1357.43C335.955 1354.59 337.825 1352.98 340.025 1352.98C342.225 1352.98 344.117 1354.66 344.117 1357.45ZM349.964 1360.2C349.964 1362.62 351.174 1363.5 353.308 1363.5H355.112V1361.81H353.638C352.406 1361.81 351.966 1361.39 351.966 1360.2V1353.09H355.112V1351.44H351.966V1348.41H349.964V1351.44H348.402V1353.09H349.964V1360.2ZM368.23 1351.44H366.228V1358.07C366.228 1360.66 364.842 1361.94 362.774 1361.94C360.75 1361.94 359.408 1360.68 359.408 1358.24V1351.44H357.428V1358.51C357.428 1361.96 359.606 1363.68 362.378 1363.68C363.984 1363.68 365.458 1362.97 366.228 1361.72V1363.5H368.23V1351.44ZM373.612 1356.94C373.612 1354.15 375.064 1353.29 376.978 1353.29H377.506V1351.22C375.592 1351.22 374.294 1352.06 373.612 1353.4V1351.44H371.61V1363.5H373.612V1356.94ZM384.943 1352.94C387.011 1352.94 388.771 1354.24 388.749 1356.59H381.137C381.357 1354.24 382.985 1352.94 384.943 1352.94ZM390.575 1359.78H388.419C387.979 1361.08 386.835 1362 385.031 1362C382.985 1362 381.269 1360.66 381.115 1358.22H390.751C390.795 1357.8 390.817 1357.45 390.817 1357.01C390.817 1353.71 388.529 1351.25 385.031 1351.25C381.511 1351.25 379.069 1353.64 379.069 1357.45C379.069 1361.28 381.599 1363.7 385.031 1363.7C388.023 1363.7 389.959 1361.98 390.575 1359.78Z"
                fill="#383E45" />
            <rect id="Rectangle 70_3" x="260.738" y="1374.93" width="178.523" height="5.96" rx="2.98" fill="#D9D9D9" />
        </g>
        <g id="Group 118">
            <g id="Group 66">
                <rect id="Rectangle 76" x="44.2148" y="1002.34" width="184.523" height="142.655" fill="url(#theme_viin_healthy_care_library_image_10_id)" class="img_reference_library_image_10" />
                <rect id="Rectangle 77" x="259.738" y="1002.34" width="184.523" height="142.655" fill="url(#theme_viin_healthy_care_library_image_08_id)" class="img_reference_library_image_08" />
                <rect id="Rectangle 78" x="475.262" y="1002.34" width="184.523" height="142.655" fill="url(#theme_viin_healthy_care_library_image_03_id)" class="img_reference_library_image_03" />
            </g>
            <g id="Group 67">
                <rect id="Rectangle 76_2" x="44.2148" y="1165.69" width="184.523" height="142.655" fill="url(#theme_viin_healthy_care_library_image_05_id)" class="img_reference_library_image_05" />
                <rect id="Rectangle 77_2" x="259.738" y="1165.69" width="184.523" height="142.655" fill="url(#theme_viin_healthy_care_library_image_13_id)" class="img_reference_library_image_13" />
                <rect id="Rectangle 78_2" x="475.262" y="1165.69" width="184.523" height="142.655" fill="url(#theme_viin_healthy_care_library_image_02_id)" class="img_reference_library_image_02" />
            </g>
        </g>
        <g id="Group 119">
            <rect id="Rectangle 79" y="1400.3" width="700" height="179.907" fill="url(#theme_viin_healthy_care_s_quotes_carousel_demo_image_1_id)" class="img_reference_s_quotes_carousel_demo_image_1" />
            <g id="Group 186">
                <rect id="Rectangle 80" x="161.754" y="1429.61" width="263.918" height="121.286" fill="white" />
                <rect id="Rectangle 81" x="136.477" y="1429.65" width="25.2773" height="20.1284" fill="#3AADAA" />
            </g>
        </g>
        <g id="Group 120">
            <rect id="Rectangle 82" y="1580.2" width="700" height="81.2365" fill="#7B7B7B" />
            <g id="Group 69">
                <g id="Group 50">
                    <path id="Vector_26"
                        d="M207.644 1634.53H121.873C121.121 1634.53 120.512 1635.66 120.512 1637.05V1639.56C120.512 1640.95 121.121 1642.08 121.873 1642.08H207.644C208.396 1642.08 209.006 1640.95 209.006 1639.56V1637.05C209.006 1635.66 208.396 1634.53 207.644 1634.53Z"
                        fill="white" />
                    <path id="Feature_8"
                        d="M131.974 1620.92H133.612V1615.27H138.04V1613.94H133.612V1609.71H139.066V1608.37H131.974V1620.92ZM145.238 1612.28C146.93 1612.28 148.37 1613.34 148.352 1615.27H142.124C142.304 1613.34 143.636 1612.28 145.238 1612.28ZM149.846 1617.88H148.082C147.722 1618.94 146.786 1619.7 145.31 1619.7C143.636 1619.7 142.232 1618.6 142.106 1616.6H149.99C150.026 1616.26 150.044 1615.97 150.044 1615.61C150.044 1612.91 148.172 1610.89 145.31 1610.89C142.43 1610.89 140.432 1612.86 140.432 1615.97C140.432 1619.1 142.502 1621.08 145.31 1621.08C147.758 1621.08 149.342 1619.68 149.846 1617.88ZM151.594 1615.95C151.594 1619.01 153.628 1621.08 156.256 1621.08C158.074 1621.08 159.352 1620.15 159.946 1619.08V1620.92H161.602V1611.06H159.946V1612.86C159.37 1611.83 158.11 1610.89 156.274 1610.89C153.628 1610.89 151.594 1612.87 151.594 1615.95ZM159.946 1615.97C159.946 1618.29 158.398 1619.64 156.598 1619.64C154.798 1619.64 153.268 1618.27 153.268 1615.95C153.268 1613.63 154.798 1612.32 156.598 1612.32C158.398 1612.32 159.946 1613.68 159.946 1615.97ZM164.73 1618.22C164.73 1620.2 165.72 1620.92 167.466 1620.92H168.942V1619.53H167.736C166.728 1619.53 166.368 1619.19 166.368 1618.22V1612.41H168.942V1611.06H166.368V1608.57H164.73V1611.06H163.452V1612.41H164.73V1618.22ZM179.675 1611.06H178.037V1616.47C178.037 1618.6 176.903 1619.64 175.211 1619.64C173.555 1619.64 172.457 1618.62 172.457 1616.62V1611.06H170.837V1616.83C170.837 1619.66 172.619 1621.06 174.887 1621.06C176.201 1621.06 177.407 1620.49 178.037 1619.46V1620.92H179.675V1611.06ZM184.079 1615.56C184.079 1613.27 185.267 1612.57 186.833 1612.57H187.265V1610.88C185.699 1610.88 184.637 1611.56 184.079 1612.66V1611.06H182.441V1620.92H184.079V1615.56ZM193.35 1612.28C195.042 1612.28 196.482 1613.34 196.464 1615.27H190.236C190.416 1613.34 191.748 1612.28 193.35 1612.28ZM197.958 1617.88H196.194C195.834 1618.94 194.898 1619.7 193.422 1619.7C191.748 1619.7 190.344 1618.6 190.218 1616.6H198.102C198.138 1616.26 198.156 1615.97 198.156 1615.61C198.156 1612.91 196.284 1610.89 193.422 1610.89C190.542 1610.89 188.544 1612.86 188.544 1615.97C188.544 1619.1 190.614 1621.08 193.422 1621.08C195.87 1621.08 197.454 1619.68 197.958 1617.88Z"
                        fill="white" />
                </g>
                <g id="Group 51">
                    <path id="Vector_27"
                        d="M331.139 1634.53H245.367C244.615 1634.53 244.006 1635.66 244.006 1637.05V1639.56C244.006 1640.95 244.615 1642.08 245.367 1642.08H331.139C331.89 1642.08 332.5 1640.95 332.5 1639.56V1637.05C332.5 1635.66 331.89 1634.53 331.139 1634.53Z"
                        fill="white" />
                    <path id="Feature_9"
                        d="M255.466 1620.92H257.104V1615.27H261.532V1613.94H257.104V1609.71H262.558V1608.37H255.466V1620.92ZM268.73 1612.28C270.422 1612.28 271.862 1613.34 271.844 1615.27H265.616C265.796 1613.34 267.128 1612.28 268.73 1612.28ZM273.338 1617.88H271.574C271.214 1618.94 270.278 1619.7 268.802 1619.7C267.128 1619.7 265.724 1618.6 265.598 1616.6H273.482C273.518 1616.26 273.536 1615.97 273.536 1615.61C273.536 1612.91 271.664 1610.89 268.802 1610.89C265.922 1610.89 263.924 1612.86 263.924 1615.97C263.924 1619.1 265.994 1621.08 268.802 1621.08C271.25 1621.08 272.834 1619.68 273.338 1617.88ZM275.087 1615.95C275.087 1619.01 277.121 1621.08 279.749 1621.08C281.567 1621.08 282.845 1620.15 283.439 1619.08V1620.92H285.095V1611.06H283.439V1612.86C282.863 1611.83 281.603 1610.89 279.767 1610.89C277.121 1610.89 275.087 1612.87 275.087 1615.95ZM283.439 1615.97C283.439 1618.29 281.891 1619.64 280.091 1619.64C278.291 1619.64 276.761 1618.27 276.761 1615.95C276.761 1613.63 278.291 1612.32 280.091 1612.32C281.891 1612.32 283.439 1613.68 283.439 1615.97ZM288.223 1618.22C288.223 1620.2 289.213 1620.92 290.959 1620.92H292.435V1619.53H291.229C290.221 1619.53 289.861 1619.19 289.861 1618.22V1612.41H292.435V1611.06H289.861V1608.57H288.223V1611.06H286.945V1612.41H288.223V1618.22ZM303.167 1611.06H301.529V1616.47C301.529 1618.6 300.395 1619.64 298.703 1619.64C297.047 1619.64 295.949 1618.62 295.949 1616.62V1611.06H294.329V1616.83C294.329 1619.66 296.111 1621.06 298.379 1621.06C299.693 1621.06 300.899 1620.49 301.529 1619.46V1620.92H303.167V1611.06ZM307.571 1615.56C307.571 1613.27 308.759 1612.57 310.325 1612.57H310.757V1610.88C309.191 1610.88 308.129 1611.56 307.571 1612.66V1611.06H305.933V1620.92H307.571V1615.56ZM316.842 1612.28C318.534 1612.28 319.974 1613.34 319.956 1615.27H313.728C313.908 1613.34 315.24 1612.28 316.842 1612.28ZM321.45 1617.88H319.686C319.326 1618.94 318.39 1619.7 316.914 1619.7C315.24 1619.7 313.836 1618.6 313.71 1616.6H321.594C321.63 1616.26 321.648 1615.97 321.648 1615.61C321.648 1612.91 319.776 1610.89 316.914 1610.89C314.034 1610.89 312.036 1612.86 312.036 1615.97C312.036 1619.1 314.106 1621.08 316.914 1621.08C319.362 1621.08 320.946 1619.68 321.45 1617.88Z"
                        fill="white" />
                </g>
                <g id="Group 52">
                    <path id="Vector_28"
                        d="M454.633 1634.53H368.861C368.11 1634.53 367.5 1635.66 367.5 1637.05V1639.56C367.5 1640.95 368.11 1642.08 368.861 1642.08H454.633C455.385 1642.08 455.994 1640.95 455.994 1639.56V1637.05C455.994 1635.66 455.385 1634.53 454.633 1634.53Z"
                        fill="white" />
                    <path id="Feature_10"
                        d="M378.962 1620.92H380.6V1615.27H385.028V1613.94H380.6V1609.71H386.054V1608.37H378.962V1620.92ZM392.226 1612.28C393.918 1612.28 395.358 1613.34 395.34 1615.27H389.112C389.292 1613.34 390.624 1612.28 392.226 1612.28ZM396.834 1617.88H395.07C394.71 1618.94 393.774 1619.7 392.298 1619.7C390.624 1619.7 389.22 1618.6 389.094 1616.6H396.978C397.014 1616.26 397.032 1615.97 397.032 1615.61C397.032 1612.91 395.16 1610.89 392.298 1610.89C389.418 1610.89 387.42 1612.86 387.42 1615.97C387.42 1619.1 389.49 1621.08 392.298 1621.08C394.746 1621.08 396.33 1619.68 396.834 1617.88ZM398.583 1615.95C398.583 1619.01 400.617 1621.08 403.245 1621.08C405.063 1621.08 406.341 1620.15 406.935 1619.08V1620.92H408.591V1611.06H406.935V1612.86C406.359 1611.83 405.099 1610.89 403.263 1610.89C400.617 1610.89 398.583 1612.87 398.583 1615.95ZM406.935 1615.97C406.935 1618.29 405.387 1619.64 403.587 1619.64C401.787 1619.64 400.257 1618.27 400.257 1615.95C400.257 1613.63 401.787 1612.32 403.587 1612.32C405.387 1612.32 406.935 1613.68 406.935 1615.97ZM411.719 1618.22C411.719 1620.2 412.709 1620.92 414.455 1620.92H415.931V1619.53H414.725C413.717 1619.53 413.357 1619.19 413.357 1618.22V1612.41H415.931V1611.06H413.357V1608.57H411.719V1611.06H410.441V1612.41H411.719V1618.22ZM426.663 1611.06H425.025V1616.47C425.025 1618.6 423.891 1619.64 422.199 1619.64C420.543 1619.64 419.445 1618.62 419.445 1616.62V1611.06H417.825V1616.83C417.825 1619.66 419.607 1621.06 421.875 1621.06C423.189 1621.06 424.395 1620.49 425.025 1619.46V1620.92H426.663V1611.06ZM431.067 1615.56C431.067 1613.27 432.255 1612.57 433.821 1612.57H434.253V1610.88C432.687 1610.88 431.625 1611.56 431.067 1612.66V1611.06H429.429V1620.92H431.067V1615.56ZM440.338 1612.28C442.03 1612.28 443.47 1613.34 443.452 1615.27H437.224C437.404 1613.34 438.736 1612.28 440.338 1612.28ZM444.946 1617.88H443.182C442.822 1618.94 441.886 1619.7 440.41 1619.7C438.736 1619.7 437.332 1618.6 437.206 1616.6H445.09C445.126 1616.26 445.144 1615.97 445.144 1615.61C445.144 1612.91 443.272 1610.89 440.41 1610.89C437.53 1610.89 435.532 1612.86 435.532 1615.97C435.532 1619.1 437.602 1621.08 440.41 1621.08C442.858 1621.08 444.442 1619.68 444.946 1617.88Z"
                        fill="white" />
                </g>
                <g id="Group 53">
                    <path id="Vector_29"
                        d="M578.127 1634.53H492.356C491.604 1634.53 490.994 1635.66 490.994 1637.05V1639.56C490.994 1640.95 491.604 1642.08 492.356 1642.08H578.127C578.879 1642.08 579.488 1640.95 579.488 1639.56V1637.05C579.488 1635.66 578.879 1634.53 578.127 1634.53Z"
                        fill="white" />
                    <path id="Feature_11"
                        d="M502.454 1620.92H504.092V1615.27H508.52V1613.94H504.092V1609.71H509.546V1608.37H502.454V1620.92ZM515.719 1612.28C517.411 1612.28 518.851 1613.34 518.833 1615.27H512.605C512.785 1613.34 514.117 1612.28 515.719 1612.28ZM520.327 1617.88H518.563C518.203 1618.94 517.267 1619.7 515.791 1619.7C514.117 1619.7 512.713 1618.6 512.587 1616.6H520.471C520.507 1616.26 520.525 1615.97 520.525 1615.61C520.525 1612.91 518.653 1610.89 515.791 1610.89C512.911 1610.89 510.913 1612.86 510.913 1615.97C510.913 1619.1 512.983 1621.08 515.791 1621.08C518.239 1621.08 519.823 1619.68 520.327 1617.88ZM522.075 1615.95C522.075 1619.01 524.109 1621.08 526.737 1621.08C528.555 1621.08 529.833 1620.15 530.427 1619.08V1620.92H532.083V1611.06H530.427V1612.86C529.851 1611.83 528.591 1610.89 526.755 1610.89C524.109 1610.89 522.075 1612.87 522.075 1615.95ZM530.427 1615.97C530.427 1618.29 528.879 1619.64 527.079 1619.64C525.279 1619.64 523.749 1618.27 523.749 1615.95C523.749 1613.63 525.279 1612.32 527.079 1612.32C528.879 1612.32 530.427 1613.68 530.427 1615.97ZM535.211 1618.22C535.211 1620.2 536.201 1620.92 537.947 1620.92H539.423V1619.53H538.217C537.209 1619.53 536.849 1619.19 536.849 1618.22V1612.41H539.423V1611.06H536.849V1608.57H535.211V1611.06H533.933V1612.41H535.211V1618.22ZM550.155 1611.06H548.517V1616.47C548.517 1618.6 547.383 1619.64 545.691 1619.64C544.035 1619.64 542.937 1618.62 542.937 1616.62V1611.06H541.317V1616.83C541.317 1619.66 543.099 1621.06 545.367 1621.06C546.681 1621.06 547.887 1620.49 548.517 1619.46V1620.92H550.155V1611.06ZM554.559 1615.56C554.559 1613.27 555.747 1612.57 557.313 1612.57H557.745V1610.88C556.179 1610.88 555.117 1611.56 554.559 1612.66V1611.06H552.921V1620.92H554.559V1615.56ZM563.83 1612.28C565.522 1612.28 566.962 1613.34 566.944 1615.27H560.716C560.896 1613.34 562.228 1612.28 563.83 1612.28ZM568.438 1617.88H566.674C566.314 1618.94 565.378 1619.7 563.902 1619.7C562.228 1619.7 560.824 1618.6 560.698 1616.6H568.582C568.618 1616.26 568.636 1615.97 568.636 1615.61C568.636 1612.91 566.764 1610.89 563.902 1610.89C561.022 1610.89 559.024 1612.86 559.024 1615.97C559.024 1619.1 561.094 1621.08 563.902 1621.08C566.35 1621.08 567.934 1619.68 568.438 1617.88Z"
                        fill="white" />
                </g>
            </g>
        </g>
        <g id="Group 185">
            <path id="Vector_30"
                d="M637.277 1470.55C648.157 1470.55 656.976 1479.37 656.976 1490.25C656.976 1501.13 648.157 1509.95 637.277 1509.95C626.398 1509.95 617.578 1501.13 617.578 1490.25C617.578 1479.37 626.398 1470.55 637.277 1470.55Z"
                fill="#FFFFFD" />
            <path id="Vector_31"
                d="M62.7225 1470.55C73.6019 1470.55 82.4215 1479.37 82.4215 1490.25C82.4215 1501.13 73.6019 1509.95 62.7225 1509.95C51.843 1509.95 43.0234 1501.13 43.0234 1490.25C43.0234 1479.37 51.843 1470.55 62.7225 1470.55Z"
                fill="#FFFFFD" />
        </g>
    </g>
    <defs>
        <clipPath id="clip0_0_1">
            <rect width="700" height="1850" fill="white" transform="translate(0 0.439453)" />
        </clipPath>
        <pattern width="1" height="1" id="theme_viin_healthy_care_s_carousel_default_image_1_id" patternunits="objectBoundingBox">
            <image width="700" height="310" preserveAspectRatio="xMidYMid slice" href="#s_carousel_default_image_1_url"/>
        </pattern>
        <pattern width="1" height="1" id="theme_viin_healthy_care_s_picture_default_image_id" patternunits="objectBoundingBox">
            <image width="520" height="280" preserveAspectRatio="xMidYMid slice" href="#s_picture_default_image_url"/>
        </pattern>
        <pattern width="1" height="1" id="theme_viin_healthy_care_library_image_10_id" patternunits="objectBoundingBox">
            <image width="210" height="140" preserveAspectRatio="xMidYMid slice" href="#library_image_10_url"/>
        </pattern>
        <pattern width="1" height="1" id="theme_viin_healthy_care_library_image_05_id" patternunits="objectBoundingBox">
            <image width="210" height="140" preserveAspectRatio="xMidYMid slice" href="#library_image_05_url"/>
        </pattern>
        <pattern width="1" height="1" id="theme_viin_healthy_care_library_image_08_id" patternunits="objectBoundingBox">
            <image width="210" height="140" preserveAspectRatio="xMidYMid slice" href="#library_image_08_url"/>
        </pattern>
        <pattern width="1" height="1" id="theme_viin_healthy_care_library_image_13_id" patternunits="objectBoundingBox">
            <image width="210" height="140" preserveAspectRatio="xMidYMid slice" href="#library_image_13_url"/>
        </pattern>
        <pattern width="1" height="1" id="theme_viin_healthy_care_library_image_03_id" patternunits="objectBoundingBox">
            <image width="210" height="140" preserveAspectRatio="xMidYMid slice" href="#library_image_03_url"/>
        </pattern>
        <pattern width="1" height="1" id="theme_viin_healthy_care_library_image_02_id" patternunits="objectBoundingBox">
            <image width="210" height="140" preserveAspectRatio="xMidYMid slice" href="#library_image_02_url"/>
        </pattern>
        <pattern width="1" height="1" id="theme_viin_healthy_care_s_quotes_carousel_demo_image_1_id" patternunits="objectBoundingBox">
            <image width="770" height="190" preserveAspectRatio="xMidYMid slice" href="#s_quotes_carousel_demo_image_1_url"></image>
        </pattern>
        <pattern width="1" height="1" id="theme_viin_healthy_care_s_product_list_default_image_1_id" patternunits="objectBoundingBox">
            <image width="90" height="70" preserveAspectRatio="xMidYMid slice" href="#s_product_list_default_image_1_url"/>
        </pattern>
        <pattern width="1" height="1" id="theme_viin_healthy_care_s_product_list_default_image_2_id" patternunits="objectBoundingBox">
            <image width="90" height="70" preserveAspectRatio="xMidYMid slice" href="#s_product_list_default_image_2_url"/>
        </pattern>
        <pattern width="1" height="1" id="theme_viin_healthy_care_s_product_list_default_image_3_id" patternunits="objectBoundingBox">
            <image width="90" height="70" preserveAspectRatio="xMidYMid slice" href="#s_product_list_default_image_3_url"/>
        </pattern>
        <pattern width="1" height="1" id="theme_viin_healthy_care_s_product_list_default_image_4_id" patternunits="objectBoundingBox">
            <image width="90" height="70" preserveAspectRatio="xMidYMid slice" href="#s_product_list_default_image_4_url"/>
        </pattern>
        <pattern width="1" height="1" id="theme_viin_healthy_care_s_product_list_default_image_5_id" patternunits="objectBoundingBox">
            <image width="90" height="70" preserveAspectRatio="xMidYMid slice" href="#s_product_list_default_image_5_url"/>
        </pattern>
        <pattern width="1" height="1" id="theme_viin_healthy_care_s_product_list_default_image_6_id" patternunits="objectBoundingBox">
            <image width="90" height="70" preserveAspectRatio="xMidYMid slice" href="#s_product_list_default_image_6_url"/>
        </pattern>
    </defs>
</svg>