<svg width="700" height="1851" viewBox="0 0 700 1851" fill="none" xmlns="http://www.w3.org/2000/svg">
    <rect width="700" height="1851" fill="#F5F5F5" />
    <g id="theme_viin_ecommerce_fashion 1" clip-path="url(#clip0_0_1)">
        <g id="Theme_preview">
            <path id="Vector" d="M700 0.439453H0V1850.44H700V0.439453Z" fill="white" />
            <g id="Group">
                <path id="Vector_2" d="M700 0.439453H0V37.4395H700V0.439453Z" fill="#3AADAA" />
                <path id="Vector_3"
                    d="M76.3438 23.4392V21.9182H72.6028V14.7122H70.7578V23.4392H76.3438ZM81.0238 23.5592C81.7938 23.5592 82.4868 23.3832 83.1038 23.0322C83.7228 22.6822 84.2108 22.1722 84.5708 21.5042C84.9308 20.8372 85.1098 20.0272 85.1098 19.0752C85.1098 18.1242 84.9298 17.3142 84.5698 16.6462C84.2108 15.9792 83.7228 15.4702 83.1048 15.1192C82.4868 14.7682 81.7928 14.5922 81.0228 14.5922C80.2478 14.5922 79.5518 14.7682 78.9348 15.1192C78.3188 15.4692 77.8308 15.9792 77.4738 16.6462C77.1158 17.3142 76.9368 18.1242 76.9368 19.0762C76.9368 20.0242 77.1158 20.8322 77.4738 21.5002C77.804 22.1398 78.3112 22.6709 78.9348 23.0302C79.5518 23.3822 80.2478 23.5582 81.0228 23.5582L81.0238 23.5592ZM81.0238 21.9262C80.6105 21.9354 80.2039 21.8212 79.8558 21.5982C79.5228 21.3792 79.2658 21.0582 79.0818 20.6352C78.8988 20.2122 78.8068 19.6922 78.8068 19.0752C78.8068 18.4592 78.8988 17.9392 79.0818 17.5152C79.2648 17.0922 79.5228 16.7712 79.8558 16.5532C80.2035 16.3302 80.6098 16.216 81.0228 16.2252C81.4688 16.2252 81.8578 16.3342 82.1908 16.5532C82.5228 16.7712 82.7808 17.0932 82.9638 17.5162C83.1478 17.9392 83.2388 18.4592 83.2388 19.0762C83.2388 19.6922 83.1478 20.2122 82.9638 20.6352C82.7808 21.0582 82.5238 21.3792 82.1908 21.5982C81.8428 21.8215 81.4361 21.9357 81.0228 21.9262H81.0238ZM90.3008 23.5582C91.0338 23.5582 91.6848 23.4102 92.2528 23.1132C92.8107 22.8261 93.275 22.3854 93.5908 21.8432C93.9148 21.2932 94.0768 20.6352 94.0768 19.8682V18.7682H90.4248V20.1582H92.2968L92.2928 20.2842C92.2758 20.5212 92.2228 20.7362 92.1358 20.9292L92.0628 21.0692C91.9036 21.3435 91.6661 21.5639 91.3808 21.7022C91.0848 21.8522 90.7268 21.9262 90.3098 21.9262C89.8498 21.9262 89.4498 21.8152 89.1118 21.5922C88.7738 21.3692 88.5118 21.0442 88.3278 20.6182C88.1438 20.1922 88.0508 19.6752 88.0508 19.0672C88.0508 18.4592 88.1448 17.9442 88.3318 17.5222C88.5198 17.1002 88.7818 16.7782 89.1188 16.5572C89.4683 16.332 89.8771 16.2164 90.2928 16.2252C90.5308 16.2252 90.7488 16.2552 90.9468 16.3142C91.1438 16.3742 91.3198 16.4602 91.4748 16.5722C91.6298 16.6842 91.7608 16.8202 91.8688 16.9812C91.9768 17.1412 92.0608 17.3252 92.1208 17.5332H93.9958C93.9407 17.1146 93.803 16.7112 93.5908 16.3462C93.3818 15.9871 93.1062 15.6711 92.7788 15.4152C92.4384 15.1488 92.0544 14.9435 91.6438 14.8082C91.1983 14.6614 90.7318 14.5884 90.2628 14.5922C89.7125 14.5872 89.1665 14.6902 88.6558 14.8952C88.1651 15.0943 87.7221 15.3949 87.3558 15.7772C86.9718 16.1829 86.6765 16.6641 86.4888 17.1902C86.2828 17.7452 86.1798 18.3762 86.1798 19.0842C86.1798 20.0042 86.3528 20.7992 86.6978 21.4682C87.0203 22.113 87.5229 22.6504 88.1448 23.0152C88.7648 23.3772 89.4828 23.5582 90.3008 23.5582ZM99.2588 23.5582C100.029 23.5582 100.722 23.3832 101.34 23.0322C101.958 22.6822 102.447 22.1722 102.806 21.5042C103.166 20.8372 103.346 20.0272 103.346 19.0752C103.346 18.1242 103.166 17.3142 102.806 16.6462C102.446 15.9792 101.958 15.4702 101.34 15.1192C100.722 14.7682 100.029 14.5922 99.2588 14.5922C98.4828 14.5922 97.7868 14.7682 97.1708 15.1192C96.5538 15.4692 96.0668 15.9792 95.7088 16.6462C95.3508 17.3142 95.1718 18.1242 95.1718 19.0762C95.1718 20.0242 95.3508 20.8322 95.7088 21.5002C96.0668 22.1682 96.5538 22.6782 97.1708 23.0302C97.7868 23.3822 98.4828 23.5582 99.2588 23.5582ZM99.2588 21.9262C98.8128 21.9262 98.4228 21.8162 98.0908 21.5982C97.7588 21.3792 97.5008 21.0582 97.3178 20.6352C97.1338 20.2122 97.0428 19.6922 97.0428 19.0752C97.0428 18.4592 97.1338 17.9392 97.3178 17.5152C97.5008 17.0922 97.7578 16.7712 98.0908 16.5532C98.4388 16.33 98.8455 16.2158 99.2588 16.2252C99.7048 16.2252 100.094 16.3342 100.426 16.5532C100.759 16.7712 101.016 17.0932 101.2 17.5162C101.383 17.9392 101.475 18.4592 101.475 19.0762C101.475 19.6922 101.383 20.2122 101.2 20.6352C101.016 21.0582 100.759 21.3792 100.426 21.5982C100.078 21.8213 99.6718 21.9355 99.2588 21.9262Z"
                    fill="black" />
                <g id="Group_2" opacity="0.6">
                    <path id="Vector_4" d="M282 15.4392H245V22.4392H282V15.4392Z" fill="black" />
                    <path id="Vector_5" d="M340 15.4392H303V22.4392H340V15.4392Z" fill="black" />
                    <path id="Vector_6" d="M398 15.4392H361V22.4392H398V15.4392Z" fill="black" />
                    <path id="Vector_7" d="M456 15.4392H419V22.4392H456V15.4392Z" fill="black" />
                </g>
                <path id="Vector_8" d="M630 15.4392H593V22.4392H630V15.4392Z" fill="black" />
            </g>
            <g id="Group_3">
                <path id="Vector_9" d="M700 1661.44H0V1850.44H700V1661.44Z" fill="black" />
                <g id="Group_4">
                    <g id="Group_5">
                        <g id="Group_6">
                            <path id="Vector_10"
                                d="M489.998 1798.13C494.14 1798.13 497.498 1792.46 497.498 1785.47C497.498 1778.48 494.14 1772.81 489.998 1772.81C485.856 1772.81 482.498 1778.48 482.498 1785.47C482.498 1792.46 485.856 1798.13 489.998 1798.13Z"
                                fill="black" />
                            <path id="Vector_11"
                                d="M517.998 1798.13C522.14 1798.13 525.498 1792.46 525.498 1785.47C525.498 1778.48 522.14 1772.81 517.998 1772.81C513.856 1772.81 510.498 1778.48 510.498 1785.47C510.498 1792.46 513.856 1798.13 517.998 1798.13Z"
                                fill="black" />
                            <path id="Vector_12"
                                d="M545.998 1798.13C550.14 1798.13 553.498 1792.46 553.498 1785.47C553.498 1778.48 550.14 1772.81 545.998 1772.81C541.856 1772.81 538.498 1778.48 538.498 1785.47C538.498 1792.46 541.856 1798.13 545.998 1798.13Z"
                                fill="black" />
                        </g>
                        <g id="Group_7">
                            <path id="Vector_13" d="M303 1779.56H210V1782.94H303V1779.56Z" fill="black" />
                            <path id="Vector_14" d="M288 1788H210V1791.38H288V1788Z" fill="black" />
                        </g>
                        <g id="Group_8">
                            <path id="Vector_15" d="M117 1779.56H70V1782.94H117V1779.56Z" fill="black" />
                            <path id="Vector_16" d="M109 1788H70V1791.38H109V1788Z" fill="black" />
                        </g>
                    </g>
                    <g id="Group_9">
                        <g id="Group_10" opacity="0.6">
                            <g id="Group_11">
                                <path id="Vector_17" d="M393.998 1713.75H209.998V1717.13H393.998V1713.75Z"
                                    fill="black" />
                                <path id="Vector_18" d="M378.998 1722.19H209.998V1725.56H378.998V1722.19Z"
                                    fill="black" />
                                <path id="Vector_19" d="M288.998 1730.63H209.998V1734H288.998V1730.63Z" fill="black" />
                                <path id="Vector_20" d="M300.998 1739.06H209.998V1742.44H300.998V1739.06Z"
                                    fill="black" />
                            </g>
                        </g>
                        <path id="Entry Title"
                            d="M71.4493 1726.69V1713.59H80.2782V1715.87H74.2196V1718.99H79.824V1721.28H74.2196V1724.41H80.3038V1726.69H71.4493ZM85.1549 1721.01V1726.69H82.4295V1716.86H85.0269V1718.6H85.1421C85.3596 1718.02 85.7243 1717.57 86.2361 1717.24C86.7479 1716.9 87.3685 1716.73 88.0978 1716.73C88.7803 1716.73 89.3753 1716.88 89.8828 1717.18C90.3904 1717.48 90.7849 1717.91 91.0664 1718.46C91.3479 1719.01 91.4886 1719.67 91.4886 1720.43V1726.69H88.7632V1720.92C88.7675 1720.32 88.6139 1719.85 88.3026 1719.51C87.9912 1719.17 87.5626 1719 87.0166 1719C86.6498 1719 86.3257 1719.08 86.0442 1719.24C85.7669 1719.39 85.5494 1719.62 85.3916 1719.93C85.2381 1720.23 85.1592 1720.59 85.1549 1721.01ZM98.8636 1716.86V1718.91H92.9457V1716.86H98.8636ZM94.2893 1714.51H97.0147V1723.67C97.0147 1723.92 97.0531 1724.12 97.1299 1724.26C97.2066 1724.39 97.3133 1724.49 97.4497 1724.55C97.5905 1724.6 97.7526 1724.63 97.936 1724.63C98.0639 1724.63 98.1919 1724.62 98.3198 1724.6C98.4478 1724.57 98.5459 1724.55 98.6141 1724.54L99.0428 1726.57C98.9063 1726.61 98.7144 1726.66 98.467 1726.72C98.2196 1726.77 97.9189 1726.81 97.5649 1726.82C96.9081 1726.85 96.3323 1726.76 95.8375 1726.56C95.347 1726.36 94.9653 1726.05 94.6923 1725.63C94.4193 1725.21 94.285 1724.67 94.2893 1724.03V1714.51ZM100.639 1726.69V1716.86H103.281V1718.58H103.384C103.563 1717.97 103.863 1717.51 104.286 1717.2C104.708 1716.88 105.194 1716.72 105.744 1716.72C105.881 1716.72 106.028 1716.73 106.186 1716.75C106.344 1716.76 106.482 1716.79 106.602 1716.82V1719.24C106.474 1719.2 106.297 1719.16 106.071 1719.13C105.845 1719.1 105.638 1719.09 105.45 1719.09C105.049 1719.09 104.691 1719.18 104.375 1719.35C104.064 1719.52 103.817 1719.76 103.633 1720.07C103.454 1720.37 103.364 1720.73 103.364 1721.13V1726.69H100.639ZM109.992 1730.37C109.647 1730.37 109.323 1730.35 109.02 1730.29C108.721 1730.24 108.474 1730.17 108.278 1730.09L108.892 1728.06C109.212 1728.16 109.5 1728.21 109.756 1728.22C110.016 1728.23 110.24 1728.17 110.428 1728.04C110.619 1727.91 110.775 1727.69 110.895 1727.39L111.055 1726.97L107.529 1716.86H110.396L112.43 1724.08H112.532L114.586 1716.86H117.471L113.652 1727.75C113.469 1728.28 113.219 1728.74 112.903 1729.13C112.592 1729.53 112.198 1729.84 111.72 1730.05C111.242 1730.27 110.666 1730.37 109.992 1730.37ZM122.588 1715.87V1713.59H133.349V1715.87H129.338V1726.69H126.599V1715.87H122.588ZM135.07 1726.69V1716.86H137.795V1726.69H135.07ZM136.439 1715.6C136.034 1715.6 135.686 1715.46 135.396 1715.19C135.111 1714.92 134.968 1714.59 134.968 1714.21C134.968 1713.84 135.111 1713.52 135.396 1713.25C135.686 1712.97 136.034 1712.84 136.439 1712.84C136.844 1712.84 137.19 1712.97 137.476 1713.25C137.766 1713.52 137.911 1713.84 137.911 1714.21C137.911 1714.59 137.766 1714.92 137.476 1715.19C137.19 1715.46 136.844 1715.6 136.439 1715.6ZM145.206 1716.86V1718.91H139.288V1716.86H145.206ZM140.631 1714.51H143.357V1723.67C143.357 1723.92 143.395 1724.12 143.472 1724.26C143.549 1724.39 143.655 1724.49 143.792 1724.55C143.932 1724.6 144.095 1724.63 144.278 1724.63C144.406 1724.63 144.534 1724.62 144.662 1724.6C144.79 1724.57 144.888 1724.55 144.956 1724.54L145.385 1726.57C145.248 1726.61 145.056 1726.66 144.809 1726.72C144.562 1726.77 144.261 1726.81 143.907 1726.82C143.25 1726.85 142.674 1726.76 142.179 1726.56C141.689 1726.36 141.307 1726.05 141.034 1725.63C140.761 1725.21 140.627 1724.67 140.631 1724.03V1714.51ZM149.918 1713.59V1726.69H147.192V1713.59H149.918ZM156.579 1726.88C155.568 1726.88 154.698 1726.68 153.969 1726.27C153.244 1725.85 152.685 1725.27 152.293 1724.51C151.9 1723.76 151.704 1722.86 151.704 1721.82C151.704 1720.81 151.9 1719.92 152.293 1719.16C152.685 1718.4 153.237 1717.8 153.95 1717.37C154.666 1716.95 155.507 1716.73 156.47 1716.73C157.119 1716.73 157.722 1716.84 158.281 1717.05C158.844 1717.25 159.334 1717.56 159.752 1717.98C160.175 1718.39 160.503 1718.91 160.738 1719.54C160.972 1720.16 161.09 1720.89 161.09 1721.72V1722.47H152.792V1720.78H158.524C158.524 1720.39 158.439 1720.04 158.268 1719.74C158.098 1719.44 157.861 1719.2 157.558 1719.03C157.259 1718.86 156.912 1718.77 156.515 1718.77C156.101 1718.77 155.735 1718.87 155.415 1719.06C155.099 1719.24 154.852 1719.5 154.673 1719.82C154.494 1720.13 154.402 1720.49 154.398 1720.87V1722.48C154.398 1722.97 154.487 1723.39 154.666 1723.74C154.85 1724.09 155.108 1724.37 155.44 1724.56C155.773 1724.75 156.168 1724.85 156.624 1724.85C156.927 1724.85 157.204 1724.8 157.456 1724.72C157.707 1724.63 157.923 1724.51 158.102 1724.34C158.281 1724.16 158.417 1723.96 158.511 1723.71L161.032 1723.87C160.904 1724.48 160.642 1725.01 160.245 1725.46C159.853 1725.91 159.345 1726.26 158.722 1726.51C158.104 1726.76 157.39 1726.88 156.579 1726.88Z"
                            fill="black" />
                    </g>
                </g>
            </g>
            <g id="Group 1">
                <g id="Group 2">
                    <rect id="Rectangle 1" y="37.4395" width="700" height="265" fill="url(#theme_viin_ecommerce_fashion_s_carousel_default_image_1_id)" class="img_reference_s_carousel_default_image_1" />
                    <g id="Group_12">
                        <g id="Group_13">
                            <rect id="Rectangle 2" x="310" y="195.439" width="86" height="31" rx="6.00534"
                                fill="#EEEEEE" />
                            <path id="Button"
                                d="M338.349 211.446H336.185L336.173 210.537H338.138C338.462 210.537 338.746 210.482 338.988 210.372C339.23 210.263 339.418 210.107 339.551 209.903C339.688 209.696 339.756 209.45 339.756 209.164C339.756 208.852 339.696 208.597 339.575 208.402C339.457 208.203 339.275 208.058 339.029 207.968C338.787 207.874 338.478 207.827 338.103 207.827H336.437V215.439H335.305V206.901H338.103C338.54 206.901 338.931 206.946 339.275 207.035C339.619 207.122 339.911 207.258 340.149 207.446C340.392 207.63 340.575 207.864 340.701 208.15C340.826 208.435 340.888 208.777 340.888 209.176C340.888 209.528 340.798 209.847 340.618 210.132C340.439 210.414 340.188 210.644 339.868 210.824C339.551 211.004 339.18 211.119 338.753 211.17L338.349 211.446ZM338.296 215.439H335.739L336.378 214.519H338.296C338.656 214.519 338.961 214.456 339.211 214.331C339.465 214.206 339.659 214.03 339.792 213.803C339.924 213.573 339.991 213.301 339.991 212.988C339.991 212.671 339.934 212.398 339.821 212.167C339.707 211.936 339.53 211.758 339.287 211.633C339.045 211.508 338.732 211.446 338.349 211.446H336.736L336.748 210.537H338.953L339.193 210.865C339.604 210.9 339.952 211.018 340.237 211.217C340.523 211.412 340.74 211.663 340.888 211.968C341.041 212.273 341.117 212.609 341.117 212.976C341.117 213.508 341 213.958 340.765 214.325C340.534 214.689 340.208 214.966 339.786 215.158C339.363 215.346 338.867 215.439 338.296 215.439ZM346.506 213.973V209.094H347.597V215.439H346.559L346.506 213.973ZM346.712 212.636L347.163 212.624C347.163 213.047 347.118 213.438 347.028 213.797C346.942 214.153 346.802 214.462 346.606 214.724C346.411 214.986 346.155 215.191 345.838 215.34C345.521 215.484 345.136 215.557 344.683 215.557C344.374 215.557 344.09 215.512 343.832 215.422C343.578 215.332 343.359 215.193 343.175 215.005C342.992 214.818 342.849 214.573 342.747 214.272C342.65 213.971 342.601 213.61 342.601 213.187V209.094H343.686V213.199C343.686 213.485 343.717 213.721 343.779 213.909C343.846 214.093 343.934 214.239 344.043 214.349C344.157 214.454 344.282 214.528 344.419 214.571C344.559 214.615 344.704 214.636 344.853 214.636C345.314 214.636 345.68 214.548 345.949 214.372C346.219 214.192 346.413 213.952 346.53 213.651C346.651 213.346 346.712 213.008 346.712 212.636ZM351.908 209.094V209.927H348.477V209.094H351.908ZM349.638 207.552H350.723V213.868C350.723 214.083 350.756 214.245 350.823 214.355C350.889 214.464 350.975 214.536 351.081 214.571C351.186 214.607 351.3 214.624 351.421 214.624C351.511 214.624 351.605 214.616 351.702 214.601C351.804 214.581 351.88 214.566 351.931 214.554L351.937 215.439C351.851 215.467 351.738 215.492 351.597 215.516C351.46 215.543 351.294 215.557 351.098 215.557C350.833 215.557 350.588 215.504 350.365 215.398C350.143 215.293 349.965 215.117 349.832 214.871C349.703 214.62 349.638 214.284 349.638 213.862V207.552ZM355.837 209.094V209.927H352.406V209.094H355.837ZM353.567 207.552H354.652V213.868C354.652 214.083 354.686 214.245 354.752 214.355C354.819 214.464 354.905 214.536 355.01 214.571C355.116 214.607 355.229 214.624 355.35 214.624C355.44 214.624 355.534 214.616 355.632 214.601C355.733 214.581 355.81 214.566 355.86 214.554L355.866 215.439C355.78 215.467 355.667 215.492 355.526 215.516C355.389 215.543 355.223 215.557 355.028 215.557C354.762 215.557 354.517 215.504 354.295 215.398C354.072 215.293 353.894 215.117 353.761 214.871C353.632 214.62 353.567 214.284 353.567 213.862V207.552ZM356.705 212.337V212.202C356.705 211.745 356.771 211.321 356.904 210.93C357.037 210.535 357.229 210.193 357.479 209.903C357.729 209.61 358.032 209.383 358.388 209.223C358.744 209.059 359.143 208.977 359.585 208.977C360.03 208.977 360.431 209.059 360.787 209.223C361.146 209.383 361.451 209.61 361.702 209.903C361.956 210.193 362.149 210.535 362.282 210.93C362.415 211.321 362.482 211.745 362.482 212.202V212.337C362.482 212.795 362.415 213.219 362.282 213.61C362.149 214.001 361.956 214.343 361.702 214.636C361.451 214.925 361.148 215.152 360.793 215.316C360.441 215.477 360.042 215.557 359.596 215.557C359.151 215.557 358.75 215.477 358.394 215.316C358.038 215.152 357.733 214.925 357.479 214.636C357.229 214.343 357.037 214.001 356.904 213.61C356.771 213.219 356.705 212.795 356.705 212.337ZM357.79 212.202V212.337C357.79 212.654 357.827 212.953 357.901 213.234C357.976 213.512 358.087 213.758 358.236 213.973C358.388 214.188 358.578 214.358 358.805 214.484C359.031 214.605 359.295 214.665 359.596 214.665C359.893 214.665 360.153 214.605 360.376 214.484C360.603 214.358 360.791 214.188 360.939 213.973C361.088 213.758 361.199 213.512 361.274 213.234C361.352 212.953 361.391 212.654 361.391 212.337V212.202C361.391 211.889 361.352 211.594 361.274 211.317C361.199 211.035 361.086 210.787 360.933 210.572C360.785 210.353 360.597 210.181 360.37 210.056C360.148 209.931 359.886 209.868 359.585 209.868C359.287 209.868 359.025 209.931 358.799 210.056C358.576 210.181 358.388 210.353 358.236 210.572C358.087 210.787 357.976 211.035 357.901 211.317C357.827 211.594 357.79 211.889 357.79 212.202ZM364.927 210.449V215.439H363.842V209.094H364.868L364.927 210.449ZM364.669 212.026L364.218 212.009C364.221 211.575 364.286 211.174 364.411 210.806C364.536 210.435 364.712 210.112 364.939 209.839C365.166 209.565 365.435 209.354 365.748 209.205C366.065 209.053 366.415 208.977 366.798 208.977C367.111 208.977 367.392 209.02 367.642 209.106C367.893 209.188 368.106 209.321 368.282 209.504C368.462 209.688 368.598 209.927 368.692 210.22C368.786 210.509 368.833 210.863 368.833 211.281V215.439H367.742V211.27C367.742 210.937 367.693 210.672 367.596 210.472C367.498 210.269 367.355 210.122 367.167 210.032C366.98 209.938 366.749 209.892 366.475 209.892C366.206 209.892 365.959 209.948 365.736 210.062C365.518 210.175 365.328 210.331 365.168 210.531C365.011 210.73 364.888 210.959 364.798 211.217C364.712 211.471 364.669 211.741 364.669 212.026Z"
                                fill="#EEEEEE" />
                        </g>
                        <path id="Headline"
                            d="M282.425 120.412V124.758H268.311V120.412H282.425ZM269.964 109.4V136.439H264.393V109.4H269.964ZM286.4 109.4V136.439H280.847V109.4H286.4ZM300.161 136.811C298.601 136.811 297.202 136.563 295.964 136.068C294.726 135.56 293.673 134.861 292.807 133.969C291.952 133.078 291.296 132.044 290.838 130.868C290.38 129.679 290.151 128.416 290.151 127.079V126.336C290.151 124.814 290.368 123.421 290.801 122.158C291.234 120.895 291.853 119.799 292.658 118.871C293.475 117.942 294.466 117.23 295.63 116.735C296.793 116.228 298.106 115.974 299.567 115.974C300.99 115.974 302.253 116.209 303.355 116.679C304.457 117.15 305.379 117.818 306.122 118.685C306.877 119.552 307.447 120.592 307.831 121.805C308.215 123.006 308.406 124.343 308.406 125.816V128.045H292.435V124.479H303.151V124.071C303.151 123.328 303.015 122.666 302.742 122.084C302.482 121.489 302.086 121.019 301.554 120.672C301.021 120.326 300.34 120.152 299.511 120.152C298.805 120.152 298.199 120.307 297.691 120.617C297.183 120.926 296.769 121.359 296.447 121.917C296.137 122.474 295.902 123.13 295.741 123.885C295.592 124.628 295.518 125.445 295.518 126.336V127.079C295.518 127.884 295.63 128.627 295.852 129.308C296.088 129.989 296.416 130.577 296.837 131.072C297.27 131.567 297.79 131.951 298.397 132.224C299.016 132.496 299.715 132.632 300.495 132.632C301.461 132.632 302.358 132.446 303.188 132.075C304.03 131.691 304.754 131.115 305.361 130.348L307.961 133.171C307.54 133.777 306.964 134.359 306.234 134.916C305.516 135.474 304.649 135.932 303.634 136.291C302.618 136.637 301.461 136.811 300.161 136.811ZM322.298 131.908V122.957C322.298 122.313 322.193 121.762 321.982 121.304C321.772 120.833 321.443 120.468 320.998 120.208C320.564 119.948 320.001 119.818 319.308 119.818C318.714 119.818 318.2 119.923 317.766 120.134C317.333 120.332 316.999 120.623 316.764 121.007C316.528 121.378 316.411 121.817 316.411 122.325H311.062C311.062 121.471 311.26 120.66 311.656 119.892C312.053 119.125 312.628 118.45 313.384 117.868C314.139 117.274 315.036 116.809 316.076 116.475C317.129 116.141 318.305 115.974 319.605 115.974C321.165 115.974 322.552 116.234 323.765 116.754C324.978 117.274 325.932 118.054 326.625 119.094C327.331 120.134 327.683 121.434 327.683 122.994V131.592C327.683 132.694 327.751 133.598 327.888 134.304C328.024 134.997 328.222 135.604 328.482 136.123V136.439H323.078C322.818 135.894 322.62 135.214 322.483 134.396C322.36 133.567 322.298 132.737 322.298 131.908ZM323.003 124.201L323.041 127.228H320.051C319.345 127.228 318.732 127.308 318.212 127.469C317.692 127.63 317.265 127.859 316.931 128.156C316.596 128.441 316.349 128.775 316.188 129.159C316.039 129.543 315.965 129.964 315.965 130.422C315.965 130.88 316.07 131.295 316.281 131.666C316.491 132.025 316.794 132.31 317.191 132.521C317.587 132.719 318.051 132.818 318.584 132.818C319.388 132.818 320.088 132.657 320.682 132.335C321.276 132.013 321.734 131.617 322.056 131.146C322.391 130.676 322.564 130.23 322.576 129.809L323.988 132.075C323.79 132.583 323.517 133.109 323.171 133.654C322.836 134.198 322.409 134.712 321.889 135.195C321.369 135.665 320.744 136.055 320.013 136.365C319.283 136.662 318.416 136.811 317.414 136.811C316.138 136.811 314.981 136.557 313.941 136.049C312.913 135.529 312.096 134.817 311.489 133.914C310.895 132.997 310.598 131.957 310.598 130.794C310.598 129.741 310.796 128.806 311.192 127.989C311.588 127.172 312.17 126.485 312.938 125.928C313.718 125.358 314.69 124.931 315.854 124.646C317.017 124.349 318.367 124.201 319.902 124.201H323.003ZM343.673 132.056V107.914H349.059V136.439H344.212L343.673 132.056ZM330.971 126.634V126.244C330.971 124.708 331.144 123.316 331.49 122.065C331.837 120.802 332.345 119.719 333.013 118.815C333.682 117.911 334.505 117.212 335.483 116.717C336.461 116.221 337.576 115.974 338.826 115.974C340.002 115.974 341.03 116.221 341.909 116.717C342.8 117.212 343.556 117.918 344.175 118.834C344.806 119.738 345.314 120.808 345.697 122.047C346.081 123.272 346.36 124.616 346.533 126.076V126.931C346.36 128.33 346.081 129.63 345.697 130.831C345.314 132.032 344.806 133.084 344.175 133.988C343.556 134.879 342.8 135.573 341.909 136.068C341.018 136.563 339.978 136.811 338.789 136.811C337.539 136.811 336.424 136.557 335.446 136.049C334.48 135.542 333.663 134.83 332.995 133.914C332.339 132.997 331.837 131.92 331.49 130.682C331.144 129.444 330.971 128.095 330.971 126.634ZM336.319 126.244V126.634C336.319 127.463 336.381 128.237 336.505 128.955C336.641 129.673 336.858 130.311 337.155 130.868C337.464 131.413 337.86 131.84 338.343 132.149C338.839 132.446 339.439 132.595 340.145 132.595C341.061 132.595 341.816 132.391 342.41 131.982C343.005 131.561 343.457 130.985 343.766 130.255C344.088 129.525 344.274 128.683 344.323 127.729V125.296C344.286 124.516 344.175 123.817 343.989 123.198C343.816 122.567 343.556 122.028 343.209 121.582C342.875 121.137 342.454 120.79 341.946 120.542C341.451 120.295 340.863 120.171 340.182 120.171C339.488 120.171 338.894 120.332 338.399 120.654C337.904 120.963 337.501 121.39 337.192 121.935C336.895 122.48 336.672 123.124 336.523 123.867C336.387 124.597 336.319 125.389 336.319 126.244ZM358.883 107.914V136.439H353.516V107.914H358.883ZM368.949 116.345V136.439H363.582V116.345H368.949ZM363.247 111.108C363.247 110.328 363.52 109.684 364.064 109.177C364.609 108.669 365.34 108.415 366.256 108.415C367.16 108.415 367.884 108.669 368.429 109.177C368.986 109.684 369.264 110.328 369.264 111.108C369.264 111.888 368.986 112.532 368.429 113.039C367.884 113.547 367.16 113.801 366.256 113.801C365.34 113.801 364.609 113.547 364.064 113.039C363.52 112.532 363.247 111.888 363.247 111.108ZM378.606 120.635V136.439H373.257V116.345H378.271L378.606 120.635ZM377.826 125.686H376.377C376.377 124.201 376.569 122.864 376.953 121.675C377.337 120.474 377.875 119.453 378.568 118.611C379.262 117.757 380.085 117.107 381.038 116.661C382.004 116.203 383.081 115.974 384.27 115.974C385.211 115.974 386.071 116.11 386.851 116.382C387.631 116.655 388.3 117.088 388.857 117.682C389.426 118.277 389.86 119.063 390.157 120.041C390.466 121.019 390.621 122.214 390.621 123.625V136.439H385.236V123.607C385.236 122.715 385.112 122.022 384.864 121.527C384.617 121.031 384.251 120.685 383.768 120.487C383.298 120.276 382.716 120.171 382.023 120.171C381.305 120.171 380.679 120.313 380.147 120.598C379.627 120.883 379.194 121.279 378.847 121.787C378.513 122.282 378.259 122.864 378.086 123.532C377.912 124.201 377.826 124.919 377.826 125.686ZM403.937 136.811C402.377 136.811 400.978 136.563 399.74 136.068C398.502 135.56 397.449 134.861 396.583 133.969C395.728 133.078 395.072 132.044 394.614 130.868C394.156 129.679 393.927 128.416 393.927 127.079V126.336C393.927 124.814 394.144 123.421 394.577 122.158C395.01 120.895 395.629 119.799 396.434 118.871C397.251 117.942 398.242 117.23 399.405 116.735C400.569 116.228 401.882 115.974 403.342 115.974C404.766 115.974 406.029 116.209 407.131 116.679C408.233 117.15 409.155 117.818 409.898 118.685C410.653 119.552 411.223 120.592 411.607 121.805C411.99 123.006 412.182 124.343 412.182 125.816V128.045H396.211V124.479H406.927V124.071C406.927 123.328 406.791 122.666 406.518 122.084C406.258 121.489 405.862 121.019 405.33 120.672C404.797 120.326 404.116 120.152 403.287 120.152C402.581 120.152 401.974 120.307 401.467 120.617C400.959 120.926 400.544 121.359 400.223 121.917C399.913 122.474 399.678 123.13 399.517 123.885C399.368 124.628 399.294 125.445 399.294 126.336V127.079C399.294 127.884 399.405 128.627 399.628 129.308C399.863 129.989 400.192 130.577 400.613 131.072C401.046 131.567 401.566 131.951 402.172 132.224C402.792 132.496 403.491 132.632 404.271 132.632C405.237 132.632 406.134 132.446 406.964 132.075C407.806 131.691 408.53 131.115 409.137 130.348L411.737 133.171C411.316 133.777 410.74 134.359 410.01 134.916C409.291 135.474 408.425 135.932 407.41 136.291C406.394 136.637 405.237 136.811 403.937 136.811Z"
                            fill="#EEEEEE" />
                    </g>
                </g>
            </g>
        </g>
        <g id="Copyright">
            <path id="Vector_21" d="M700 1815.44H0V1850.44H700V1815.44Z" fill="#3AADAA" />
            <path id="Vector_22"
                d="M615 1830.44C623.284 1830.44 630 1823.72 630 1815.44C630 1807.16 623.284 1800.44 615 1800.44C606.716 1800.44 600 1807.16 600 1815.44C600 1823.72 606.716 1830.44 615 1830.44Z"
                fill="black" />
            <path id="Vector_23"
                d="M188 1830.44H72C70.8954 1830.44 70 1831.33 70 1832.44V1834.44C70 1835.54 70.8954 1836.44 72 1836.44H188C189.105 1836.44 190 1835.54 190 1834.44V1832.44C190 1831.33 189.105 1830.44 188 1830.44Z"
                fill="#3AADAA" />
        </g>
        <g id="Group 33">
            <g id="Group 32">
                <ellipse id="Ellipse 12" cx="524.918" cy="1765.42" rx="11.7211" ry="11.7211" fill="#D9D9D9" />
                <ellipse id="Ellipse 13" cx="552.877" cy="1765.42" rx="11.7211" ry="11.7211" fill="#D9D9D9" />
                <ellipse id="Ellipse 14" cx="580.836" cy="1765.42" rx="11.7211" ry="11.7211" fill="#D9D9D9" />
                <ellipse id="Ellipse 15" cx="627.795" cy="1765.42" rx="11.7211" ry="11.7211" fill="#D9D9D9" />
            </g>
            <path id="Feature"
                d="M73.1857 1701.77H74.2777V1698.01H77.2297V1697.12H74.2777V1694.3H77.9137V1693.41H73.1857V1701.77ZM82.0286 1696.01C83.1566 1696.01 84.1166 1696.72 84.1046 1698.01H79.9526C80.0726 1696.72 80.9606 1696.01 82.0286 1696.01ZM85.1006 1699.75H83.9246C83.6846 1700.45 83.0606 1700.96 82.0766 1700.96C80.9606 1700.96 80.0246 1700.23 79.9406 1698.89H85.1966C85.2206 1698.67 85.2326 1698.47 85.2326 1698.23C85.2326 1696.43 83.9846 1695.09 82.0766 1695.09C80.1566 1695.09 78.8246 1696.4 78.8246 1698.47C78.8246 1700.56 80.2046 1701.88 82.0766 1701.88C83.7086 1701.88 84.7646 1700.95 85.1006 1699.75ZM86.266 1698.46C86.266 1700.5 87.622 1701.88 89.374 1701.88C90.586 1701.88 91.438 1701.26 91.834 1700.55V1701.77H92.938V1695.2H91.834V1696.4C91.45 1695.71 90.61 1695.09 89.386 1695.09C87.622 1695.09 86.266 1696.41 86.266 1698.46ZM91.834 1698.47C91.834 1700.02 90.802 1700.92 89.602 1700.92C88.402 1700.92 87.382 1700.01 87.382 1698.46C87.382 1696.91 88.402 1696.04 89.602 1696.04C90.802 1696.04 91.834 1696.95 91.834 1698.47ZM95.0234 1699.97C95.0234 1701.29 95.6834 1701.77 96.8474 1701.77H97.8314V1700.85H97.0274C96.3554 1700.85 96.1154 1700.62 96.1154 1699.97V1696.1H97.8314V1695.2H96.1154V1693.54H95.0234V1695.2H94.1714V1696.1H95.0234V1699.97ZM104.986 1695.2H103.894V1698.81C103.894 1700.23 103.138 1700.92 102.01 1700.92C100.906 1700.92 100.174 1700.24 100.174 1698.91V1695.2H99.0945V1699.05C99.0945 1700.93 100.282 1701.87 101.794 1701.87C102.67 1701.87 103.474 1701.49 103.894 1700.8V1701.77H104.986V1695.2ZM107.922 1698.2C107.922 1696.67 108.714 1696.21 109.758 1696.21H110.046V1695.08C109.002 1695.08 108.294 1695.53 107.922 1696.27V1695.2H106.83V1701.77H107.922V1698.2ZM114.103 1696.01C115.231 1696.01 116.191 1696.72 116.179 1698.01H112.027C112.147 1696.72 113.035 1696.01 114.103 1696.01ZM117.175 1699.75H115.999C115.759 1700.45 115.135 1700.96 114.151 1700.96C113.035 1700.96 112.099 1700.23 112.015 1698.89H117.271C117.295 1698.67 117.307 1698.47 117.307 1698.23C117.307 1696.43 116.059 1695.09 114.151 1695.09C112.231 1695.09 110.899 1696.4 110.899 1698.47C110.899 1700.56 112.279 1701.88 114.151 1701.88C115.783 1701.88 116.839 1700.95 117.175 1699.75Z"
                fill="white" />
            <path id="Feature_2"
                d="M231.529 1701.77H232.621V1698.01H235.573V1697.12H232.621V1694.3H236.257V1693.41H231.529V1701.77ZM240.372 1696.01C241.5 1696.01 242.46 1696.72 242.448 1698.01H238.296C238.416 1696.72 239.304 1696.01 240.372 1696.01ZM243.444 1699.75H242.268C242.028 1700.45 241.404 1700.96 240.42 1700.96C239.304 1700.96 238.368 1700.23 238.284 1698.89H243.54C243.564 1698.67 243.576 1698.47 243.576 1698.23C243.576 1696.43 242.328 1695.09 240.42 1695.09C238.5 1695.09 237.168 1696.4 237.168 1698.47C237.168 1700.56 238.548 1701.88 240.42 1701.88C242.052 1701.88 243.108 1700.95 243.444 1699.75ZM244.61 1698.46C244.61 1700.5 245.966 1701.88 247.718 1701.88C248.93 1701.88 249.782 1701.26 250.178 1700.55V1701.77H251.282V1695.2H250.178V1696.4C249.794 1695.71 248.954 1695.09 247.73 1695.09C245.966 1695.09 244.61 1696.41 244.61 1698.46ZM250.178 1698.47C250.178 1700.02 249.146 1700.92 247.946 1700.92C246.746 1700.92 245.726 1700.01 245.726 1698.46C245.726 1696.91 246.746 1696.04 247.946 1696.04C249.146 1696.04 250.178 1696.95 250.178 1698.47ZM253.367 1699.97C253.367 1701.29 254.027 1701.77 255.191 1701.77H256.175V1700.85H255.371C254.699 1700.85 254.459 1700.62 254.459 1699.97V1696.1H256.175V1695.2H254.459V1693.54H253.367V1695.2H252.515V1696.1H253.367V1699.97ZM263.33 1695.2H262.238V1698.81C262.238 1700.23 261.482 1700.92 260.354 1700.92C259.25 1700.92 258.518 1700.24 258.518 1698.91V1695.2H257.438V1699.05C257.438 1700.93 258.626 1701.87 260.138 1701.87C261.014 1701.87 261.818 1701.49 262.238 1700.8V1701.77H263.33V1695.2ZM266.266 1698.2C266.266 1696.67 267.058 1696.21 268.102 1696.21H268.39V1695.08C267.346 1695.08 266.638 1695.53 266.266 1696.27V1695.2H265.174V1701.77H266.266V1698.2ZM272.447 1696.01C273.575 1696.01 274.535 1696.72 274.523 1698.01H270.371C270.491 1696.72 271.379 1696.01 272.447 1696.01ZM275.519 1699.75H274.343C274.103 1700.45 273.479 1700.96 272.495 1700.96C271.379 1700.96 270.443 1700.23 270.359 1698.89H275.615C275.639 1698.67 275.651 1698.47 275.651 1698.23C275.651 1696.43 274.403 1695.09 272.495 1695.09C270.575 1695.09 269.243 1696.4 269.243 1698.47C269.243 1700.56 270.623 1701.88 272.495 1701.88C274.127 1701.88 275.183 1700.95 275.519 1699.75Z"
                fill="white" />
            <path id="Feature_3"
                d="M514.121 1701.77H515.213V1698.01H518.165V1697.12H515.213V1694.3H518.849V1693.41H514.121V1701.77ZM522.964 1696.01C524.092 1696.01 525.052 1696.72 525.04 1698.01H520.888C521.008 1696.72 521.896 1696.01 522.964 1696.01ZM526.036 1699.75H524.86C524.62 1700.45 523.996 1700.96 523.012 1700.96C521.896 1700.96 520.96 1700.23 520.876 1698.89H526.132C526.156 1698.67 526.168 1698.47 526.168 1698.23C526.168 1696.43 524.92 1695.09 523.012 1695.09C521.092 1695.09 519.76 1696.4 519.76 1698.47C519.76 1700.56 521.14 1701.88 523.012 1701.88C524.644 1701.88 525.7 1700.95 526.036 1699.75ZM527.202 1698.46C527.202 1700.5 528.558 1701.88 530.31 1701.88C531.522 1701.88 532.374 1701.26 532.77 1700.55V1701.77H533.874V1695.2H532.77V1696.4C532.386 1695.71 531.546 1695.09 530.322 1695.09C528.558 1695.09 527.202 1696.41 527.202 1698.46ZM532.77 1698.47C532.77 1700.02 531.738 1700.92 530.538 1700.92C529.338 1700.92 528.318 1700.01 528.318 1698.46C528.318 1696.91 529.338 1696.04 530.538 1696.04C531.738 1696.04 532.77 1696.95 532.77 1698.47ZM535.959 1699.97C535.959 1701.29 536.619 1701.77 537.783 1701.77H538.767V1700.85H537.963C537.291 1700.85 537.051 1700.62 537.051 1699.97V1696.1H538.767V1695.2H537.051V1693.54H535.959V1695.2H535.107V1696.1H535.959V1699.97ZM545.922 1695.2H544.83V1698.81C544.83 1700.23 544.074 1700.92 542.946 1700.92C541.842 1700.92 541.11 1700.24 541.11 1698.91V1695.2H540.03V1699.05C540.03 1700.93 541.218 1701.87 542.73 1701.87C543.606 1701.87 544.41 1701.49 544.83 1700.8V1701.77H545.922V1695.2ZM548.858 1698.2C548.858 1696.67 549.65 1696.21 550.694 1696.21H550.982V1695.08C549.938 1695.08 549.23 1695.53 548.858 1696.27V1695.2H547.766V1701.77H548.858V1698.2ZM555.038 1696.01C556.166 1696.01 557.126 1696.72 557.114 1698.01H552.962C553.082 1696.72 553.97 1696.01 555.038 1696.01ZM558.11 1699.75H556.934C556.694 1700.45 556.07 1700.96 555.086 1700.96C553.97 1700.96 553.034 1700.23 552.95 1698.89H558.206C558.23 1698.67 558.242 1698.47 558.242 1698.23C558.242 1696.43 556.994 1695.09 555.086 1695.09C553.166 1695.09 551.834 1696.4 551.834 1698.47C551.834 1700.56 553.214 1701.88 555.086 1701.88C556.718 1701.88 557.774 1700.95 558.11 1699.75Z"
                fill="white" />
            <g id="Group 29">
                <rect id="Rectangle 37" x="72.2617" y="1713.9" width="42.0159" height="5.98317" rx="1.35619"
                    fill="#3AADAA" />
                <rect id="Rectangle 38" x="72.2617" y="1725.17" width="42.0159" height="5.98317" rx="1.35619"
                    fill="#3AADAA" />
                <rect id="Rectangle 39" x="72.2617" y="1736.43" width="42.0159" height="5.98317" rx="1.35619"
                    fill="#3AADAA" />
                <rect id="Rectangle 40" x="72.2617" y="1747.69" width="42.0159" height="5.98317" rx="1.35619"
                    fill="#3AADAA" />
                <rect id="Rectangle 41" x="72.2617" y="1758.95" width="42.0159" height="5.98317" rx="1.35619"
                    fill="#3AADAA" />
                <rect id="Rectangle 42" x="72.2617" y="1770.22" width="42.0159" height="5.98317" rx="1.35619"
                    fill="#3AADAA" />
            </g>
            <g id="Group 30">
                <rect id="Rectangle 37_2" x="230.605" y="1714.47" width="196.264" height="5.98317" rx="1.35619"
                    fill="#D9D9D9" />
                <rect id="Rectangle 38_2" x="230.605" y="1725.74" width="196.264" height="5.98317" rx="1.35619"
                    fill="#D9D9D9" />
                <rect id="Rectangle 39_2" x="230.605" y="1737" width="196.264" height="5.98317" rx="1.35619"
                    fill="#D9D9D9" />
                <rect id="Rectangle 40_2" x="230.605" y="1748.26" width="196.264" height="5.98317" rx="1.35619"
                    fill="#D9D9D9" />
                <rect id="Rectangle 41_2" x="230.605" y="1759.52" width="196.264" height="5.98317" rx="1.35619"
                    fill="#D9D9D9" />
                <rect id="Rectangle 42_2" x="230.605" y="1770.79" width="196.264" height="5.98317" rx="1.35619"
                    fill="#D9D9D9" />
            </g>
            <g id="Group 31">
                <rect id="Rectangle 37_3" x="513.197" y="1714.47" width="114.541" height="5.98317" rx="1.35619"
                    fill="#D9D9D9" />
                <rect id="Rectangle 38_3" x="513.197" y="1725.74" width="114.541" height="5.98317" rx="1.35619"
                    fill="#D9D9D9" />
                <rect id="Rectangle 39_3" x="513.197" y="1737" width="114.541" height="5.98317" rx="1.35619"
                    fill="#D9D9D9" />
            </g>
        </g>
        <rect id="Rectangle 43" x="189.758" y="336.607" width="326.482" height="12.5942" rx="4" fill="#D9D9D9" />
        <g id="Group 46">
            <g id="Group 40">
                <rect id="Rectangle 44" x="18.6387" y="428.934" width="156.943" height="177.288" fill="url(#theme_viin_ecommerce_fashion_library_image_10_id)" class="img_reference_library_image_10" />
                <circle id="Ellipse 16" cx="46.3877" cy="408.581" r="13.3232" fill="#3AADAA" />
                <rect id="Rectangle 45" x="69.9492" y="404.481" width="86.2637" height="8.19897" rx="2"
                    fill="#888888" />
            </g>
            <g id="Group 41">
                <rect id="Rectangle 44_2" x="188.555" y="428.934" width="156.943" height="177.288" fill="url(#theme_viin_ecommerce_fashion_library_image_08_id)" class="img_reference_library_image_08" />
                <circle id="Ellipse 16_2" cx="216.304" cy="408.581" r="13.3232" fill="#CED4DA" />
                <rect id="Rectangle 45_2" x="239.865" y="404.481" width="86.2637" height="8.19897" rx="2"
                    fill="#888888" />
            </g>
            <g id="Group 42">
                <rect id="Rectangle 44_3" x="358.471" y="428.934" width="156.943" height="177.288" fill="url(#theme_viin_ecommerce_fashion_library_image_03_id)" class="img_reference_library_image_03" />
                <circle id="Ellipse 16_3" cx="386.22" cy="408.581" r="13.3232" fill="#7C6576" />
                <rect id="Rectangle 45_3" x="409.781" y="404.481" width="86.2637" height="8.19897" rx="2"
                    fill="#888888" />
            </g>
            <g id="Group 43">
                <rect id="Rectangle 44_4" x="528.387" y="428.934" width="156.943" height="177.288" fill="url(#theme_viin_ecommerce_fashion_library_image_13_id)" class="img_reference_library_image_13" />
                <circle id="Ellipse 16_4" cx="556.136" cy="408.581" r="13.3232" fill="#3AADAA" />
                <rect id="Rectangle 45_4" x="579.697" y="404.481" width="86.2637" height="8.19897" rx="2"
                    fill="#888888" />
            </g>
        </g>
        <g id="Group 122">
            <rect id="Rectangle 44_5" x="27.3789" y="1267.07" width="186.781" height="210.994" fill="url(#theme_viin_ecommerce_fashion_s_three_columns_default_image_1_id)" class="img_reference_s_three_columns_default_image_1" />
            <rect id="Rectangle 66" x="259.16" y="1267.07" width="186.781" height="210.994" fill="url(#theme_viin_ecommerce_fashion_s_three_columns_default_image_2_id)" class="img_reference_s_three_columns_default_image_2" />
            <rect id="Rectangle 67" x="490.941" y="1267.07" width="186.781" height="210.994" fill="url(#theme_viin_ecommerce_fashion_s_three_columns_default_image_3_id)" class="img_reference_s_three_columns_default_image_3" />
        </g>
        <g id="Group 121">
            <rect id="Rectangle 59" y="900.703" width="700" height="260.404" fill="#7B7B7B" />
            <g id="Group 47">
                <rect id="Rectangle 60" x="125.76" y="964.146" width="46.9907" height="46.9907" fill="#3AADAA" />
                <path id="Vector_24"
                    d="M216.493 1046.92H82.0173C80.8385 1046.92 79.8828 1048.04 79.8828 1049.43V1051.95C79.8828 1053.34 80.8385 1054.46 82.0173 1054.46H216.493C217.672 1054.46 218.627 1053.34 218.627 1051.95V1049.43C218.627 1048.04 217.672 1046.92 216.493 1046.92Z"
                    fill="white" />
                <path id="Vector_25"
                    d="M216.493 1061.35H82.0173C80.8385 1061.35 79.8828 1062.47 79.8828 1063.86V1066.38C79.8828 1067.77 80.8385 1068.89 82.0173 1068.89H216.493C217.672 1068.89 218.627 1067.77 218.627 1066.38V1063.86C218.627 1062.47 217.672 1061.35 216.493 1061.35Z"
                    fill="white" />
                <path id="Vector_26"
                    d="M216.493 1075.78H82.0173C80.8385 1075.78 79.8828 1076.9 79.8828 1078.29V1080.81C79.8828 1082.2 80.8385 1083.32 82.0173 1083.32H216.493C217.672 1083.32 218.627 1082.2 218.627 1080.81V1078.29C218.627 1076.9 217.672 1075.78 216.493 1075.78Z"
                    fill="white" />
                <path id="Vector_27"
                    d="M216.493 1090.21H82.0173C80.8385 1090.21 79.8828 1091.33 79.8828 1092.72V1095.24C79.8828 1096.63 80.8385 1097.75 82.0173 1097.75H216.493C217.672 1097.75 218.627 1096.63 218.627 1095.24V1092.72C218.627 1091.33 217.672 1090.21 216.493 1090.21Z"
                    fill="white" />
                <path id="Feature_4"
                    d="M116.968 1032.02H118.606V1026.37H123.034V1025.04H118.606V1020.81H124.06V1019.48H116.968V1032.02ZM130.232 1023.38C131.924 1023.38 133.364 1024.44 133.346 1026.37H127.118C127.298 1024.44 128.63 1023.38 130.232 1023.38ZM134.84 1028.98H133.076C132.716 1030.04 131.78 1030.8 130.304 1030.8C128.63 1030.8 127.226 1029.7 127.1 1027.7H134.984C135.02 1027.36 135.038 1027.07 135.038 1026.71C135.038 1024.01 133.166 1022 130.304 1022C127.424 1022 125.426 1023.96 125.426 1027.07C125.426 1030.2 127.496 1032.18 130.304 1032.18C132.752 1032.18 134.336 1030.78 134.84 1028.98ZM136.588 1027.05C136.588 1030.11 138.622 1032.18 141.25 1032.18C143.068 1032.18 144.346 1031.25 144.94 1030.19V1032.02H146.596V1022.16H144.94V1023.96C144.364 1022.93 143.104 1022 141.268 1022C138.622 1022 136.588 1023.98 136.588 1027.05ZM144.94 1027.07C144.94 1029.39 143.392 1030.74 141.592 1030.74C139.792 1030.74 138.262 1029.38 138.262 1027.05C138.262 1024.73 139.792 1023.42 141.592 1023.42C143.392 1023.42 144.94 1024.79 144.94 1027.07ZM149.725 1029.32C149.725 1031.3 150.715 1032.02 152.461 1032.02H153.937V1030.64H152.731C151.723 1030.64 151.363 1030.29 151.363 1029.32V1023.51H153.937V1022.16H151.363V1019.67H149.725V1022.16H148.447V1023.51H149.725V1029.32ZM164.669 1022.16H163.031V1027.58C163.031 1029.7 161.897 1030.74 160.205 1030.74C158.549 1030.74 157.451 1029.72 157.451 1027.72V1022.16H155.831V1027.94C155.831 1030.76 157.613 1032.17 159.881 1032.17C161.195 1032.17 162.401 1031.59 163.031 1030.56V1032.02H164.669V1022.16ZM169.073 1026.66C169.073 1024.37 170.261 1023.67 171.827 1023.67H172.259V1021.98C170.693 1021.98 169.631 1022.66 169.073 1023.76V1022.16H167.435V1032.02H169.073V1026.66ZM178.344 1023.38C180.036 1023.38 181.476 1024.44 181.458 1026.37H175.23C175.41 1024.44 176.742 1023.38 178.344 1023.38ZM182.952 1028.98H181.188C180.828 1030.04 179.892 1030.8 178.416 1030.8C176.742 1030.8 175.338 1029.7 175.212 1027.7H183.096C183.132 1027.36 183.15 1027.07 183.15 1026.71C183.15 1024.01 181.278 1022 178.416 1022C175.536 1022 173.538 1023.96 173.538 1027.07C173.538 1030.2 175.608 1032.18 178.416 1032.18C180.864 1032.18 182.448 1030.78 182.952 1028.98Z"
                    fill="white" />
            </g>
            <g id="Group 48">
                <rect id="Rectangle 60_2" x="326.506" y="964.054" width="46.9907" height="46.9907" fill="white" />
                <path id="Vector_28"
                    d="M417.239 1046.82H282.763C281.585 1046.82 280.629 1047.95 280.629 1049.34V1051.85C280.629 1053.24 281.585 1054.37 282.763 1054.37H417.239C418.418 1054.37 419.373 1053.24 419.373 1051.85V1049.34C419.373 1047.95 418.418 1046.82 417.239 1046.82Z"
                    fill="white" />
                <path id="Vector_29"
                    d="M417.239 1061.25H282.763C281.585 1061.25 280.629 1062.38 280.629 1063.77V1066.29C280.629 1067.67 281.585 1068.8 282.763 1068.8H417.239C418.418 1068.8 419.373 1067.67 419.373 1066.29V1063.77C419.373 1062.38 418.418 1061.25 417.239 1061.25Z"
                    fill="white" />
                <path id="Vector_30"
                    d="M417.239 1075.69H282.763C281.585 1075.69 280.629 1076.81 280.629 1078.2V1080.72C280.629 1082.11 281.585 1083.23 282.763 1083.23H417.239C418.418 1083.23 419.373 1082.11 419.373 1080.72V1078.2C419.373 1076.81 418.418 1075.69 417.239 1075.69Z"
                    fill="white" />
                <path id="Vector_31"
                    d="M417.239 1090.12H282.763C281.585 1090.12 280.629 1091.24 280.629 1092.63V1095.15C280.629 1096.54 281.585 1097.66 282.763 1097.66H417.239C418.418 1097.66 419.373 1096.54 419.373 1095.15V1092.63C419.373 1091.24 418.418 1090.12 417.239 1090.12Z"
                    fill="white" />
                <path id="Feature_5"
                    d="M317.714 1031.93H319.352V1026.28H323.78V1024.95H319.352V1020.72H324.806V1019.38H317.714V1031.93ZM330.978 1023.29C332.67 1023.29 334.11 1024.35 334.092 1026.28H327.864C328.044 1024.35 329.376 1023.29 330.978 1023.29ZM335.586 1028.89H333.822C333.462 1029.95 332.526 1030.71 331.05 1030.71C329.376 1030.71 327.972 1029.61 327.846 1027.61H335.73C335.766 1027.27 335.784 1026.98 335.784 1026.62C335.784 1023.92 333.912 1021.9 331.05 1021.9C328.17 1021.9 326.172 1023.87 326.172 1026.98C326.172 1030.11 328.242 1032.09 331.05 1032.09C333.498 1032.09 335.082 1030.69 335.586 1028.89ZM337.335 1026.96C337.335 1030.02 339.369 1032.09 341.997 1032.09C343.815 1032.09 345.093 1031.16 345.687 1030.09V1031.93H347.343V1022.07H345.687V1023.87C345.111 1022.84 343.851 1021.9 342.015 1021.9C339.369 1021.9 337.335 1023.88 337.335 1026.96ZM345.687 1026.98C345.687 1029.3 344.139 1030.65 342.339 1030.65C340.539 1030.65 339.009 1029.28 339.009 1026.96C339.009 1024.64 340.539 1023.33 342.339 1023.33C344.139 1023.33 345.687 1024.69 345.687 1026.98ZM350.471 1029.23C350.471 1031.21 351.461 1031.93 353.207 1031.93H354.683V1030.54H353.477C352.469 1030.54 352.109 1030.2 352.109 1029.23V1023.42H354.683V1022.07H352.109V1019.58H350.471V1022.07H349.193V1023.42H350.471V1029.23ZM365.415 1022.07H363.777V1027.48C363.777 1029.61 362.643 1030.65 360.951 1030.65C359.295 1030.65 358.197 1029.63 358.197 1027.63V1022.07H356.577V1027.84C356.577 1030.67 358.359 1032.07 360.627 1032.07C361.941 1032.07 363.147 1031.5 363.777 1030.47V1031.93H365.415V1022.07ZM369.819 1026.57C369.819 1024.28 371.007 1023.58 372.573 1023.58H373.005V1021.89C371.439 1021.89 370.377 1022.57 369.819 1023.67V1022.07H368.181V1031.93H369.819V1026.57ZM379.09 1023.29C380.782 1023.29 382.222 1024.35 382.204 1026.28H375.976C376.156 1024.35 377.488 1023.29 379.09 1023.29ZM383.698 1028.89H381.934C381.574 1029.95 380.638 1030.71 379.162 1030.71C377.488 1030.71 376.084 1029.61 375.958 1027.61H383.842C383.878 1027.27 383.896 1026.98 383.896 1026.62C383.896 1023.92 382.024 1021.9 379.162 1021.9C376.282 1021.9 374.284 1023.87 374.284 1026.98C374.284 1030.11 376.354 1032.09 379.162 1032.09C381.61 1032.09 383.194 1030.69 383.698 1028.89Z"
                    fill="white" />
            </g>
            <g id="Group 49">
                <rect id="Rectangle 60_3" x="527.248" y="964.054" width="46.9907" height="46.9907" fill="#EEEEEE" />
                <path id="Vector_32"
                    d="M617.981 1046.82H483.506C482.327 1046.82 481.371 1047.95 481.371 1049.34V1051.85C481.371 1053.24 482.327 1054.37 483.506 1054.37H617.981C619.16 1054.37 620.116 1053.24 620.116 1051.85V1049.34C620.116 1047.95 619.16 1046.82 617.981 1046.82Z"
                    fill="white" />
                <path id="Vector_33"
                    d="M617.981 1061.25H483.506C482.327 1061.25 481.371 1062.38 481.371 1063.77V1066.29C481.371 1067.67 482.327 1068.8 483.506 1068.8H617.981C619.16 1068.8 620.116 1067.67 620.116 1066.29V1063.77C620.116 1062.38 619.16 1061.25 617.981 1061.25Z"
                    fill="white" />
                <path id="Vector_34"
                    d="M617.981 1075.69H483.506C482.327 1075.69 481.371 1076.81 481.371 1078.2V1080.72C481.371 1082.11 482.327 1083.23 483.506 1083.23H617.981C619.16 1083.23 620.116 1082.11 620.116 1080.72V1078.2C620.116 1076.81 619.16 1075.69 617.981 1075.69Z"
                    fill="white" />
                <path id="Vector_35"
                    d="M617.981 1090.12H483.506C482.327 1090.12 481.371 1091.24 481.371 1092.63V1095.15C481.371 1096.54 482.327 1097.66 483.506 1097.66H617.981C619.16 1097.66 620.116 1096.54 620.116 1095.15V1092.63C620.116 1091.24 619.16 1090.12 617.981 1090.12Z"
                    fill="white" />
                <path id="Feature_6"
                    d="M518.456 1031.93H520.094V1026.28H524.522V1024.95H520.094V1020.72H525.548V1019.38H518.456V1031.93ZM531.721 1023.29C533.413 1023.29 534.853 1024.35 534.835 1026.28H528.607C528.787 1024.35 530.119 1023.29 531.721 1023.29ZM536.329 1028.89H534.565C534.205 1029.95 533.269 1030.71 531.793 1030.71C530.119 1030.71 528.715 1029.61 528.589 1027.61H536.473C536.509 1027.27 536.527 1026.98 536.527 1026.62C536.527 1023.92 534.655 1021.9 531.793 1021.9C528.913 1021.9 526.915 1023.87 526.915 1026.98C526.915 1030.11 528.985 1032.09 531.793 1032.09C534.241 1032.09 535.825 1030.69 536.329 1028.89ZM538.077 1026.96C538.077 1030.02 540.111 1032.09 542.739 1032.09C544.557 1032.09 545.835 1031.16 546.429 1030.09V1031.93H548.085V1022.07H546.429V1023.87C545.853 1022.84 544.593 1021.9 542.757 1021.9C540.111 1021.9 538.077 1023.88 538.077 1026.96ZM546.429 1026.98C546.429 1029.3 544.881 1030.65 543.081 1030.65C541.281 1030.65 539.751 1029.28 539.751 1026.96C539.751 1024.64 541.281 1023.33 543.081 1023.33C544.881 1023.33 546.429 1024.69 546.429 1026.98ZM551.213 1029.23C551.213 1031.21 552.203 1031.93 553.949 1031.93H555.425V1030.54H554.219C553.211 1030.54 552.851 1030.2 552.851 1029.23V1023.42H555.425V1022.07H552.851V1019.58H551.213V1022.07H549.935V1023.42H551.213V1029.23ZM566.157 1022.07H564.519V1027.48C564.519 1029.61 563.385 1030.65 561.693 1030.65C560.037 1030.65 558.939 1029.63 558.939 1027.63V1022.07H557.319V1027.84C557.319 1030.67 559.101 1032.07 561.369 1032.07C562.683 1032.07 563.889 1031.5 564.519 1030.47V1031.93H566.157V1022.07ZM570.561 1026.57C570.561 1024.28 571.749 1023.58 573.315 1023.58H573.747V1021.89C572.181 1021.89 571.119 1022.57 570.561 1023.67V1022.07H568.923V1031.93H570.561V1026.57ZM579.832 1023.29C581.524 1023.29 582.964 1024.35 582.946 1026.28H576.718C576.898 1024.35 578.23 1023.29 579.832 1023.29ZM584.44 1028.89H582.676C582.316 1029.95 581.38 1030.71 579.904 1030.71C578.23 1030.71 576.826 1029.61 576.7 1027.61H584.584C584.62 1027.27 584.638 1026.98 584.638 1026.62C584.638 1023.92 582.766 1021.9 579.904 1021.9C577.024 1021.9 575.026 1023.87 575.026 1026.98C575.026 1030.11 577.096 1032.09 579.904 1032.09C582.352 1032.09 583.936 1030.69 584.44 1028.89Z"
                    fill="white" />
            </g>
        </g>
        <g id="Group 123">
            <g id="Group 50">
                <path id="Vector_36"
                    d="M192.695 1226.48H106.924C106.172 1226.48 105.562 1227.61 105.562 1229V1231.52C105.562 1232.91 106.172 1234.03 106.924 1234.03H192.695C193.447 1234.03 194.057 1232.91 194.057 1231.52V1229C194.057 1227.61 193.447 1226.48 192.695 1226.48Z"
                    fill="#7B7B7B" />
                <path id="Feature_7"
                    d="M117.523 1212.87H119.161V1207.22H123.589V1205.89H119.161V1201.66H124.615V1200.33H117.523V1212.87ZM130.787 1204.23C132.479 1204.23 133.919 1205.29 133.901 1207.22H127.673C127.853 1205.29 129.185 1204.23 130.787 1204.23ZM135.395 1209.83H133.631C133.271 1210.89 132.335 1211.65 130.859 1211.65C129.185 1211.65 127.781 1210.55 127.655 1208.55H135.539C135.575 1208.21 135.593 1207.92 135.593 1207.56C135.593 1204.86 133.721 1202.85 130.859 1202.85C127.979 1202.85 125.981 1204.81 125.981 1207.92C125.981 1211.05 128.051 1213.03 130.859 1213.03C133.307 1213.03 134.891 1211.63 135.395 1209.83ZM137.143 1207.9C137.143 1210.96 139.177 1213.03 141.805 1213.03C143.623 1213.03 144.901 1212.1 145.495 1211.04V1212.87H147.151V1203.01H145.495V1204.81C144.919 1203.78 143.659 1202.85 141.823 1202.85C139.177 1202.85 137.143 1204.83 137.143 1207.9ZM145.495 1207.92C145.495 1210.24 143.947 1211.59 142.147 1211.59C140.347 1211.59 138.817 1210.23 138.817 1207.9C138.817 1205.58 140.347 1204.27 142.147 1204.27C143.947 1204.27 145.495 1205.64 145.495 1207.92ZM150.279 1210.17C150.279 1212.15 151.269 1212.87 153.015 1212.87H154.491V1211.49H153.285C152.277 1211.49 151.917 1211.14 151.917 1210.17V1204.36H154.491V1203.01H151.917V1200.52H150.279V1203.01H149.001V1204.36H150.279V1210.17ZM165.224 1203.01H163.586V1208.43C163.586 1210.55 162.452 1211.59 160.76 1211.59C159.104 1211.59 158.006 1210.57 158.006 1208.57V1203.01H156.386V1208.79C156.386 1211.61 158.168 1213.02 160.436 1213.02C161.75 1213.02 162.956 1212.44 163.586 1211.41V1212.87H165.224V1203.01ZM169.628 1207.51C169.628 1205.22 170.816 1204.52 172.382 1204.52H172.814V1202.83C171.248 1202.83 170.186 1203.51 169.628 1204.61V1203.01H167.99V1212.87H169.628V1207.51ZM178.898 1204.23C180.59 1204.23 182.03 1205.29 182.012 1207.22H175.784C175.964 1205.29 177.296 1204.23 178.898 1204.23ZM183.506 1209.83H181.742C181.382 1210.89 180.446 1211.65 178.97 1211.65C177.296 1211.65 175.892 1210.55 175.766 1208.55H183.65C183.686 1208.21 183.704 1207.92 183.704 1207.56C183.704 1204.86 181.832 1202.85 178.97 1202.85C176.09 1202.85 174.092 1204.81 174.092 1207.92C174.092 1211.05 176.162 1213.03 178.97 1213.03C181.418 1213.03 183.002 1211.63 183.506 1209.83Z"
                    fill="#383E45" />
            </g>
            <g id="Group 51">
                <path id="Vector_37"
                    d="M316.189 1226.48H230.418C229.666 1226.48 229.057 1227.61 229.057 1229V1231.52C229.057 1232.91 229.666 1234.03 230.418 1234.03H316.189C316.941 1234.03 317.551 1232.91 317.551 1231.52V1229C317.551 1227.61 316.941 1226.48 316.189 1226.48Z"
                    fill="#7B7B7B" />
                <path id="Feature_8"
                    d="M241.019 1212.87H242.657V1207.22H247.085V1205.89H242.657V1201.66H248.111V1200.33H241.019V1212.87ZM254.283 1204.23C255.975 1204.23 257.415 1205.29 257.397 1207.22H251.169C251.349 1205.29 252.681 1204.23 254.283 1204.23ZM258.891 1209.83H257.127C256.767 1210.89 255.831 1211.65 254.355 1211.65C252.681 1211.65 251.277 1210.55 251.151 1208.55H259.035C259.071 1208.21 259.089 1207.92 259.089 1207.56C259.089 1204.86 257.217 1202.85 254.355 1202.85C251.475 1202.85 249.477 1204.81 249.477 1207.92C249.477 1211.05 251.547 1213.03 254.355 1213.03C256.803 1213.03 258.387 1211.63 258.891 1209.83ZM260.639 1207.9C260.639 1210.96 262.673 1213.03 265.301 1213.03C267.119 1213.03 268.397 1212.1 268.991 1211.04V1212.87H270.647V1203.01H268.991V1204.81C268.415 1203.78 267.155 1202.85 265.319 1202.85C262.673 1202.85 260.639 1204.83 260.639 1207.9ZM268.991 1207.92C268.991 1210.24 267.443 1211.59 265.643 1211.59C263.843 1211.59 262.313 1210.23 262.313 1207.9C262.313 1205.58 263.843 1204.27 265.643 1204.27C267.443 1204.27 268.991 1205.64 268.991 1207.92ZM273.775 1210.17C273.775 1212.15 274.765 1212.87 276.511 1212.87H277.987V1211.49H276.781C275.773 1211.49 275.413 1211.14 275.413 1210.17V1204.36H277.987V1203.01H275.413V1200.52H273.775V1203.01H272.497V1204.36H273.775V1210.17ZM288.72 1203.01H287.082V1208.43C287.082 1210.55 285.948 1211.59 284.256 1211.59C282.6 1211.59 281.502 1210.57 281.502 1208.57V1203.01H279.882V1208.79C279.882 1211.61 281.664 1213.02 283.932 1213.02C285.246 1213.02 286.452 1212.44 287.082 1211.41V1212.87H288.72V1203.01ZM293.124 1207.51C293.124 1205.22 294.312 1204.52 295.878 1204.52H296.31V1202.83C294.744 1202.83 293.682 1203.51 293.124 1204.61V1203.01H291.486V1212.87H293.124V1207.51ZM302.394 1204.23C304.086 1204.23 305.526 1205.29 305.508 1207.22H299.28C299.46 1205.29 300.792 1204.23 302.394 1204.23ZM307.002 1209.83H305.238C304.878 1210.89 303.942 1211.65 302.466 1211.65C300.792 1211.65 299.388 1210.55 299.262 1208.55H307.146C307.182 1208.21 307.2 1207.92 307.2 1207.56C307.2 1204.86 305.328 1202.85 302.466 1202.85C299.586 1202.85 297.588 1204.81 297.588 1207.92C297.588 1211.05 299.658 1213.03 302.466 1213.03C304.914 1213.03 306.498 1211.63 307.002 1209.83Z"
                    fill="#383E45" />
            </g>
            <g id="Group 52">
                <path id="Vector_38"
                    d="M439.683 1226.48H353.912C353.16 1226.48 352.551 1227.61 352.551 1229V1231.52C352.551 1232.91 353.16 1234.03 353.912 1234.03H439.683C440.435 1234.03 441.045 1232.91 441.045 1231.52V1229C441.045 1227.61 440.435 1226.48 439.683 1226.48Z"
                    fill="#7B7B7B" />
                <path id="Feature_9"
                    d="M364.511 1212.87H366.149V1207.22H370.577V1205.89H366.149V1201.66H371.603V1200.33H364.511V1212.87ZM377.775 1204.23C379.467 1204.23 380.907 1205.29 380.889 1207.22H374.661C374.841 1205.29 376.173 1204.23 377.775 1204.23ZM382.383 1209.83H380.619C380.259 1210.89 379.323 1211.65 377.847 1211.65C376.173 1211.65 374.769 1210.55 374.643 1208.55H382.527C382.563 1208.21 382.581 1207.92 382.581 1207.56C382.581 1204.86 380.709 1202.85 377.847 1202.85C374.967 1202.85 372.969 1204.81 372.969 1207.92C372.969 1211.05 375.039 1213.03 377.847 1213.03C380.295 1213.03 381.879 1211.63 382.383 1209.83ZM384.131 1207.9C384.131 1210.96 386.165 1213.03 388.793 1213.03C390.611 1213.03 391.889 1212.1 392.483 1211.04V1212.87H394.139V1203.01H392.483V1204.81C391.907 1203.78 390.647 1202.85 388.811 1202.85C386.165 1202.85 384.131 1204.83 384.131 1207.9ZM392.483 1207.92C392.483 1210.24 390.935 1211.59 389.135 1211.59C387.335 1211.59 385.805 1210.23 385.805 1207.9C385.805 1205.58 387.335 1204.27 389.135 1204.27C390.935 1204.27 392.483 1205.64 392.483 1207.92ZM397.267 1210.17C397.267 1212.15 398.257 1212.87 400.003 1212.87H401.479V1211.49H400.273C399.265 1211.49 398.905 1211.14 398.905 1210.17V1204.36H401.479V1203.01H398.905V1200.52H397.267V1203.01H395.989V1204.36H397.267V1210.17ZM412.212 1203.01H410.574V1208.43C410.574 1210.55 409.44 1211.59 407.748 1211.59C406.092 1211.59 404.994 1210.57 404.994 1208.57V1203.01H403.374V1208.79C403.374 1211.61 405.156 1213.02 407.424 1213.02C408.738 1213.02 409.944 1212.44 410.574 1211.41V1212.87H412.212V1203.01ZM416.616 1207.51C416.616 1205.22 417.804 1204.52 419.37 1204.52H419.802V1202.83C418.236 1202.83 417.174 1203.51 416.616 1204.61V1203.01H414.978V1212.87H416.616V1207.51ZM425.887 1204.23C427.579 1204.23 429.019 1205.29 429.001 1207.22H422.773C422.953 1205.29 424.285 1204.23 425.887 1204.23ZM430.495 1209.83H428.731C428.371 1210.89 427.435 1211.65 425.959 1211.65C424.285 1211.65 422.881 1210.55 422.755 1208.55H430.639C430.675 1208.21 430.693 1207.92 430.693 1207.56C430.693 1204.86 428.821 1202.85 425.959 1202.85C423.079 1202.85 421.081 1204.81 421.081 1207.92C421.081 1211.05 423.151 1213.03 425.959 1213.03C428.407 1213.03 429.991 1211.63 430.495 1209.83Z"
                    fill="#383E45" />
            </g>
            <g id="Group 53">
                <path id="Vector_39"
                    d="M563.178 1226.48H477.406C476.654 1226.48 476.045 1227.61 476.045 1229V1231.52C476.045 1232.91 476.654 1234.03 477.406 1234.03H563.178C563.93 1234.03 564.539 1232.91 564.539 1231.52V1229C564.539 1227.61 563.93 1226.48 563.178 1226.48Z"
                    fill="#7B7B7B" />
                <path id="Feature_10"
                    d="M488.007 1212.87H489.645V1207.22H494.073V1205.89H489.645V1201.66H495.099V1200.33H488.007V1212.87ZM501.271 1204.23C502.963 1204.23 504.403 1205.29 504.385 1207.22H498.157C498.337 1205.29 499.669 1204.23 501.271 1204.23ZM505.879 1209.83H504.115C503.755 1210.89 502.819 1211.65 501.343 1211.65C499.669 1211.65 498.265 1210.55 498.139 1208.55H506.023C506.059 1208.21 506.077 1207.92 506.077 1207.56C506.077 1204.86 504.205 1202.85 501.343 1202.85C498.463 1202.85 496.465 1204.81 496.465 1207.92C496.465 1211.05 498.535 1213.03 501.343 1213.03C503.791 1213.03 505.375 1211.63 505.879 1209.83ZM507.628 1207.9C507.628 1210.96 509.662 1213.03 512.29 1213.03C514.108 1213.03 515.386 1212.1 515.98 1211.04V1212.87H517.636V1203.01H515.98V1204.81C515.404 1203.78 514.144 1202.85 512.308 1202.85C509.662 1202.85 507.628 1204.83 507.628 1207.9ZM515.98 1207.92C515.98 1210.24 514.432 1211.59 512.632 1211.59C510.832 1211.59 509.302 1210.23 509.302 1207.9C509.302 1205.58 510.832 1204.27 512.632 1204.27C514.432 1204.27 515.98 1205.64 515.98 1207.92ZM520.764 1210.17C520.764 1212.15 521.754 1212.87 523.5 1212.87H524.976V1211.49H523.77C522.762 1211.49 522.402 1211.14 522.402 1210.17V1204.36H524.976V1203.01H522.402V1200.52H520.764V1203.01H519.486V1204.36H520.764V1210.17ZM535.708 1203.01H534.07V1208.43C534.07 1210.55 532.936 1211.59 531.244 1211.59C529.588 1211.59 528.49 1210.57 528.49 1208.57V1203.01H526.87V1208.79C526.87 1211.61 528.652 1213.02 530.92 1213.02C532.234 1213.02 533.44 1212.44 534.07 1211.41V1212.87H535.708V1203.01ZM540.112 1207.51C540.112 1205.22 541.3 1204.52 542.866 1204.52H543.298V1202.83C541.732 1202.83 540.67 1203.51 540.112 1204.61V1203.01H538.474V1212.87H540.112V1207.51ZM549.383 1204.23C551.075 1204.23 552.515 1205.29 552.497 1207.22H546.269C546.449 1205.29 547.781 1204.23 549.383 1204.23ZM553.991 1209.83H552.227C551.867 1210.89 550.931 1211.65 549.455 1211.65C547.781 1211.65 546.377 1210.55 546.251 1208.55H554.135C554.171 1208.21 554.189 1207.92 554.189 1207.56C554.189 1204.86 552.317 1202.85 549.455 1202.85C546.575 1202.85 544.577 1204.81 544.577 1207.92C544.577 1211.05 546.647 1213.03 549.455 1213.03C551.903 1213.03 553.487 1211.63 553.991 1209.83Z"
                    fill="#383E45" />
            </g>
        </g>
        <g id="Group 125">
            <rect id="Rectangle 60_4" y="1506.48" width="700" height="154.959" fill="#EEEEEE" />
            <g id="Group 124">
                <path id="Feature_11"
                    d="M313.571 1544.44H315.391V1538.16H320.311V1536.68H315.391V1531.98H321.451V1530.5H313.571V1544.44ZM328.309 1534.84C330.189 1534.84 331.789 1536.02 331.769 1538.16H324.849C325.049 1536.02 326.529 1534.84 328.309 1534.84ZM333.429 1541.06H331.469C331.069 1542.24 330.029 1543.08 328.389 1543.08C326.529 1543.08 324.969 1541.86 324.829 1539.64H333.589C333.629 1539.26 333.649 1538.94 333.649 1538.54C333.649 1535.54 331.569 1533.3 328.389 1533.3C325.189 1533.3 322.969 1535.48 322.969 1538.94C322.969 1542.42 325.269 1544.62 328.389 1544.62C331.109 1544.62 332.869 1543.06 333.429 1541.06ZM335.372 1538.92C335.372 1542.32 337.632 1544.62 340.552 1544.62C342.572 1544.62 343.992 1543.58 344.652 1542.4V1544.44H346.492V1533.48H344.652V1535.48C344.012 1534.34 342.612 1533.3 340.572 1533.3C337.632 1533.3 335.372 1535.5 335.372 1538.92ZM344.652 1538.94C344.652 1541.52 342.932 1543.02 340.932 1543.02C338.932 1543.02 337.232 1541.5 337.232 1538.92C337.232 1536.34 338.932 1534.88 340.932 1534.88C342.932 1534.88 344.652 1536.4 344.652 1538.94ZM349.967 1541.44C349.967 1543.64 351.067 1544.44 353.007 1544.44H354.647V1542.9H353.307C352.187 1542.9 351.787 1542.52 351.787 1541.44V1534.98H354.647V1533.48H351.787V1530.72H349.967V1533.48H348.547V1534.98H349.967V1541.44ZM366.573 1533.48H364.753V1539.5C364.753 1541.86 363.493 1543.02 361.613 1543.02C359.773 1543.02 358.553 1541.88 358.553 1539.66V1533.48H356.753V1539.9C356.753 1543.04 358.733 1544.6 361.253 1544.6C362.713 1544.6 364.053 1543.96 364.753 1542.82V1544.44H366.573V1533.48ZM371.465 1538.48C371.465 1535.94 372.785 1535.16 374.525 1535.16H375.005V1533.28C373.265 1533.28 372.085 1534.04 371.465 1535.26V1533.48H369.645V1544.44H371.465V1538.48ZM381.766 1534.84C383.646 1534.84 385.246 1536.02 385.226 1538.16H378.306C378.506 1536.02 379.986 1534.84 381.766 1534.84ZM386.886 1541.06H384.926C384.526 1542.24 383.486 1543.08 381.846 1543.08C379.986 1543.08 378.426 1541.86 378.286 1539.64H387.046C387.086 1539.26 387.106 1538.94 387.106 1538.54C387.106 1535.54 385.026 1533.3 381.846 1533.3C378.646 1533.3 376.426 1535.48 376.426 1538.94C376.426 1542.42 378.726 1544.62 381.846 1544.62C384.566 1544.62 386.326 1543.06 386.886 1541.06Z"
                    fill="#383E45" />
                <path id="Vector_40"
                    d="M393.387 1558.84H307.615C306.863 1558.84 306.254 1559.51 306.254 1560.35V1561.86C306.254 1562.69 306.863 1563.37 307.615 1563.37H393.387C394.139 1563.37 394.748 1562.69 394.748 1561.86V1560.35C394.748 1559.51 394.139 1558.84 393.387 1558.84Z"
                    fill="#7B7B7B" />
                <rect id="Rectangle 61" x="110.996" y="1583.78" width="74.002" height="63.9587" fill="url(#theme_viin_ecommerce_fashion_s_references_1_id)" />
                <rect id="Rectangle 62" x="211.998" y="1583.78" width="74.002" height="63.9587" fill="url(#theme_viin_ecommerce_fashion_s_references_2_id)" />
                <rect id="Rectangle 63" x="313" y="1583.78" width="74.002" height="63.9587" fill="url(#theme_viin_ecommerce_fashion_s_references_3_id)" />
                <rect id="Rectangle 64" x="414.002" y="1583.78" width="74.002" height="63.9587" fill="url(#theme_viin_ecommerce_fashion_s_references_4_id)" />
                <rect id="Rectangle 65" x="515.002" y="1583.78" width="74.002" height="63.9587" fill="url(#theme_viin_ecommerce_fashion_s_references_5_id)" />
            </g>
        </g>
        <g id="Group 184">
            <g id="Group 183">
                <rect id="Rectangle 193" x="200.352" y="663.219" width="69.2773" height="119.412" rx="3"
                    fill="#D9D9D9" />
                <rect id="Rectangle 194" x="279.023" y="663.219" width="69.2773" height="119.412" rx="3"
                    fill="#D9D9D9" />
                <rect id="Rectangle 195" x="357.699" y="663.219" width="69.2773" height="119.412" rx="3"
                    fill="#D9D9D9" />
                <rect id="Rectangle 196" x="436.371" y="663.219" width="69.2773" height="119.412" rx="3"
                    fill="#D9D9D9" />
            </g>
            <rect id="Rectangle 197" x="293.293" y="804.509" width="119.412" height="39.1964" rx="2" fill="#7C6576" />
        </g>
    </g>
    <defs>
        <clipPath id="clip0_0_1">
            <rect width="700" height="1850" fill="white" transform="translate(0 0.439453)" />
        </clipPath>
        <pattern width="1" height="1" id="theme_viin_ecommerce_fashion_s_carousel_default_image_1_id" patternunits="objectBoundingBox">
            <image width="700" height="310" preserveAspectRatio="xMidYMid slice" href="#s_carousel_default_image_1_url"/>
        </pattern>
        <pattern width="1" height="1" id="theme_viin_ecommerce_fashion_s_three_columns_default_image_1_id" patternunits="objectBoundingBox">
            <image width="195" height="208" preserveAspectRatio="xMidYMid slice" href="#s_three_columns_default_image_1_url"/>
        </pattern>
        <pattern width="1" height="1" id="theme_viin_ecommerce_fashion_s_three_columns_default_image_2_id" patternunits="objectBoundingBox">
            <image width="195" height="208" preserveAspectRatio="xMidYMid slice" href="#s_three_columns_default_image_2_url"/>
        </pattern>
        <pattern width="1" height="1" id="theme_viin_ecommerce_fashion_s_three_columns_default_image_3_id" patternunits="objectBoundingBox">
            <image width="195" height="208" preserveAspectRatio="xMidYMid slice" href="#s_three_columns_default_image_3_url"/>
        </pattern>
        <pattern width="1" height="1" id="theme_viin_ecommerce_fashion_s_references_1_id" patternunits="objectBoundingBox">
            <image width="120" height="60" preserveAspectRatio="xMidYMid slice" href="/web/image/website.s_reference_demo_image_1"/>
        </pattern>
        <pattern width="1" height="1" id="theme_viin_ecommerce_fashion_s_references_2_id" patternunits="objectBoundingBox">
            <image width="120" height="60" preserveAspectRatio="xMidYMid slice" href="/web/image/website.s_reference_demo_image_2"/>
        </pattern>
        <pattern width="1" height="1" id="theme_viin_ecommerce_fashion_s_references_3_id" patternunits="objectBoundingBox">
            <image width="120" height="60" preserveAspectRatio="xMidYMid slice" href="/web/image/website.s_reference_demo_image_3"/>
        </pattern>
        <pattern width="1" height="1" id="theme_viin_ecommerce_fashion_s_references_4_id" patternunits="objectBoundingBox">
            <image width="120" height="60" preserveAspectRatio="xMidYMid slice" href="/web/image/website.s_reference_demo_image_4"/>
        </pattern>
        <pattern width="1" height="1" id="theme_viin_ecommerce_fashion_s_references_5_id" patternunits="objectBoundingBox">
            <image width="120" height="60" preserveAspectRatio="xMidYMid slice" href="/web/image/website.s_reference_demo_image_5"/>
        </pattern>
        <pattern width="1" height="1" id="theme_viin_ecommerce_fashion_library_image_10_id" patternunits="objectBoundingBox">
            <image width="180" height="180" preserveAspectRatio="xMidYMid slice" href="#library_image_10_url"/>
        </pattern>
        <pattern width="1" height="1" id="theme_viin_ecommerce_fashion_library_image_08_id" patternunits="objectBoundingBox">
            <image width="180" height="180" preserveAspectRatio="xMidYMid slice" href="#library_image_05_url"/>
        </pattern>
        <pattern width="1" height="1" id="theme_viin_ecommerce_fashion_library_image_03_id" patternunits="objectBoundingBox">
            <image width="180" height="180" preserveAspectRatio="xMidYMid slice" href="#library_image_08_url"/>
        </pattern>
        <pattern width="1" height="1" id="theme_viin_ecommerce_fashion_library_image_13_id" patternunits="objectBoundingBox">
            <image width="180" height="180" preserveAspectRatio="xMidYMid slice" href="#library_image_13_url"/>
        </pattern>
    </defs>
</svg>