<svg width="701" height="1851" viewBox="0 0 701 1851" fill="none" xmlns="http://www.w3.org/2000/svg">
    <rect width="701" height="1851" fill="#F5F5F5" />
    <g id="theme_ecommerce_houseware 1" clip-path="url(#clip0_0_1)">
        <g id="Theme_preview">
            <path id="Vector" d="M700.121 0.439453H0.121094V1850.44H700.121V0.439453Z" fill="white" />
            <g id="Group">
                <path id="Vector_2" d="M700.121 0.439453H0.121094V37.4395H700.121V0.439453Z" fill="#3AADAA" />
                <path id="Vector_3"
                    d="M76.4659 23.4392V21.9182H72.7249V14.7122H70.8799V23.4392H76.4659ZM81.1459 23.5592C81.9159 23.5592 82.6089 23.3832 83.2259 23.0322C83.8449 22.6822 84.3329 22.1722 84.6929 21.5042C85.0529 20.8372 85.2319 20.0272 85.2319 19.0752C85.2319 18.1242 85.0519 17.3142 84.6919 16.6462C84.3329 15.9792 83.8449 15.4702 83.2269 15.1192C82.6089 14.7682 81.9149 14.5922 81.1449 14.5922C80.3699 14.5922 79.6739 14.7682 79.0569 15.1192C78.4409 15.4692 77.9529 15.9792 77.5959 16.6462C77.2379 17.3142 77.0589 18.1242 77.0589 19.0762C77.0589 20.0242 77.2379 20.8322 77.5959 21.5002C77.9261 22.1398 78.4332 22.6709 79.0569 23.0302C79.6739 23.3822 80.3699 23.5582 81.1449 23.5582L81.1459 23.5592ZM81.1459 21.9262C80.7326 21.9354 80.326 21.8212 79.9779 21.5982C79.6449 21.3792 79.3879 21.0582 79.2039 20.6352C79.0209 20.2122 78.9289 19.6922 78.9289 19.0752C78.9289 18.4592 79.0209 17.9392 79.2039 17.5152C79.3869 17.0922 79.6449 16.7712 79.9779 16.5532C80.3256 16.3302 80.7319 16.216 81.1449 16.2252C81.5909 16.2252 81.9799 16.3342 82.3129 16.5532C82.6449 16.7712 82.9029 17.0932 83.0859 17.5162C83.2699 17.9392 83.3609 18.4592 83.3609 19.0762C83.3609 19.6922 83.2699 20.2122 83.0859 20.6352C82.9029 21.0582 82.6459 21.3792 82.3129 21.5982C81.9649 21.8215 81.5582 21.9357 81.1449 21.9262H81.1459ZM90.4229 23.5582C91.1559 23.5582 91.8069 23.4102 92.3749 23.1132C92.9328 22.8261 93.397 22.3854 93.7129 21.8432C94.0369 21.2932 94.1989 20.6352 94.1989 19.8682V18.7682H90.5469V20.1582H92.4189L92.4149 20.2842C92.3979 20.5212 92.3449 20.7362 92.2579 20.9292L92.1849 21.0692C92.0257 21.3435 91.7882 21.5639 91.5029 21.7022C91.2069 21.8522 90.8489 21.9262 90.4319 21.9262C89.9719 21.9262 89.5719 21.8152 89.2339 21.5922C88.8959 21.3692 88.6339 21.0442 88.4499 20.6182C88.2659 20.1922 88.1729 19.6752 88.1729 19.0672C88.1729 18.4592 88.2669 17.9442 88.4539 17.5222C88.6419 17.1002 88.9039 16.7782 89.2409 16.5572C89.5904 16.332 89.9992 16.2164 90.4149 16.2252C90.6529 16.2252 90.8709 16.2552 91.0689 16.3142C91.2659 16.3742 91.4419 16.4602 91.5969 16.5722C91.7519 16.6842 91.8829 16.8202 91.9909 16.9812C92.0989 17.1412 92.1829 17.3252 92.2429 17.5332H94.1179C94.0628 17.1146 93.9251 16.7112 93.7129 16.3462C93.5038 15.9871 93.2282 15.6711 92.9009 15.4152C92.5605 15.1488 92.1764 14.9435 91.7659 14.8082C91.3204 14.6614 90.8539 14.5884 90.3849 14.5922C89.8346 14.5872 89.2886 14.6902 88.7779 14.8952C88.2872 15.0943 87.8442 15.3949 87.4779 15.7772C87.0939 16.1829 86.7986 16.6641 86.6109 17.1902C86.4049 17.7452 86.3019 18.3762 86.3019 19.0842C86.3019 20.0042 86.4749 20.7992 86.8199 21.4682C87.1423 22.113 87.645 22.6504 88.2669 23.0152C88.8869 23.3772 89.6049 23.5582 90.4229 23.5582ZM99.3809 23.5582C100.151 23.5582 100.844 23.3832 101.462 23.0322C102.08 22.6822 102.569 22.1722 102.928 21.5042C103.288 20.8372 103.468 20.0272 103.468 19.0752C103.468 18.1242 103.288 17.3142 102.928 16.6462C102.568 15.9792 102.08 15.4702 101.462 15.1192C100.844 14.7682 100.151 14.5922 99.3809 14.5922C98.6049 14.5922 97.9089 14.7682 97.2929 15.1192C96.6759 15.4692 96.1889 15.9792 95.8309 16.6462C95.4729 17.3142 95.2939 18.1242 95.2939 19.0762C95.2939 20.0242 95.4729 20.8322 95.8309 21.5002C96.1889 22.1682 96.6759 22.6782 97.2929 23.0302C97.9089 23.3822 98.6049 23.5582 99.3809 23.5582ZM99.3809 21.9262C98.9349 21.9262 98.5449 21.8162 98.2129 21.5982C97.8809 21.3792 97.6229 21.0582 97.4399 20.6352C97.2559 20.2122 97.1649 19.6922 97.1649 19.0752C97.1649 18.4592 97.2559 17.9392 97.4399 17.5152C97.6229 17.0922 97.8799 16.7712 98.2129 16.5532C98.5608 16.33 98.9676 16.2158 99.3809 16.2252C99.8269 16.2252 100.216 16.3342 100.548 16.5532C100.881 16.7712 101.138 17.0932 101.322 17.5162C101.505 17.9392 101.597 18.4592 101.597 19.0762C101.597 19.6922 101.505 20.2122 101.322 20.6352C101.138 21.0582 100.881 21.3792 100.548 21.5982C100.2 21.8213 99.7939 21.9355 99.3809 21.9262Z"
                    fill="black" />
                <g id="Group_2" opacity="0.6">
                    <path id="Vector_4" d="M282.121 15.4392H245.121V22.4392H282.121V15.4392Z" fill="black" />
                    <path id="Vector_5" d="M340.121 15.4392H303.121V22.4392H340.121V15.4392Z" fill="black" />
                    <path id="Vector_6" d="M398.121 15.4392H361.121V22.4392H398.121V15.4392Z" fill="black" />
                    <path id="Vector_7" d="M456.121 15.4392H419.121V22.4392H456.121V15.4392Z" fill="black" />
                </g>
                <path id="Vector_8" d="M630.121 15.4392H593.121V22.4392H630.121V15.4392Z" fill="black" />
            </g>
            <g id="Group_3">
                <path id="Vector_9" d="M700.121 1661.44H0.121094V1850.44H700.121V1661.44Z" fill="black" />
                <g id="Group_4">
                    <g id="Group_5">
                        <g id="Group_6">
                            <path id="Vector_10"
                                d="M490.119 1798.13C494.261 1798.13 497.619 1792.46 497.619 1785.47C497.619 1778.48 494.261 1772.81 490.119 1772.81C485.977 1772.81 482.619 1778.48 482.619 1785.47C482.619 1792.46 485.977 1798.13 490.119 1798.13Z"
                                fill="black" />
                            <path id="Vector_11"
                                d="M518.119 1798.13C522.261 1798.13 525.619 1792.46 525.619 1785.47C525.619 1778.48 522.261 1772.81 518.119 1772.81C513.977 1772.81 510.619 1778.48 510.619 1785.47C510.619 1792.46 513.977 1798.13 518.119 1798.13Z"
                                fill="black" />
                            <path id="Vector_12"
                                d="M546.119 1798.13C550.261 1798.13 553.619 1792.46 553.619 1785.47C553.619 1778.48 550.261 1772.81 546.119 1772.81C541.977 1772.81 538.619 1778.48 538.619 1785.47C538.619 1792.46 541.977 1798.13 546.119 1798.13Z"
                                fill="black" />
                        </g>
                        <g id="Group_7">
                            <path id="Vector_13" d="M303.12 1779.56H210.12V1782.94H303.12V1779.56Z" fill="black" />
                            <path id="Vector_14" d="M288.12 1788H210.12V1791.38H288.12V1788Z" fill="black" />
                        </g>
                        <g id="Group_8">
                            <path id="Vector_15" d="M117.12 1779.56H70.1201V1782.94H117.12V1779.56Z" fill="black" />
                            <path id="Vector_16" d="M109.12 1788H70.1201V1791.38H109.12V1788Z" fill="black" />
                        </g>
                    </g>
                    <g id="Group_9">
                        <g id="Group_10" opacity="0.6">
                            <g id="Group_11">
                                <path id="Vector_17" d="M394.118 1713.75H210.118V1717.13H394.118V1713.75Z"
                                    fill="black" />
                                <path id="Vector_18" d="M379.118 1722.19H210.118V1725.56H379.118V1722.19Z"
                                    fill="black" />
                                <path id="Vector_19" d="M289.118 1730.63H210.118V1734H289.118V1730.63Z" fill="black" />
                                <path id="Vector_20" d="M301.118 1739.06H210.118V1742.44H301.118V1739.06Z"
                                    fill="black" />
                            </g>
                        </g>
                        <path id="Entry Title"
                            d="M71.5695 1726.69V1713.59H80.3983V1715.87H74.3397V1718.99H79.9441V1721.28H74.3397V1724.41H80.4239V1726.69H71.5695ZM85.275 1721.01V1726.69H82.5496V1716.86H85.1471V1718.6H85.2622C85.4797 1718.02 85.8444 1717.57 86.3562 1717.24C86.868 1716.9 87.4886 1716.73 88.218 1716.73C88.9004 1716.73 89.4954 1716.88 90.0029 1717.18C90.5105 1717.48 90.905 1717.91 91.1865 1718.46C91.468 1719.01 91.6088 1719.67 91.6088 1720.43V1726.69H88.8833V1720.92C88.8876 1720.32 88.734 1719.85 88.4227 1719.51C88.1113 1719.17 87.6827 1719 87.1367 1719C86.7699 1719 86.4458 1719.08 86.1643 1719.24C85.8871 1719.39 85.6695 1719.62 85.5117 1719.93C85.3582 1720.23 85.2793 1720.59 85.275 1721.01ZM98.9838 1716.86V1718.91H93.0658V1716.86H98.9838ZM94.4094 1714.51H97.1348V1723.67C97.1348 1723.92 97.1732 1724.12 97.25 1724.26C97.3267 1724.39 97.4334 1724.49 97.5699 1724.55C97.7106 1724.6 97.8727 1724.63 98.0561 1724.63C98.184 1724.63 98.312 1724.62 98.4399 1724.6C98.5679 1724.57 98.666 1724.55 98.7342 1724.54L99.1629 1726.57C99.0264 1726.61 98.8345 1726.66 98.5871 1726.72C98.3397 1726.77 98.039 1726.81 97.685 1726.82C97.0282 1726.85 96.4524 1726.76 95.9576 1726.56C95.4671 1726.36 95.0854 1726.05 94.8124 1725.63C94.5395 1725.21 94.4051 1724.67 94.4094 1724.03V1714.51ZM100.759 1726.69V1716.86H103.401V1718.58H103.504C103.683 1717.97 103.984 1717.51 104.406 1717.2C104.828 1716.88 105.314 1716.72 105.865 1716.72C106.001 1716.72 106.148 1716.73 106.306 1716.75C106.464 1716.76 106.602 1716.79 106.722 1716.82V1719.24C106.594 1719.2 106.417 1719.16 106.191 1719.13C105.965 1719.1 105.758 1719.09 105.57 1719.09C105.169 1719.09 104.811 1719.18 104.495 1719.35C104.184 1719.52 103.937 1719.76 103.753 1720.07C103.574 1720.37 103.485 1720.73 103.485 1721.13V1726.69H100.759ZM110.113 1730.37C109.767 1730.37 109.443 1730.35 109.14 1730.29C108.842 1730.24 108.594 1730.17 108.398 1730.09L109.012 1728.06C109.332 1728.16 109.62 1728.21 109.876 1728.22C110.136 1728.23 110.36 1728.17 110.548 1728.04C110.74 1727.91 110.895 1727.69 111.015 1727.39L111.175 1726.97L107.649 1716.86H110.516L112.55 1724.08H112.653L114.706 1716.86H117.592L113.772 1727.75C113.589 1728.28 113.339 1728.74 113.024 1729.13C112.712 1729.53 112.318 1729.84 111.84 1730.05C111.362 1730.27 110.787 1730.37 110.113 1730.37ZM122.708 1715.87V1713.59H133.469V1715.87H129.458V1726.69H126.72V1715.87H122.708ZM135.19 1726.69V1716.86H137.916V1726.69H135.19ZM136.559 1715.6C136.154 1715.6 135.806 1715.46 135.516 1715.19C135.231 1714.92 135.088 1714.59 135.088 1714.21C135.088 1713.84 135.231 1713.52 135.516 1713.25C135.806 1712.97 136.154 1712.84 136.559 1712.84C136.964 1712.84 137.31 1712.97 137.596 1713.25C137.886 1713.52 138.031 1713.84 138.031 1714.21C138.031 1714.59 137.886 1714.92 137.596 1715.19C137.31 1715.46 136.964 1715.6 136.559 1715.6ZM145.326 1716.86V1718.91H139.408V1716.86H145.326ZM140.751 1714.51H143.477V1723.67C143.477 1723.92 143.515 1724.12 143.592 1724.26C143.669 1724.39 143.775 1724.49 143.912 1724.55C144.053 1724.6 144.215 1724.63 144.398 1724.63C144.526 1724.63 144.654 1724.62 144.782 1724.6C144.91 1724.57 145.008 1724.55 145.076 1724.54L145.505 1726.57C145.368 1726.61 145.176 1726.66 144.929 1726.72C144.682 1726.77 144.381 1726.81 144.027 1726.82C143.37 1726.85 142.794 1726.76 142.3 1726.56C141.809 1726.36 141.427 1726.05 141.154 1725.63C140.881 1725.21 140.747 1724.67 140.751 1724.03V1714.51ZM150.038 1713.59V1726.69H147.312V1713.59H150.038ZM156.699 1726.88C155.688 1726.88 154.818 1726.68 154.089 1726.27C153.364 1725.85 152.805 1725.27 152.413 1724.51C152.02 1723.76 151.824 1722.86 151.824 1721.82C151.824 1720.81 152.02 1719.92 152.413 1719.16C152.805 1718.4 153.358 1717.8 154.07 1717.37C154.786 1716.95 155.627 1716.73 156.591 1716.73C157.239 1716.73 157.842 1716.84 158.401 1717.05C158.964 1717.25 159.455 1717.56 159.873 1717.98C160.295 1718.39 160.623 1718.91 160.858 1719.54C161.092 1720.16 161.21 1720.89 161.21 1721.72V1722.47H152.912V1720.78H158.644C158.644 1720.39 158.559 1720.04 158.388 1719.74C158.218 1719.44 157.981 1719.2 157.678 1719.03C157.38 1718.86 157.032 1718.77 156.635 1718.77C156.222 1718.77 155.855 1718.87 155.535 1719.06C155.219 1719.24 154.972 1719.5 154.793 1719.82C154.614 1720.13 154.522 1720.49 154.518 1720.87V1722.48C154.518 1722.97 154.607 1723.39 154.786 1723.74C154.97 1724.09 155.228 1724.37 155.561 1724.56C155.893 1724.75 156.288 1724.85 156.744 1724.85C157.047 1724.85 157.324 1724.8 157.576 1724.72C157.827 1724.63 158.043 1724.51 158.222 1724.34C158.401 1724.16 158.538 1723.96 158.631 1723.71L161.152 1723.87C161.024 1724.48 160.762 1725.01 160.365 1725.46C159.973 1725.91 159.465 1726.26 158.843 1726.51C158.224 1726.76 157.51 1726.88 156.699 1726.88Z"
                            fill="black" />
                    </g>
                </g>
            </g>
            <g id="Group 1">
                <g id="Group 2">
                    <rect id="Rectangle 1" x="0.121094" y="37.4395" width="700" height="265" fill="url(#theme_viin_ecommerce_houseware_s_carousel_default_image_1_id)" class="img_reference_s_carousel_default_image_1" />
                    <g id="Group_12">
                        <g id="Group_13">
                            <rect id="Rectangle 2" x="310.123" y="195.439" width="86" height="31" rx="6.00534"
                                fill="#EEEEEE" />
                            <path id="Button"
                                d="M338.471 211.446H336.307L336.295 210.537H338.26C338.584 210.537 338.868 210.482 339.11 210.372C339.353 210.263 339.54 210.107 339.673 209.903C339.81 209.696 339.878 209.45 339.878 209.164C339.878 208.852 339.818 208.597 339.697 208.402C339.579 208.203 339.397 208.058 339.151 207.968C338.909 207.874 338.6 207.827 338.225 207.827H336.559V215.439H335.427V206.901H338.225C338.662 206.901 339.053 206.946 339.397 207.035C339.742 207.122 340.033 207.258 340.271 207.446C340.514 207.63 340.697 207.864 340.823 208.15C340.948 208.435 341.01 208.777 341.01 209.176C341.01 209.528 340.92 209.847 340.74 210.132C340.561 210.414 340.31 210.644 339.99 210.824C339.673 211.004 339.302 211.119 338.876 211.17L338.471 211.446ZM338.418 215.439H335.861L336.5 214.519H338.418C338.778 214.519 339.083 214.456 339.333 214.331C339.587 214.206 339.781 214.03 339.914 213.803C340.047 213.573 340.113 213.301 340.113 212.988C340.113 212.671 340.056 212.398 339.943 212.167C339.83 211.936 339.652 211.758 339.409 211.633C339.167 211.508 338.854 211.446 338.471 211.446H336.858L336.87 210.537H339.075L339.315 210.865C339.726 210.9 340.074 211.018 340.359 211.217C340.645 211.412 340.862 211.663 341.01 211.968C341.163 212.273 341.239 212.609 341.239 212.976C341.239 213.508 341.122 213.958 340.887 214.325C340.656 214.689 340.33 214.966 339.908 215.158C339.485 215.346 338.989 215.439 338.418 215.439ZM346.629 213.973V209.094H347.719V215.439H346.681L346.629 213.973ZM346.834 212.636L347.285 212.624C347.285 213.047 347.24 213.438 347.15 213.797C347.064 214.153 346.924 214.462 346.728 214.724C346.533 214.986 346.277 215.191 345.96 215.34C345.643 215.484 345.258 215.557 344.805 215.557C344.496 215.557 344.212 215.512 343.954 215.422C343.7 215.332 343.481 215.193 343.297 215.005C343.114 214.818 342.971 214.573 342.869 214.272C342.772 213.971 342.723 213.61 342.723 213.187V209.094H343.808V213.199C343.808 213.485 343.839 213.721 343.902 213.909C343.968 214.093 344.056 214.239 344.165 214.349C344.279 214.454 344.404 214.528 344.541 214.571C344.681 214.615 344.826 214.636 344.975 214.636C345.436 214.636 345.802 214.548 346.071 214.372C346.341 214.192 346.535 213.952 346.652 213.651C346.773 213.346 346.834 213.008 346.834 212.636ZM352.03 209.094V209.927H348.599V209.094H352.03ZM349.76 207.552H350.845V213.868C350.845 214.083 350.878 214.245 350.945 214.355C351.011 214.464 351.097 214.536 351.203 214.571C351.308 214.607 351.422 214.624 351.543 214.624C351.633 214.624 351.727 214.616 351.825 214.601C351.926 214.581 352.002 214.566 352.053 214.554L352.059 215.439C351.973 215.467 351.86 215.492 351.719 215.516C351.582 215.543 351.416 215.557 351.221 215.557C350.955 215.557 350.71 215.504 350.487 215.398C350.265 215.293 350.087 215.117 349.954 214.871C349.825 214.62 349.76 214.284 349.76 213.862V207.552ZM355.959 209.094V209.927H352.528V209.094H355.959ZM353.69 207.552H354.774V213.868C354.774 214.083 354.808 214.245 354.874 214.355C354.941 214.464 355.027 214.536 355.132 214.571C355.238 214.607 355.351 214.624 355.472 214.624C355.562 214.624 355.656 214.616 355.754 214.601C355.855 214.581 355.932 214.566 355.983 214.554L355.988 215.439C355.902 215.467 355.789 215.492 355.648 215.516C355.511 215.543 355.345 215.557 355.15 215.557C354.884 215.557 354.64 215.504 354.417 215.398C354.194 215.293 354.016 215.117 353.883 214.871C353.754 214.62 353.69 214.284 353.69 213.862V207.552ZM356.827 212.337V212.202C356.827 211.745 356.894 211.321 357.026 210.93C357.159 210.535 357.351 210.193 357.601 209.903C357.851 209.61 358.154 209.383 358.51 209.223C358.866 209.059 359.265 208.977 359.707 208.977C360.152 208.977 360.553 209.059 360.909 209.223C361.269 209.383 361.573 209.61 361.824 209.903C362.078 210.193 362.271 210.535 362.404 210.93C362.537 211.321 362.604 211.745 362.604 212.202V212.337C362.604 212.795 362.537 213.219 362.404 213.61C362.271 214.001 362.078 214.343 361.824 214.636C361.573 214.925 361.27 215.152 360.915 215.316C360.563 215.477 360.164 215.557 359.718 215.557C359.273 215.557 358.872 215.477 358.516 215.316C358.16 215.152 357.855 214.925 357.601 214.636C357.351 214.343 357.159 214.001 357.026 213.61C356.894 213.219 356.827 212.795 356.827 212.337ZM357.912 212.202V212.337C357.912 212.654 357.949 212.953 358.023 213.234C358.098 213.512 358.209 213.758 358.358 213.973C358.51 214.188 358.7 214.358 358.927 214.484C359.153 214.605 359.417 214.665 359.718 214.665C360.015 214.665 360.275 214.605 360.498 214.484C360.725 214.358 360.913 214.188 361.061 213.973C361.21 213.758 361.321 213.512 361.396 213.234C361.474 212.953 361.513 212.654 361.513 212.337V212.202C361.513 211.889 361.474 211.594 361.396 211.317C361.321 211.035 361.208 210.787 361.055 210.572C360.907 210.353 360.719 210.181 360.492 210.056C360.27 209.931 360.008 209.868 359.707 209.868C359.409 209.868 359.147 209.931 358.921 210.056C358.698 210.181 358.51 210.353 358.358 210.572C358.209 210.787 358.098 211.035 358.023 211.317C357.949 211.594 357.912 211.889 357.912 212.202ZM365.049 210.449V215.439H363.964V209.094H364.991L365.049 210.449ZM364.791 212.026L364.34 212.009C364.344 211.575 364.408 211.174 364.533 210.806C364.658 210.435 364.834 210.112 365.061 209.839C365.288 209.565 365.557 209.354 365.87 209.205C366.187 209.053 366.537 208.977 366.92 208.977C367.233 208.977 367.514 209.02 367.765 209.106C368.015 209.188 368.228 209.321 368.404 209.504C368.584 209.688 368.72 209.927 368.814 210.22C368.908 210.509 368.955 210.863 368.955 211.281V215.439H367.864V211.27C367.864 210.937 367.815 210.672 367.718 210.472C367.62 210.269 367.477 210.122 367.289 210.032C367.102 209.938 366.871 209.892 366.597 209.892C366.328 209.892 366.081 209.948 365.859 210.062C365.64 210.175 365.45 210.331 365.29 210.531C365.133 210.73 365.01 210.959 364.92 211.217C364.834 211.471 364.791 211.741 364.791 212.026Z"
                                fill="#EEEEEE" />
                        </g>
                        <path id="Headline"
                            d="M282.547 120.412V124.758H268.433V120.412H282.547ZM270.086 109.4V136.439H264.515V109.4H270.086ZM286.522 109.4V136.439H280.969V109.4H286.522ZM300.283 136.811C298.723 136.811 297.324 136.563 296.086 136.068C294.848 135.56 293.795 134.861 292.929 133.969C292.074 133.078 291.418 132.044 290.96 130.868C290.502 129.679 290.273 128.416 290.273 127.079V126.336C290.273 124.814 290.49 123.421 290.923 122.158C291.356 120.895 291.975 119.799 292.78 118.871C293.597 117.942 294.588 117.23 295.752 116.735C296.915 116.228 298.228 115.974 299.689 115.974C301.112 115.974 302.375 116.209 303.477 116.679C304.579 117.15 305.501 117.818 306.244 118.685C307 119.552 307.569 120.592 307.953 121.805C308.337 123.006 308.529 124.343 308.529 125.816V128.045H292.557V124.479H303.273V124.071C303.273 123.328 303.137 122.666 302.864 122.084C302.604 121.489 302.208 121.019 301.676 120.672C301.143 120.326 300.462 120.152 299.633 120.152C298.927 120.152 298.321 120.307 297.813 120.617C297.305 120.926 296.891 121.359 296.569 121.917C296.259 122.474 296.024 123.13 295.863 123.885C295.714 124.628 295.64 125.445 295.64 126.336V127.079C295.64 127.884 295.752 128.627 295.974 129.308C296.21 129.989 296.538 130.577 296.959 131.072C297.392 131.567 297.912 131.951 298.519 132.224C299.138 132.496 299.837 132.632 300.617 132.632C301.583 132.632 302.481 132.446 303.31 132.075C304.152 131.691 304.876 131.115 305.483 130.348L308.083 133.171C307.662 133.777 307.086 134.359 306.356 134.916C305.638 135.474 304.771 135.932 303.756 136.291C302.741 136.637 301.583 136.811 300.283 136.811ZM322.42 131.908V122.957C322.42 122.313 322.315 121.762 322.104 121.304C321.894 120.833 321.566 120.468 321.12 120.208C320.687 119.948 320.123 119.818 319.43 119.818C318.836 119.818 318.322 119.923 317.888 120.134C317.455 120.332 317.121 120.623 316.886 121.007C316.65 121.378 316.533 121.817 316.533 122.325H311.184C311.184 121.471 311.382 120.66 311.779 119.892C312.175 119.125 312.75 118.45 313.506 117.868C314.261 117.274 315.158 116.809 316.198 116.475C317.251 116.141 318.427 115.974 319.727 115.974C321.287 115.974 322.674 116.234 323.887 116.754C325.1 117.274 326.054 118.054 326.747 119.094C327.453 120.134 327.805 121.434 327.805 122.994V131.592C327.805 132.694 327.874 133.598 328.01 134.304C328.146 134.997 328.344 135.604 328.604 136.123V136.439H323.2C322.94 135.894 322.742 135.214 322.606 134.396C322.482 133.567 322.42 132.737 322.42 131.908ZM323.126 124.201L323.163 127.228H320.173C319.467 127.228 318.854 127.308 318.334 127.469C317.814 127.63 317.387 127.859 317.053 128.156C316.718 128.441 316.471 128.775 316.31 129.159C316.161 129.543 316.087 129.964 316.087 130.422C316.087 130.88 316.192 131.295 316.403 131.666C316.613 132.025 316.917 132.31 317.313 132.521C317.709 132.719 318.173 132.818 318.706 132.818C319.51 132.818 320.21 132.657 320.804 132.335C321.398 132.013 321.856 131.617 322.178 131.146C322.513 130.676 322.686 130.23 322.698 129.809L324.11 132.075C323.912 132.583 323.639 133.109 323.293 133.654C322.958 134.198 322.531 134.712 322.011 135.195C321.491 135.665 320.866 136.055 320.136 136.365C319.405 136.662 318.538 136.811 317.536 136.811C316.26 136.811 315.103 136.557 314.063 136.049C313.035 135.529 312.218 134.817 311.611 133.914C311.017 132.997 310.72 131.957 310.72 130.794C310.72 129.741 310.918 128.806 311.314 127.989C311.71 127.172 312.292 126.485 313.06 125.928C313.84 125.358 314.812 124.931 315.976 124.646C317.139 124.349 318.489 124.201 320.024 124.201H323.126ZM343.795 132.056V107.914H349.181V136.439H344.334L343.795 132.056ZM331.093 126.634V126.244C331.093 124.708 331.266 123.316 331.613 122.065C331.959 120.802 332.467 119.719 333.135 118.815C333.804 117.911 334.627 117.212 335.605 116.717C336.583 116.221 337.698 115.974 338.948 115.974C340.124 115.974 341.152 116.221 342.031 116.717C342.922 117.212 343.678 117.918 344.297 118.834C344.928 119.738 345.436 120.808 345.82 122.047C346.203 123.272 346.482 124.616 346.655 126.076V126.931C346.482 128.33 346.203 129.63 345.82 130.831C345.436 132.032 344.928 133.084 344.297 133.988C343.678 134.879 342.922 135.573 342.031 136.068C341.14 136.563 340.1 136.811 338.911 136.811C337.661 136.811 336.546 136.557 335.568 136.049C334.603 135.542 333.785 134.83 333.117 133.914C332.461 132.997 331.959 131.92 331.613 130.682C331.266 129.444 331.093 128.095 331.093 126.634ZM336.441 126.244V126.634C336.441 127.463 336.503 128.237 336.627 128.955C336.763 129.673 336.98 130.311 337.277 130.868C337.586 131.413 337.982 131.84 338.465 132.149C338.961 132.446 339.561 132.595 340.267 132.595C341.183 132.595 341.938 132.391 342.532 131.982C343.127 131.561 343.579 130.985 343.888 130.255C344.21 129.525 344.396 128.683 344.445 127.729V125.296C344.408 124.516 344.297 123.817 344.111 123.198C343.938 122.567 343.678 122.028 343.331 121.582C342.997 121.137 342.576 120.79 342.068 120.542C341.573 120.295 340.985 120.171 340.304 120.171C339.611 120.171 339.016 120.332 338.521 120.654C338.026 120.963 337.623 121.39 337.314 121.935C337.017 122.48 336.794 123.124 336.645 123.867C336.509 124.597 336.441 125.389 336.441 126.244ZM359.005 107.914V136.439H353.638V107.914H359.005ZM369.071 116.345V136.439H363.704V116.345H369.071ZM363.369 111.108C363.369 110.328 363.642 109.684 364.186 109.177C364.731 108.669 365.462 108.415 366.378 108.415C367.282 108.415 368.006 108.669 368.551 109.177C369.108 109.684 369.386 110.328 369.386 111.108C369.386 111.888 369.108 112.532 368.551 113.039C368.006 113.547 367.282 113.801 366.378 113.801C365.462 113.801 364.731 113.547 364.186 113.039C363.642 112.532 363.369 111.888 363.369 111.108ZM378.728 120.635V136.439H373.379V116.345H378.393L378.728 120.635ZM377.948 125.686H376.499C376.499 124.201 376.691 122.864 377.075 121.675C377.459 120.474 377.997 119.453 378.691 118.611C379.384 117.757 380.207 117.107 381.161 116.661C382.126 116.203 383.203 115.974 384.392 115.974C385.333 115.974 386.193 116.11 386.973 116.382C387.753 116.655 388.422 117.088 388.979 117.682C389.549 118.277 389.982 119.063 390.279 120.041C390.589 121.019 390.743 122.214 390.743 123.625V136.439H385.358V123.607C385.358 122.715 385.234 122.022 384.986 121.527C384.739 121.031 384.373 120.685 383.89 120.487C383.42 120.276 382.838 120.171 382.145 120.171C381.427 120.171 380.801 120.313 380.269 120.598C379.749 120.883 379.316 121.279 378.969 121.787C378.635 122.282 378.381 122.864 378.208 123.532C378.034 124.201 377.948 124.919 377.948 125.686ZM404.059 136.811C402.499 136.811 401.1 136.563 399.862 136.068C398.624 135.56 397.571 134.861 396.705 133.969C395.85 133.078 395.194 132.044 394.736 130.868C394.278 129.679 394.049 128.416 394.049 127.079V126.336C394.049 124.814 394.266 123.421 394.699 122.158C395.132 120.895 395.751 119.799 396.556 118.871C397.373 117.942 398.364 117.23 399.527 116.735C400.691 116.228 402.004 115.974 403.465 115.974C404.888 115.974 406.151 116.209 407.253 116.679C408.355 117.15 409.277 117.818 410.02 118.685C410.775 119.552 411.345 120.592 411.729 121.805C412.113 123.006 412.304 124.343 412.304 125.816V128.045H396.333V124.479H407.049V124.071C407.049 123.328 406.913 122.666 406.64 122.084C406.38 121.489 405.984 121.019 405.452 120.672C404.919 120.326 404.238 120.152 403.409 120.152C402.703 120.152 402.096 120.307 401.589 120.617C401.081 120.926 400.666 121.359 400.345 121.917C400.035 122.474 399.8 123.13 399.639 123.885C399.49 124.628 399.416 125.445 399.416 126.336V127.079C399.416 127.884 399.527 128.627 399.75 129.308C399.986 129.989 400.314 130.577 400.735 131.072C401.168 131.567 401.688 131.951 402.295 132.224C402.914 132.496 403.613 132.632 404.393 132.632C405.359 132.632 406.256 132.446 407.086 132.075C407.928 131.691 408.652 131.115 409.259 130.348L411.859 133.171C411.438 133.777 410.862 134.359 410.132 134.916C409.414 135.474 408.547 135.932 407.532 136.291C406.516 136.637 405.359 136.811 404.059 136.811Z"
                            fill="#EEEEEE" />
                    </g>
                </g>
            </g>
        </g>
        <g id="Group 3">
            <g id="Group 6">
                <g id="Group_14">
                    <g id="Group_15">
                        <g id="Group 4">
                            <rect id="Rectangle 11" x="239.333" y="335.738" width="221.197" height="146.13" rx="3.00267"
                                fill="url(#theme_viin_ecommerce_houseware_s_three_columns_default_image_2_id)" class="img_reference_s_three_columns_default_image_2" />
                            <rect id="Rectangle 3" x="239.583" y="335.988" width="220.488" height="258.145" rx="2.75245"
                                stroke="#DFDFDF" stroke-width="0.500445" />
                        </g>
                        <path id="Feature"
                            d="M322.3 508.286H323.665V503.576H327.355V502.466H323.665V498.941H328.21V497.831H322.3V508.286ZM333.353 501.086C334.763 501.086 335.963 501.971 335.948 503.576H330.758C330.908 501.971 332.018 501.086 333.353 501.086ZM337.193 505.751H335.723C335.423 506.636 334.643 507.266 333.413 507.266C332.018 507.266 330.848 506.351 330.743 504.686H337.313C337.343 504.401 337.358 504.161 337.358 503.861C337.358 501.611 335.798 499.931 333.413 499.931C331.013 499.931 329.348 501.566 329.348 504.161C329.348 506.771 331.073 508.421 333.413 508.421C335.453 508.421 336.773 507.251 337.193 505.751ZM338.65 504.146C338.65 506.696 340.345 508.421 342.535 508.421C344.05 508.421 345.115 507.641 345.61 506.756V508.286H346.99V500.066H345.61V501.566C345.13 500.711 344.08 499.931 342.55 499.931C340.345 499.931 338.65 501.581 338.65 504.146ZM345.61 504.161C345.61 506.096 344.32 507.221 342.82 507.221C341.32 507.221 340.045 506.081 340.045 504.146C340.045 502.211 341.32 501.116 342.82 501.116C344.32 501.116 345.61 502.256 345.61 504.161ZM349.597 506.036C349.597 507.686 350.422 508.286 351.877 508.286H353.107V507.131H352.102C351.262 507.131 350.962 506.846 350.962 506.036V501.191H353.107V500.066H350.962V497.996H349.597V500.066H348.532V501.191H349.597V506.036ZM362.05 500.066H360.685V504.581C360.685 506.351 359.74 507.221 358.33 507.221C356.95 507.221 356.035 506.366 356.035 504.701V500.066H354.685V504.881C354.685 507.236 356.17 508.406 358.06 508.406C359.155 508.406 360.16 507.926 360.685 507.071V508.286H362.05V500.066ZM365.72 503.816C365.72 501.911 366.71 501.326 368.015 501.326H368.375V499.916C367.07 499.916 366.185 500.486 365.72 501.401V500.066H364.355V508.286H365.72V503.816ZM373.446 501.086C374.856 501.086 376.056 501.971 376.041 503.576H370.851C371.001 501.971 372.111 501.086 373.446 501.086ZM377.286 505.751H375.816C375.516 506.636 374.736 507.266 373.506 507.266C372.111 507.266 370.941 506.351 370.836 504.686H377.406C377.436 504.401 377.451 504.161 377.451 503.861C377.451 501.611 375.891 499.931 373.506 499.931C371.106 499.931 369.441 501.566 369.441 504.161C369.441 506.771 371.166 508.421 373.506 508.421C375.546 508.421 376.866 507.251 377.286 505.751Z"
                            fill="#383E45" />
                        <path id="Vector_21"
                            d="M412.121 523.147H286.121C285.017 523.147 284.121 524.043 284.121 525.147V527.147C284.121 528.252 285.017 529.147 286.121 529.147H412.121C413.226 529.147 414.121 528.252 414.121 527.147V525.147C414.121 524.043 413.226 523.147 412.121 523.147Z"
                            fill="#888888" />
                        <path id="Vector_22"
                            d="M393.221 537.147H305.021C304.248 537.147 303.621 538.043 303.621 539.147V541.147C303.621 542.252 304.248 543.147 305.021 543.147H393.221C393.994 543.147 394.621 542.252 394.621 541.147V539.147C394.621 538.043 393.994 537.147 393.221 537.147Z"
                            fill="#888888" />
                    </g>
                    <g id="Group 5">
                        <rect id="Rectangle 10" x="478.545" y="335.738" width="221.197" height="146.13" rx="3.00267"
                            fill="url(#theme_viin_ecommerce_houseware_s_three_columns_default_image_3_id)" class="img_reference_s_three_columns_default_image_3" />
                        <g id="Group_16">
                            <rect id="Rectangle 3_2" x="478.795" y="335.988" width="220.488" height="258.145"
                                rx="2.75245" stroke="#DFDFDF" stroke-width="0.500445" />
                            <path id="Feature_2"
                                d="M561.298 508.285H562.663V503.575H566.353V502.465H562.663V498.94H567.208V497.83H561.298V508.285ZM572.351 501.085C573.761 501.085 574.961 501.97 574.946 503.575H569.756C569.906 501.97 571.016 501.085 572.351 501.085ZM576.191 505.75H574.721C574.421 506.635 573.641 507.265 572.411 507.265C571.016 507.265 569.846 506.35 569.741 504.685H576.311C576.341 504.4 576.356 504.16 576.356 503.86C576.356 501.61 574.796 499.93 572.411 499.93C570.011 499.93 568.346 501.565 568.346 504.16C568.346 506.77 570.071 508.42 572.411 508.42C574.451 508.42 575.771 507.25 576.191 505.75ZM577.648 504.145C577.648 506.695 579.343 508.42 581.533 508.42C583.048 508.42 584.113 507.64 584.608 506.755V508.285H585.988V500.065H584.608V501.565C584.128 500.71 583.078 499.93 581.548 499.93C579.343 499.93 577.648 501.58 577.648 504.145ZM584.608 504.16C584.608 506.095 583.318 507.22 581.818 507.22C580.318 507.22 579.043 506.08 579.043 504.145C579.043 502.21 580.318 501.115 581.818 501.115C583.318 501.115 584.608 502.255 584.608 504.16ZM588.595 506.035C588.595 507.685 589.42 508.285 590.875 508.285H592.105V507.13H591.1C590.26 507.13 589.96 506.845 589.96 506.035V501.19H592.105V500.065H589.96V497.995H588.595V500.065H587.53V501.19H588.595V506.035ZM601.049 500.065H599.684V504.58C599.684 506.35 598.739 507.22 597.329 507.22C595.949 507.22 595.034 506.365 595.034 504.7V500.065H593.684V504.88C593.684 507.235 595.169 508.405 597.059 508.405C598.154 508.405 599.159 507.925 599.684 507.07V508.285H601.049V500.065ZM604.718 503.815C604.718 501.91 605.708 501.325 607.013 501.325H607.373V499.915C606.068 499.915 605.183 500.485 604.718 501.4V500.065H603.353V508.285H604.718V503.815ZM612.444 501.085C613.854 501.085 615.054 501.97 615.039 503.575H609.849C609.999 501.97 611.109 501.085 612.444 501.085ZM616.284 505.75H614.814C614.514 506.635 613.734 507.265 612.504 507.265C611.109 507.265 609.939 506.35 609.834 504.685H616.404C616.434 504.4 616.449 504.16 616.449 503.86C616.449 501.61 614.889 499.93 612.504 499.93C610.104 499.93 608.439 501.565 608.439 504.16C608.439 506.77 610.164 508.42 612.504 508.42C614.544 508.42 615.864 507.25 616.284 505.75Z"
                                fill="#383E45" />
                            <path id="Vector_23"
                                d="M651.119 523.147H525.119C524.015 523.147 523.119 524.043 523.119 525.147V527.147C523.119 528.252 524.015 529.147 525.119 529.147H651.119C652.224 529.147 653.119 528.252 653.119 527.147V525.147C653.119 524.043 652.224 523.147 651.119 523.147Z"
                                fill="#888888" />
                            <path id="Vector_24"
                                d="M632.219 537.147H544.019C543.246 537.147 542.619 538.043 542.619 539.147V541.147C542.619 542.252 543.246 543.147 544.019 543.147H632.219C632.992 543.147 633.619 542.252 633.619 541.147V539.147C633.619 538.043 632.992 537.147 632.219 537.147Z"
                                fill="#888888" />
                        </g>
                    </g>
                    <g id="Group_17">
                        <rect id="Rectangle 3_3" x="0.371316" y="335.279" width="220.488" height="258.145" rx="2.75245"
                            stroke="#DFDFDF" stroke-width="0.500445" />
                        <path id="Feature_3"
                            d="M83.2995 507.577H84.6645V502.867H88.3545V501.757H84.6645V498.232H89.2095V497.122H83.2995V507.577ZM94.3531 500.377C95.7631 500.377 96.9631 501.262 96.9481 502.867H91.7581C91.9081 501.262 93.0181 500.377 94.3531 500.377ZM98.1931 505.042H96.7231C96.4231 505.927 95.6431 506.557 94.4131 506.557C93.0181 506.557 91.8481 505.642 91.7431 503.977H98.3131C98.3431 503.692 98.3581 503.452 98.3581 503.152C98.3581 500.902 96.7981 499.222 94.4131 499.222C92.0131 499.222 90.3481 500.857 90.3481 503.452C90.3481 506.062 92.0731 507.712 94.4131 507.712C96.4531 507.712 97.7731 506.542 98.1931 505.042ZM99.6499 503.437C99.6499 505.987 101.345 507.712 103.535 507.712C105.05 507.712 106.115 506.932 106.61 506.047V507.577H107.99V499.357H106.61V500.857C106.13 500.002 105.08 499.222 103.55 499.222C101.345 499.222 99.6499 500.872 99.6499 503.437ZM106.61 503.452C106.61 505.387 105.32 506.512 103.82 506.512C102.32 506.512 101.045 505.372 101.045 503.437C101.045 501.502 102.32 500.407 103.82 500.407C105.32 500.407 106.61 501.547 106.61 503.452ZM110.597 505.327C110.597 506.977 111.422 507.577 112.877 507.577H114.107V506.422H113.102C112.262 506.422 111.962 506.137 111.962 505.327V500.482H114.107V499.357H111.962V497.287H110.597V499.357H109.532V500.482H110.597V505.327ZM123.05 499.357H121.685V503.872C121.685 505.642 120.74 506.512 119.33 506.512C117.95 506.512 117.035 505.657 117.035 503.992V499.357H115.685V504.172C115.685 506.527 117.17 507.697 119.06 507.697C120.155 507.697 121.16 507.217 121.685 506.362V507.577H123.05V499.357ZM126.72 503.107C126.72 501.202 127.71 500.617 129.015 500.617H129.375V499.207C128.07 499.207 127.185 499.777 126.72 500.692V499.357H125.355V507.577H126.72V503.107ZM134.446 500.377C135.856 500.377 137.056 501.262 137.041 502.867H131.851C132.001 501.262 133.111 500.377 134.446 500.377ZM138.286 505.042H136.816C136.516 505.927 135.736 506.557 134.506 506.557C133.111 506.557 131.941 505.642 131.836 503.977H138.406C138.436 503.692 138.451 503.452 138.451 503.152C138.451 500.902 136.891 499.222 134.506 499.222C132.106 499.222 130.441 500.857 130.441 503.452C130.441 506.062 132.166 507.712 134.506 507.712C136.546 507.712 137.866 506.542 138.286 505.042Z"
                            fill="#383E45" />
                        <path id="Vector_25"
                            d="M173.121 522.439H47.1211C46.0165 522.439 45.1211 523.335 45.1211 524.439V526.439C45.1211 527.544 46.0165 528.439 47.1211 528.439H173.121C174.226 528.439 175.121 527.544 175.121 526.439V524.439C175.121 523.335 174.226 522.439 173.121 522.439Z"
                            fill="#888888" />
                        <path id="Vector_26"
                            d="M154.221 536.439H66.0211C65.2479 536.439 64.6211 537.335 64.6211 538.439V540.439C64.6211 541.544 65.2479 542.439 66.0211 542.439H154.221C154.994 542.439 155.621 541.544 155.621 540.439V538.439C155.621 537.335 154.994 536.439 154.221 536.439Z"
                            fill="#888888" />
                    </g>
                </g>
                <rect id="Rectangle 12" x="0.121094" y="336.739" width="221.197" height="146.13" rx="3.00267"
                    fill="url(#theme_viin_ecommerce_houseware_s_three_columns_default_image_1_id)" class="img_reference_s_three_columns_default_image_1" />
            </g>
        </g>
        <g id="Copyright">
            <path id="Vector_27" d="M700.121 1815.44H0.121094V1850.44H700.121V1815.44Z" fill="#3AADAA" />
            <path id="Vector_28"
                d="M615.121 1830.44C623.405 1830.44 630.121 1823.72 630.121 1815.44C630.121 1807.16 623.405 1800.44 615.121 1800.44C606.837 1800.44 600.121 1807.16 600.121 1815.44C600.121 1823.72 606.837 1830.44 615.121 1830.44Z"
                fill="black" />
            <path id="Vector_29"
                d="M188.121 1830.44H72.1211C71.0165 1830.44 70.1211 1831.33 70.1211 1832.44V1834.44C70.1211 1835.54 71.0165 1836.44 72.1211 1836.44H188.121C189.226 1836.44 190.121 1835.54 190.121 1834.44V1832.44C190.121 1831.33 189.226 1830.44 188.121 1830.44Z"
                fill="#3AADAA" />
        </g>
        <g id="Group 36">
            <rect id="Rectangle 14" x="362.313" y="618.736" width="253.206" height="156.436" fill="url(#theme_viin_ecommerce_houseware_s_text_image_default_image_id)" class="img_reference_s_text_image_default_image" />
            <rect id="Rectangle 19" x="85.3457" y="793.845" width="253.206" height="156.436" fill="url(#theme_viin_ecommerce_houseware_s_image_text_default_image_id)" class="img_reference_s_image_text_default_image" />
            <g id="Group 35">
                <path id="Feature_4"
                    d="M86.5007 662.058H87.8657V657.348H91.5557V656.238H87.8657V652.713H92.4107V651.603H86.5007V662.058ZM97.5543 654.858C98.9643 654.858 100.164 655.743 100.149 657.348H94.9593C95.1093 655.743 96.2193 654.858 97.5543 654.858ZM101.394 659.523H99.9243C99.6243 660.408 98.8443 661.038 97.6143 661.038C96.2193 661.038 95.0493 660.123 94.9443 658.458H101.514C101.544 658.173 101.559 657.933 101.559 657.633C101.559 655.383 99.9993 653.703 97.6143 653.703C95.2143 653.703 93.5493 655.338 93.5493 657.933C93.5493 660.543 95.2743 662.193 97.6143 662.193C99.6543 662.193 100.974 661.023 101.394 659.523ZM102.851 657.918C102.851 660.468 104.546 662.193 106.736 662.193C108.251 662.193 109.316 661.413 109.811 660.528V662.058H111.191V653.838H109.811V655.338C109.331 654.483 108.281 653.703 106.751 653.703C104.546 653.703 102.851 655.353 102.851 657.918ZM109.811 657.933C109.811 659.868 108.521 660.993 107.021 660.993C105.521 660.993 104.246 659.853 104.246 657.918C104.246 655.983 105.521 654.888 107.021 654.888C108.521 654.888 109.811 656.028 109.811 657.933ZM113.798 659.808C113.798 661.458 114.623 662.058 116.078 662.058H117.308V660.903H116.303C115.463 660.903 115.163 660.618 115.163 659.808V654.963H117.308V653.838H115.163V651.768H113.798V653.838H112.733V654.963H113.798V659.808ZM126.252 653.838H124.887V658.353C124.887 660.123 123.942 660.993 122.532 660.993C121.152 660.993 120.237 660.138 120.237 658.473V653.838H118.887V658.653C118.887 661.008 120.372 662.178 122.262 662.178C123.357 662.178 124.362 661.698 124.887 660.843V662.058H126.252V653.838ZM129.921 657.588C129.921 655.683 130.911 655.098 132.216 655.098H132.576V653.688C131.271 653.688 130.386 654.258 129.921 655.173V653.838H128.556V662.058H129.921V657.588ZM137.647 654.858C139.057 654.858 140.257 655.743 140.242 657.348H135.052C135.202 655.743 136.312 654.858 137.647 654.858ZM141.487 659.523H140.017C139.717 660.408 138.937 661.038 137.707 661.038C136.312 661.038 135.142 660.123 135.037 658.458H141.607C141.637 658.173 141.652 657.933 141.652 657.633C141.652 655.383 140.092 653.703 137.707 653.703C135.307 653.703 133.642 655.338 133.642 657.933C133.642 660.543 135.367 662.193 137.707 662.193C139.747 662.193 141.067 661.023 141.487 659.523Z"
                    fill="#383E45" />
                <rect id="Rectangle 17" x="85.3457" y="721.962" width="91.1543" height="21.2091" fill="#D9D9D9" />
                <path id="Vector_30"
                    d="M312.558 675.019H88.8209C86.8595 675.019 85.2695 675.915 85.2695 677.019V679.019C85.2695 680.124 86.8595 681.019 88.8209 681.019H312.558C314.519 681.019 316.109 680.124 316.109 679.019V677.019C316.109 675.915 314.519 675.019 312.558 675.019Z"
                    fill="#888888" />
                <path id="Vector_31"
                    d="M312.558 689.613H88.8209C86.8595 689.613 85.2695 690.509 85.2695 691.613V693.613C85.2695 694.718 86.8595 695.613 88.8209 695.613H312.558C314.519 695.613 316.109 694.718 316.109 693.613V691.613C316.109 690.509 314.519 689.613 312.558 689.613Z"
                    fill="#888888" />
                <path id="Vector_32"
                    d="M312.558 704.207H88.8209C86.8595 704.207 85.2695 705.102 85.2695 706.207V708.207C85.2695 709.311 86.8595 710.207 88.8209 710.207H312.558C314.519 710.207 316.109 709.311 316.109 708.207V706.207C316.109 705.102 314.519 704.207 312.558 704.207Z"
                    fill="#888888" />
            </g>
            <g id="Group 34">
                <path id="Feature_5"
                    d="M384.422 842.15H385.787V837.44H389.477V836.33H385.787V832.805H390.332V831.695H384.422V842.15ZM395.475 834.95C396.885 834.95 398.085 835.835 398.07 837.44H392.88C393.03 835.835 394.14 834.95 395.475 834.95ZM399.315 839.615H397.845C397.545 840.5 396.765 841.13 395.535 841.13C394.14 841.13 392.97 840.215 392.865 838.55H399.435C399.465 838.265 399.48 838.025 399.48 837.725C399.48 835.475 397.92 833.795 395.535 833.795C393.135 833.795 391.47 835.43 391.47 838.025C391.47 840.635 393.195 842.285 395.535 842.285C397.575 842.285 398.895 841.115 399.315 839.615ZM400.772 838.01C400.772 840.56 402.467 842.285 404.657 842.285C406.172 842.285 407.237 841.505 407.732 840.62V842.15H409.112V833.93H407.732V835.43C407.252 834.575 406.202 833.795 404.672 833.795C402.467 833.795 400.772 835.445 400.772 838.01ZM407.732 838.025C407.732 839.96 406.442 841.085 404.942 841.085C403.442 841.085 402.167 839.945 402.167 838.01C402.167 836.075 403.442 834.98 404.942 834.98C406.442 834.98 407.732 836.12 407.732 838.025ZM411.719 839.9C411.719 841.55 412.544 842.15 413.999 842.15H415.229V840.995H414.224C413.384 840.995 413.084 840.71 413.084 839.9V835.055H415.229V833.93H413.084V831.86H411.719V833.93H410.654V835.055H411.719V839.9ZM424.173 833.93H422.808V838.445C422.808 840.215 421.863 841.085 420.453 841.085C419.073 841.085 418.158 840.23 418.158 838.565V833.93H416.808V838.745C416.808 841.1 418.293 842.27 420.183 842.27C421.278 842.27 422.283 841.79 422.808 840.935V842.15H424.173V833.93ZM427.842 837.68C427.842 835.775 428.832 835.19 430.137 835.19H430.497V833.78C429.192 833.78 428.307 834.35 427.842 835.265V833.93H426.477V842.15H427.842V837.68ZM435.568 834.95C436.978 834.95 438.178 835.835 438.163 837.44H432.973C433.123 835.835 434.233 834.95 435.568 834.95ZM439.408 839.615H437.938C437.638 840.5 436.858 841.13 435.628 841.13C434.233 841.13 433.063 840.215 432.958 838.55H439.528C439.558 838.265 439.573 838.025 439.573 837.725C439.573 835.475 438.013 833.795 435.628 833.795C433.228 833.795 431.563 835.43 431.563 838.025C431.563 840.635 433.288 842.285 435.628 842.285C437.668 842.285 438.988 841.115 439.408 839.615Z"
                    fill="#383E45" />
                <rect id="Rectangle 23" x="383.267" y="902.054" width="91.1543" height="21.2091" fill="#D9D9D9" />
                <path id="Vector_33"
                    d="M610.214 854.948H386.477C384.516 854.948 382.926 855.844 382.926 856.948V858.948C382.926 860.053 384.516 860.948 386.477 860.948H610.214C612.175 860.948 613.765 860.053 613.765 858.948V856.948C613.765 855.844 612.175 854.948 610.214 854.948Z"
                    fill="#888888" />
                <path id="Vector_34"
                    d="M610.214 869.542H386.477C384.516 869.542 382.926 870.438 382.926 871.542V873.542C382.926 874.647 384.516 875.542 386.477 875.542H610.214C612.175 875.542 613.765 874.647 613.765 873.542V871.542C613.765 870.438 612.175 869.542 610.214 869.542Z"
                    fill="#888888" />
                <path id="Vector_35"
                    d="M610.215 884.136H386.478C384.517 884.136 382.927 885.031 382.927 886.136V888.136C382.927 889.241 384.517 890.136 386.478 890.136H610.215C612.176 890.136 613.766 889.241 613.766 888.136V886.136C613.766 885.031 612.176 884.136 610.215 884.136Z"
                    fill="#888888" />
            </g>
        </g>
        <g id="Group 39">
            <rect id="Rectangle 13" x="0.121094" y="1383.88" width="700.623" height="207.569" fill="url(#theme_viin_ecommerce_houseware_s_parallax_default_image_id)" class="img_reference_s_parallax_default_image" />
            <g id="Group 28">
                <g id="Group 14">
                    <path id="Feature_6"
                        d="M134.525 1420.28H135.89V1415.57H139.58V1414.46H135.89V1410.94H140.435V1409.83H134.525V1420.28ZM145.579 1413.08C146.989 1413.08 148.189 1413.97 148.174 1415.57H142.984C143.134 1413.97 144.244 1413.08 145.579 1413.08ZM149.419 1417.75H147.949C147.649 1418.63 146.869 1419.26 145.639 1419.26C144.244 1419.26 143.074 1418.35 142.969 1416.68H149.539C149.569 1416.4 149.584 1416.16 149.584 1415.86C149.584 1413.61 148.024 1411.93 145.639 1411.93C143.239 1411.93 141.574 1413.56 141.574 1416.16C141.574 1418.77 143.299 1420.42 145.639 1420.42C147.679 1420.42 148.999 1419.25 149.419 1417.75ZM150.875 1416.14C150.875 1418.69 152.57 1420.42 154.76 1420.42C156.275 1420.42 157.34 1419.64 157.835 1418.75V1420.28H159.215V1412.06H157.835V1413.56C157.355 1412.71 156.305 1411.93 154.775 1411.93C152.57 1411.93 150.875 1413.58 150.875 1416.14ZM157.835 1416.16C157.835 1418.09 156.545 1419.22 155.045 1419.22C153.545 1419.22 152.27 1418.08 152.27 1416.14C152.27 1414.21 153.545 1413.11 155.045 1413.11C156.545 1413.11 157.835 1414.25 157.835 1416.16ZM161.822 1418.03C161.822 1419.68 162.647 1420.28 164.102 1420.28H165.332V1419.13H164.327C163.487 1419.13 163.187 1418.84 163.187 1418.03V1413.19H165.332V1412.06H163.187V1409.99H161.822V1412.06H160.757V1413.19H161.822V1418.03ZM174.276 1412.06H172.911V1416.58C172.911 1418.35 171.966 1419.22 170.556 1419.22C169.176 1419.22 168.261 1418.36 168.261 1416.7V1412.06H166.911V1416.88C166.911 1419.23 168.396 1420.4 170.286 1420.4C171.381 1420.4 172.386 1419.92 172.911 1419.07V1420.28H174.276V1412.06ZM177.946 1415.81C177.946 1413.91 178.936 1413.32 180.241 1413.32H180.601V1411.91C179.296 1411.91 178.411 1412.48 177.946 1413.4V1412.06H176.581V1420.28H177.946V1415.81ZM185.671 1413.08C187.081 1413.08 188.281 1413.97 188.266 1415.57H183.076C183.226 1413.97 184.336 1413.08 185.671 1413.08ZM189.511 1417.75H188.041C187.741 1418.63 186.961 1419.26 185.731 1419.26C184.336 1419.26 183.166 1418.35 183.061 1416.68H189.631C189.661 1416.4 189.676 1416.16 189.676 1415.86C189.676 1413.61 188.116 1411.93 185.731 1411.93C183.331 1411.93 181.666 1413.56 181.666 1416.16C181.666 1418.77 183.391 1420.42 185.731 1420.42C187.771 1420.42 189.091 1419.25 189.511 1417.75Z"
                        fill="white" />
                    <rect id="Rectangle 26" x="133.37" y="1429.88" width="53.0754" height="5.63447" rx="1.80825"
                        fill="white" />
                </g>
                <g id="Group 15">
                    <path id="Feature_7"
                        d="M405.419 1421.57H406.784V1416.86H410.474V1415.75H406.784V1412.22H411.329V1411.11H405.419V1421.57ZM416.472 1414.37C417.882 1414.37 419.082 1415.25 419.067 1416.86H413.877C414.027 1415.25 415.137 1414.37 416.472 1414.37ZM420.312 1419.03H418.842C418.542 1419.92 417.762 1420.55 416.532 1420.55C415.137 1420.55 413.967 1419.63 413.862 1417.97H420.432C420.462 1417.68 420.477 1417.44 420.477 1417.14C420.477 1414.89 418.917 1413.21 416.532 1413.21C414.132 1413.21 412.467 1414.85 412.467 1417.44C412.467 1420.05 414.192 1421.7 416.532 1421.7C418.572 1421.7 419.892 1420.53 420.312 1419.03ZM421.769 1417.43C421.769 1419.98 423.464 1421.7 425.654 1421.7C427.169 1421.7 428.234 1420.92 428.729 1420.04V1421.57H430.109V1413.35H428.729V1414.85C428.249 1413.99 427.199 1413.21 425.669 1413.21C423.464 1413.21 421.769 1414.86 421.769 1417.43ZM428.729 1417.44C428.729 1419.38 427.439 1420.5 425.939 1420.5C424.439 1420.5 423.164 1419.36 423.164 1417.43C423.164 1415.49 424.439 1414.4 425.939 1414.4C427.439 1414.4 428.729 1415.54 428.729 1417.44ZM432.716 1419.32C432.716 1420.97 433.541 1421.57 434.996 1421.57H436.226V1420.41H435.221C434.381 1420.41 434.081 1420.13 434.081 1419.32V1414.47H436.226V1413.35H434.081V1411.28H432.716V1413.35H431.651V1414.47H432.716V1419.32ZM445.17 1413.35H443.805V1417.86C443.805 1419.63 442.86 1420.5 441.45 1420.5C440.07 1420.5 439.155 1419.65 439.155 1417.98V1413.35H437.805V1418.16C437.805 1420.52 439.29 1421.69 441.18 1421.69C442.275 1421.69 443.28 1421.21 443.805 1420.35V1421.57H445.17V1413.35ZM448.839 1417.1C448.839 1415.19 449.829 1414.61 451.134 1414.61H451.494V1413.2C450.189 1413.2 449.304 1413.77 448.839 1414.68V1413.35H447.474V1421.57H448.839V1417.1ZM456.565 1414.37C457.975 1414.37 459.175 1415.25 459.16 1416.86H453.97C454.12 1415.25 455.23 1414.37 456.565 1414.37ZM460.405 1419.03H458.935C458.635 1419.92 457.855 1420.55 456.625 1420.55C455.23 1420.55 454.06 1419.63 453.955 1417.97H460.525C460.555 1417.68 460.57 1417.44 460.57 1417.14C460.57 1414.89 459.01 1413.21 456.625 1413.21C454.225 1413.21 452.56 1414.85 452.56 1417.44C452.56 1420.05 454.285 1421.7 456.625 1421.7C458.665 1421.7 459.985 1420.53 460.405 1419.03Z"
                        fill="white" />
                    <rect id="Rectangle 26_2" x="404.264" y="1431.16" width="53.0754" height="4.76866" rx="1.80825"
                        fill="white" />
                </g>
                <g id="Group 8">
                    <circle id="Ellipse 9" cx="146.953" cy="1464.01" r="13.0888" fill="white" />
                    <path id="Vector_36"
                        d="M226.344 1453.69H171.623C171.144 1453.69 170.755 1454.57 170.755 1455.65V1457.6C170.755 1458.68 171.144 1459.56 171.623 1459.56H226.344C226.824 1459.56 227.212 1458.68 227.212 1457.6V1455.65C227.212 1454.57 226.824 1453.69 226.344 1453.69Z"
                        fill="white" />
                    <path id="Vector_37"
                        d="M294.891 1465.54H172.695C171.623 1465.54 170.755 1466.43 170.755 1467.54V1469.54C170.755 1470.64 171.623 1471.54 172.695 1471.54H294.891C295.962 1471.54 296.83 1470.64 296.83 1469.54V1467.54C296.83 1466.43 295.962 1465.54 294.891 1465.54Z"
                        fill="#BCBCBB" />
                </g>
                <g id="Group 9">
                    <circle id="Ellipse 10" cx="146.953" cy="1506.46" r="13.0888" fill="white" />
                    <path id="Vector_38"
                        d="M226.344 1496.1H171.623C171.144 1496.1 170.755 1496.98 170.755 1498.06V1500.02C170.755 1501.1 171.144 1501.98 171.623 1501.98H226.344C226.824 1501.98 227.212 1501.1 227.212 1500.02V1498.06C227.212 1496.98 226.824 1496.1 226.344 1496.1Z"
                        fill="white" />
                    <path id="Vector_39"
                        d="M294.891 1507.95H172.695C171.623 1507.95 170.755 1508.85 170.755 1509.95V1511.95C170.755 1513.06 171.623 1513.95 172.695 1513.95H294.891C295.962 1513.95 296.83 1513.06 296.83 1511.95V1509.95C296.83 1508.85 295.962 1507.95 294.891 1507.95Z"
                        fill="#BCBCBB" />
                </g>
                <g id="Group 10">
                    <circle id="Ellipse 11" cx="146.953" cy="1548.91" r="13.0888" fill="white" />
                    <path id="Vector_40"
                        d="M226.344 1538.52H171.623C171.144 1538.52 170.755 1539.39 170.755 1540.48V1542.43C170.755 1543.51 171.144 1544.39 171.623 1544.39H226.344C226.824 1544.39 227.212 1543.51 227.212 1542.43V1540.48C227.212 1539.39 226.824 1538.52 226.344 1538.52Z"
                        fill="white" />
                    <path id="Vector_41"
                        d="M294.891 1550.37H172.695C171.623 1550.37 170.755 1551.26 170.755 1552.37V1554.37C170.755 1555.47 171.623 1556.37 172.695 1556.37H294.891C295.962 1556.37 296.83 1555.47 296.83 1554.37V1552.37C296.83 1551.26 295.962 1550.37 294.891 1550.37Z"
                        fill="#BCBCBB" />
                </g>
                <g id="Group 16">
                    <path id="Vector_42"
                        d="M496.503 1453.69H441.783C441.303 1453.69 440.914 1454.57 440.914 1455.65V1457.6C440.914 1458.68 441.303 1459.56 441.783 1459.56H496.503C496.983 1459.56 497.372 1458.68 497.372 1457.6V1455.65C497.372 1454.57 496.983 1453.69 496.503 1453.69Z"
                        fill="white" />
                    <path id="Vector_43"
                        d="M565.05 1465.54H442.854C441.782 1465.54 440.914 1466.43 440.914 1467.54V1469.54C440.914 1470.64 441.782 1471.54 442.854 1471.54H565.05C566.121 1471.54 566.989 1470.64 566.989 1469.54V1467.54C566.989 1466.43 566.121 1465.54 565.05 1465.54Z"
                        fill="#BCBCBB" />
                    <rect id="Rectangle 27" x="404.264" y="1451.56" width="26.1772" height="26.1777" fill="white" />
                </g>
                <g id="Group 17">
                    <path id="Vector_44"
                        d="M496.503 1496.1H441.783C441.303 1496.1 440.914 1496.98 440.914 1498.06V1500.02C440.914 1501.1 441.303 1501.98 441.783 1501.98H496.503C496.983 1501.98 497.372 1501.1 497.372 1500.02V1498.06C497.372 1496.98 496.983 1496.1 496.503 1496.1Z"
                        fill="white" />
                    <path id="Vector_45"
                        d="M565.05 1507.95H442.854C441.782 1507.95 440.914 1508.85 440.914 1509.95V1511.95C440.914 1513.06 441.782 1513.95 442.854 1513.95H565.05C566.121 1513.95 566.989 1513.06 566.989 1511.95V1509.95C566.989 1508.85 566.121 1507.95 565.05 1507.95Z"
                        fill="#BCBCBB" />
                    <rect id="Rectangle 28" x="404.264" y="1493.37" width="26.1772" height="26.1777" fill="white" />
                </g>
                <g id="Group 18">
                    <path id="Vector_46"
                        d="M496.503 1538.52H441.783C441.303 1538.52 440.914 1539.39 440.914 1540.48V1542.43C440.914 1543.51 441.303 1544.39 441.783 1544.39H496.503C496.983 1544.39 497.372 1543.51 497.372 1542.43V1540.48C497.372 1539.39 496.983 1538.52 496.503 1538.52Z"
                        fill="white" />
                    <path id="Vector_47"
                        d="M565.05 1550.37H442.854C441.782 1550.37 440.914 1551.26 440.914 1552.37V1554.37C440.914 1555.47 441.782 1556.37 442.854 1556.37H565.05C566.121 1556.37 566.989 1555.47 566.989 1554.37V1552.37C566.989 1551.26 566.121 1550.37 565.05 1550.37Z"
                        fill="#BCBCBB" />
                    <rect id="Rectangle 29" x="404.264" y="1535.18" width="26.1772" height="26.1777" fill="white" />
                </g>
            </g>
        </g>
        <g id="Group 27">
            <path id="Feature_8"
                d="M163.883 1615.33H165.248V1610.62H168.938V1609.51H165.248V1605.98H169.793V1604.87H163.883V1615.33ZM174.936 1608.13C176.346 1608.13 177.546 1609.01 177.531 1610.62H172.341C172.491 1609.01 173.601 1608.13 174.936 1608.13ZM178.776 1612.79H177.306C177.006 1613.68 176.226 1614.31 174.996 1614.31C173.601 1614.31 172.431 1613.39 172.326 1611.73H178.896C178.926 1611.44 178.941 1611.2 178.941 1610.9C178.941 1608.65 177.381 1606.97 174.996 1606.97C172.596 1606.97 170.931 1608.61 170.931 1611.2C170.931 1613.81 172.656 1615.46 174.996 1615.46C177.036 1615.46 178.356 1614.29 178.776 1612.79ZM180.233 1611.19C180.233 1613.74 181.928 1615.46 184.118 1615.46C185.633 1615.46 186.698 1614.68 187.193 1613.8V1615.33H188.573V1607.11H187.193V1608.61C186.713 1607.75 185.663 1606.97 184.133 1606.97C181.928 1606.97 180.233 1608.62 180.233 1611.19ZM187.193 1611.2C187.193 1613.14 185.903 1614.26 184.403 1614.26C182.903 1614.26 181.628 1613.12 181.628 1611.19C181.628 1609.25 182.903 1608.16 184.403 1608.16C185.903 1608.16 187.193 1609.3 187.193 1611.2ZM191.18 1613.08C191.18 1614.73 192.005 1615.33 193.46 1615.33H194.69V1614.17H193.685C192.845 1614.17 192.545 1613.89 192.545 1613.08V1608.23H194.69V1607.11H192.545V1605.04H191.18V1607.11H190.115V1608.23H191.18V1613.08ZM203.633 1607.11H202.268V1611.62C202.268 1613.39 201.323 1614.26 199.913 1614.26C198.533 1614.26 197.618 1613.41 197.618 1611.74V1607.11H196.268V1611.92C196.268 1614.28 197.753 1615.45 199.643 1615.45C200.738 1615.45 201.743 1614.97 202.268 1614.11V1615.33H203.633V1607.11ZM207.303 1610.86C207.303 1608.95 208.293 1608.37 209.598 1608.37H209.958V1606.96C208.653 1606.96 207.768 1607.53 207.303 1608.44V1607.11H205.938V1615.33H207.303V1610.86ZM215.029 1608.13C216.439 1608.13 217.639 1609.01 217.624 1610.62H212.434C212.584 1609.01 213.694 1608.13 215.029 1608.13ZM218.869 1612.79H217.399C217.099 1613.68 216.319 1614.31 215.089 1614.31C213.694 1614.31 212.524 1613.39 212.419 1611.73H218.989C219.019 1611.44 219.034 1611.2 219.034 1610.9C219.034 1608.65 217.474 1606.97 215.089 1606.97C212.689 1606.97 211.024 1608.61 211.024 1611.2C211.024 1613.81 212.749 1615.46 215.089 1615.46C217.129 1615.46 218.449 1614.29 218.869 1612.79Z"
                fill="#383E45" />
            <g id="Group 19">
                <rect id="Rectangle 30" x="162.728" y="1624.26" width="375.412" height="23.921" fill="#D9D9D9" />
                <rect id="Rectangle 31" x="500.775" y="1624.26" width="37.3636" height="23.921" fill="#7C6576" />
                <rect id="Rectangle 32" x="179.134" y="1631.97" width="48.0369" height="9.3192" rx="1.35619"
                    fill="#888888" />
            </g>
        </g>
        <g id="Group 37">
            <rect id="Rectangle 34" x="0.121094" y="980.025" width="700.623" height="141.618" fill="url(#theme_viin_ecommerce_houseware_s_cover_default_image_id)" class="img_reference_s_cover_default_image" />
            <g id="Group 26">
                <path id="Vector_48"
                    d="M383.473 1046.8H317.393C316.813 1046.8 316.344 1048.15 316.344 1049.82V1052.84C316.344 1054.51 316.813 1055.86 317.393 1055.86H383.473C384.053 1055.86 384.522 1054.51 384.522 1052.84V1049.82C384.522 1048.15 384.053 1046.8 383.473 1046.8Z"
                    fill="white" />
                <path id="Vector_49"
                    d="M422.251 1060.46H278.614C277.355 1060.46 276.334 1061.73 276.334 1063.3V1066.15C276.334 1067.73 277.355 1069 278.614 1069H422.251C423.51 1069 424.531 1067.73 424.531 1066.15V1063.3C424.531 1061.73 423.51 1060.46 422.251 1060.46Z"
                    fill="#BCBCBB" />
                <path id="Feature_9"
                    d="M318.147 1037.12H319.785V1031.47H324.213V1030.14H319.785V1025.91H325.239V1024.58H318.147V1037.12ZM331.411 1028.48C333.103 1028.48 334.543 1029.54 334.525 1031.47H328.297C328.477 1029.54 329.809 1028.48 331.411 1028.48ZM336.019 1034.08H334.255C333.895 1035.14 332.959 1035.9 331.483 1035.9C329.809 1035.9 328.405 1034.8 328.279 1032.8H336.163C336.199 1032.46 336.217 1032.17 336.217 1031.81C336.217 1029.11 334.345 1027.1 331.483 1027.1C328.603 1027.1 326.605 1029.06 326.605 1032.17C326.605 1035.3 328.675 1037.28 331.483 1037.28C333.931 1037.28 335.515 1035.88 336.019 1034.08ZM337.767 1032.15C337.767 1035.21 339.801 1037.28 342.429 1037.28C344.247 1037.28 345.525 1036.35 346.119 1035.29V1037.12H347.775V1027.26H346.119V1029.06C345.543 1028.03 344.283 1027.1 342.447 1027.1C339.801 1027.1 337.767 1029.08 337.767 1032.15ZM346.119 1032.17C346.119 1034.49 344.571 1035.84 342.771 1035.84C340.971 1035.84 339.441 1034.48 339.441 1032.15C339.441 1029.83 340.971 1028.52 342.771 1028.52C344.571 1028.52 346.119 1029.89 346.119 1032.17ZM350.903 1034.42C350.903 1036.4 351.893 1037.12 353.639 1037.12H355.115V1035.74H353.909C352.901 1035.74 352.541 1035.39 352.541 1034.42V1028.61H355.115V1027.26H352.541V1024.77H350.903V1027.26H349.625V1028.61H350.903V1034.42ZM365.848 1027.26H364.21V1032.68C364.21 1034.8 363.076 1035.84 361.384 1035.84C359.728 1035.84 358.63 1034.82 358.63 1032.82V1027.26H357.01V1033.04C357.01 1035.86 358.792 1037.27 361.06 1037.27C362.374 1037.27 363.58 1036.69 364.21 1035.66V1037.12H365.848V1027.26ZM370.252 1031.76C370.252 1029.47 371.44 1028.77 373.006 1028.77H373.438V1027.08C371.872 1027.08 370.81 1027.76 370.252 1028.86V1027.26H368.614V1037.12H370.252V1031.76ZM379.522 1028.48C381.214 1028.48 382.654 1029.54 382.636 1031.47H376.408C376.588 1029.54 377.92 1028.48 379.522 1028.48ZM384.13 1034.08H382.366C382.006 1035.14 381.07 1035.9 379.594 1035.9C377.92 1035.9 376.516 1034.8 376.39 1032.8H384.274C384.31 1032.46 384.328 1032.17 384.328 1031.81C384.328 1029.11 382.456 1027.1 379.594 1027.1C376.714 1027.1 374.716 1029.06 374.716 1032.17C374.716 1035.3 376.786 1037.28 379.594 1037.28C382.042 1037.28 383.626 1035.88 384.13 1034.08Z"
                    fill="white" />
            </g>
        </g>
        <g id="Group 38">
            <rect id="Rectangle 33" x="0.121094" y="1320.7" width="700.623" height="63.1795" fill="#383E45" />
            <g id="Group 25">
                <path id="Feature_10"
                    d="M134.372 1348.36H135.737V1343.65H139.427V1342.54H135.737V1339.02H140.282V1337.91H134.372V1348.36ZM145.425 1341.16C146.835 1341.16 148.035 1342.05 148.02 1343.65H142.83C142.98 1342.05 144.09 1341.16 145.425 1341.16ZM149.265 1345.83H147.795C147.495 1346.71 146.715 1347.34 145.485 1347.34C144.09 1347.34 142.92 1346.43 142.815 1344.76H149.385C149.415 1344.48 149.43 1344.24 149.43 1343.94C149.43 1341.69 147.87 1340.01 145.485 1340.01C143.085 1340.01 141.42 1341.64 141.42 1344.24C141.42 1346.85 143.145 1348.5 145.485 1348.5C147.525 1348.5 148.845 1347.33 149.265 1345.83ZM150.722 1344.22C150.722 1346.77 152.417 1348.5 154.607 1348.5C156.122 1348.5 157.187 1347.72 157.682 1346.83V1348.36H159.062V1340.14H157.682V1341.64C157.202 1340.79 156.152 1340.01 154.622 1340.01C152.417 1340.01 150.722 1341.66 150.722 1344.22ZM157.682 1344.24C157.682 1346.17 156.392 1347.3 154.892 1347.3C153.392 1347.3 152.117 1346.16 152.117 1344.22C152.117 1342.29 153.392 1341.19 154.892 1341.19C156.392 1341.19 157.682 1342.33 157.682 1344.24ZM161.669 1346.11C161.669 1347.76 162.494 1348.36 163.949 1348.36H165.179V1347.21H164.174C163.334 1347.21 163.034 1346.92 163.034 1346.11V1341.27H165.179V1340.14H163.034V1338.07H161.669V1340.14H160.604V1341.27H161.669V1346.11ZM174.123 1340.14H172.758V1344.66C172.758 1346.43 171.813 1347.3 170.403 1347.3C169.023 1347.3 168.108 1346.44 168.108 1344.78V1340.14H166.758V1344.96C166.758 1347.31 168.243 1348.48 170.133 1348.48C171.228 1348.48 172.233 1348 172.758 1347.15V1348.36H174.123V1340.14ZM177.792 1343.89C177.792 1341.99 178.782 1341.4 180.087 1341.4H180.447V1339.99C179.142 1339.99 178.257 1340.56 177.792 1341.48V1340.14H176.427V1348.36H177.792V1343.89ZM185.518 1341.16C186.928 1341.16 188.128 1342.05 188.113 1343.65H182.923C183.073 1342.05 184.183 1341.16 185.518 1341.16ZM189.358 1345.83H187.888C187.588 1346.71 186.808 1347.34 185.578 1347.34C184.183 1347.34 183.013 1346.43 182.908 1344.76H189.478C189.508 1344.48 189.523 1344.24 189.523 1343.94C189.523 1341.69 187.963 1340.01 185.578 1340.01C183.178 1340.01 181.513 1341.64 181.513 1344.24C181.513 1346.85 183.238 1348.5 185.578 1348.5C187.618 1348.5 188.938 1347.33 189.358 1345.83Z"
                    fill="white" />
                <rect id="Rectangle 26_3" x="132.949" y="1358.67" width="87.6749" height="5.66254" rx="1.80825"
                    fill="white" />
            </g>
        </g>
        <g id="Group 24">
            <g id="Group 20">
                <path id="Vector_50"
                    d="M174.9 1238.49H85.2473C84.4613 1238.49 83.8242 1239.89 83.8242 1241.61V1244.73C83.8242 1246.45 84.4613 1247.85 85.2473 1247.85H174.9C175.686 1247.85 176.323 1246.45 176.323 1244.73V1241.61C176.323 1239.89 175.686 1238.49 174.9 1238.49Z"
                    fill="#BCBCBB" />
                <rect id="Rectangle 35" x="107.811" y="1199.96" width="44.7572" height="25.2161" rx="2.71237"
                    fill="#3AADAA" />
            </g>
            <g id="Group 21">
                <path id="Vector_51"
                    d="M321.598 1238.49H231.946C231.16 1238.49 230.522 1239.89 230.522 1241.61V1244.73C230.522 1246.45 231.16 1247.85 231.946 1247.85H321.598C322.384 1247.85 323.021 1246.45 323.021 1244.73V1241.61C323.021 1239.89 322.384 1238.49 321.598 1238.49Z"
                    fill="#BCBCBB" />
                <rect id="Rectangle 36" x="254.641" y="1199.96" width="44.7572" height="25.2161" rx="2.71237"
                    fill="#CED4DA" />
            </g>
            <g id="Group 22">
                <path id="Vector_52"
                    d="M468.297 1238.49H378.644C377.858 1238.49 377.221 1239.89 377.221 1241.61V1244.73C377.221 1246.45 377.858 1247.85 378.644 1247.85H468.297C469.083 1247.85 469.72 1246.45 469.72 1244.73V1241.61C469.72 1239.89 469.083 1238.49 468.297 1238.49Z"
                    fill="#BCBCBB" />
                <rect id="Rectangle 36_2" x="401.469" y="1199.96" width="44.7572" height="25.2161" rx="2.71237"
                    fill="#7C6576" />
            </g>
            <g id="Group 23">
                <path id="Vector_53"
                    d="M614.994 1238.49H525.341C524.555 1238.49 523.918 1239.89 523.918 1241.61V1244.73C523.918 1246.45 524.555 1247.85 525.341 1247.85H614.994C615.78 1247.85 616.417 1246.45 616.417 1244.73V1241.61C616.417 1239.89 615.78 1238.49 614.994 1238.49Z"
                    fill="#BCBCBB" />
                <rect id="Rectangle 36_3" x="548.297" y="1199.96" width="44.7572" height="25.2161" rx="2.71237"
                    fill="#CED4DA" />
            </g>
        </g>
        <g id="Group 33">
            <g id="Group 32">
                <ellipse id="Ellipse 12" cx="525.039" cy="1765.42" rx="11.7211" ry="11.7211" fill="#D9D9D9" />
                <ellipse id="Ellipse 13" cx="552.998" cy="1765.42" rx="11.7211" ry="11.7211" fill="#D9D9D9" />
                <ellipse id="Ellipse 14" cx="580.957" cy="1765.42" rx="11.7211" ry="11.7211" fill="#D9D9D9" />
                <ellipse id="Ellipse 15" cx="627.916" cy="1765.42" rx="11.7211" ry="11.7211" fill="#D9D9D9" />
            </g>
            <path id="Feature_11"
                d="M73.3078 1701.77H74.3998V1698.01H77.3518V1697.12H74.3998V1694.3H78.0358V1693.41H73.3078V1701.77ZM82.1507 1696.01C83.2787 1696.01 84.2387 1696.72 84.2267 1698.01H80.0747C80.1947 1696.72 81.0827 1696.01 82.1507 1696.01ZM85.2227 1699.75H84.0467C83.8067 1700.45 83.1827 1700.96 82.1987 1700.96C81.0827 1700.96 80.1467 1700.23 80.0627 1698.89H85.3187C85.3427 1698.67 85.3547 1698.47 85.3547 1698.23C85.3547 1696.43 84.1067 1695.09 82.1987 1695.09C80.2787 1695.09 78.9467 1696.4 78.9467 1698.47C78.9467 1700.56 80.3267 1701.88 82.1987 1701.88C83.8307 1701.88 84.8867 1700.95 85.2227 1699.75ZM86.3881 1698.46C86.3881 1700.5 87.7441 1701.88 89.4961 1701.88C90.7081 1701.88 91.5601 1701.26 91.9561 1700.55V1701.77H93.0601V1695.2H91.9561V1696.4C91.5721 1695.71 90.7321 1695.09 89.5081 1695.09C87.7441 1695.09 86.3881 1696.41 86.3881 1698.46ZM91.9561 1698.47C91.9561 1700.02 90.9241 1700.92 89.7241 1700.92C88.5241 1700.92 87.5041 1700.01 87.5041 1698.46C87.5041 1696.91 88.5241 1696.04 89.7241 1696.04C90.9241 1696.04 91.9561 1696.95 91.9561 1698.47ZM95.1454 1699.97C95.1454 1701.29 95.8054 1701.77 96.9694 1701.77H97.9534V1700.85H97.1494C96.4774 1700.85 96.2374 1700.62 96.2374 1699.97V1696.1H97.9534V1695.2H96.2374V1693.54H95.1454V1695.2H94.2934V1696.1H95.1454V1699.97ZM105.109 1695.2H104.017V1698.81C104.017 1700.23 103.261 1700.92 102.133 1700.92C101.029 1700.92 100.297 1700.24 100.297 1698.91V1695.2H99.2165V1699.05C99.2165 1700.93 100.405 1701.87 101.917 1701.87C102.793 1701.87 103.597 1701.49 104.017 1700.8V1701.77H105.109V1695.2ZM108.044 1698.2C108.044 1696.67 108.836 1696.21 109.88 1696.21H110.168V1695.08C109.124 1695.08 108.416 1695.53 108.044 1696.27V1695.2H106.952V1701.77H108.044V1698.2ZM114.225 1696.01C115.353 1696.01 116.313 1696.72 116.301 1698.01H112.149C112.269 1696.72 113.157 1696.01 114.225 1696.01ZM117.297 1699.75H116.121C115.881 1700.45 115.257 1700.96 114.273 1700.96C113.157 1700.96 112.221 1700.23 112.137 1698.89H117.393C117.417 1698.67 117.429 1698.47 117.429 1698.23C117.429 1696.43 116.181 1695.09 114.273 1695.09C112.353 1695.09 111.021 1696.4 111.021 1698.47C111.021 1700.56 112.401 1701.88 114.273 1701.88C115.905 1701.88 116.961 1700.95 117.297 1699.75Z"
                fill="white" />
            <path id="Feature_12"
                d="M231.652 1701.77H232.744V1698.01H235.696V1697.12H232.744V1694.3H236.38V1693.41H231.652V1701.77ZM240.494 1696.01C241.622 1696.01 242.582 1696.72 242.57 1698.01H238.418C238.538 1696.72 239.426 1696.01 240.494 1696.01ZM243.566 1699.75H242.39C242.15 1700.45 241.526 1700.96 240.542 1700.96C239.426 1700.96 238.49 1700.23 238.406 1698.89H243.662C243.686 1698.67 243.698 1698.47 243.698 1698.23C243.698 1696.43 242.45 1695.09 240.542 1695.09C238.622 1695.09 237.29 1696.4 237.29 1698.47C237.29 1700.56 238.67 1701.88 240.542 1701.88C242.174 1701.88 243.23 1700.95 243.566 1699.75ZM244.732 1698.46C244.732 1700.5 246.088 1701.88 247.84 1701.88C249.052 1701.88 249.904 1701.26 250.3 1700.55V1701.77H251.404V1695.2H250.3V1696.4C249.916 1695.71 249.076 1695.09 247.852 1695.09C246.088 1695.09 244.732 1696.41 244.732 1698.46ZM250.3 1698.47C250.3 1700.02 249.268 1700.92 248.068 1700.92C246.868 1700.92 245.848 1700.01 245.848 1698.46C245.848 1696.91 246.868 1696.04 248.068 1696.04C249.268 1696.04 250.3 1696.95 250.3 1698.47ZM253.489 1699.97C253.489 1701.29 254.149 1701.77 255.313 1701.77H256.297V1700.85H255.493C254.821 1700.85 254.581 1700.62 254.581 1699.97V1696.1H256.297V1695.2H254.581V1693.54H253.489V1695.2H252.637V1696.1H253.489V1699.97ZM263.452 1695.2H262.36V1698.81C262.36 1700.23 261.604 1700.92 260.476 1700.92C259.372 1700.92 258.64 1700.24 258.64 1698.91V1695.2H257.56V1699.05C257.56 1700.93 258.748 1701.87 260.26 1701.87C261.136 1701.87 261.94 1701.49 262.36 1700.8V1701.77H263.452V1695.2ZM266.388 1698.2C266.388 1696.67 267.18 1696.21 268.224 1696.21H268.512V1695.08C267.468 1695.08 266.76 1695.53 266.388 1696.27V1695.2H265.296V1701.77H266.388V1698.2ZM272.569 1696.01C273.697 1696.01 274.657 1696.72 274.645 1698.01H270.493C270.613 1696.72 271.501 1696.01 272.569 1696.01ZM275.641 1699.75H274.465C274.225 1700.45 273.601 1700.96 272.617 1700.96C271.501 1700.96 270.565 1700.23 270.481 1698.89H275.737C275.761 1698.67 275.773 1698.47 275.773 1698.23C275.773 1696.43 274.525 1695.09 272.617 1695.09C270.697 1695.09 269.365 1696.4 269.365 1698.47C269.365 1700.56 270.745 1701.88 272.617 1701.88C274.249 1701.88 275.305 1700.95 275.641 1699.75Z"
                fill="white" />
            <path id="Feature_13"
                d="M514.242 1701.77H515.334V1698.01H518.286V1697.12H515.334V1694.3H518.97V1693.41H514.242V1701.77ZM523.085 1696.01C524.213 1696.01 525.173 1696.72 525.161 1698.01H521.009C521.129 1696.72 522.017 1696.01 523.085 1696.01ZM526.157 1699.75H524.981C524.741 1700.45 524.117 1700.96 523.133 1700.96C522.017 1700.96 521.081 1700.23 520.997 1698.89H526.253C526.277 1698.67 526.289 1698.47 526.289 1698.23C526.289 1696.43 525.041 1695.09 523.133 1695.09C521.213 1695.09 519.881 1696.4 519.881 1698.47C519.881 1700.56 521.261 1701.88 523.133 1701.88C524.765 1701.88 525.821 1700.95 526.157 1699.75ZM527.323 1698.46C527.323 1700.5 528.679 1701.88 530.431 1701.88C531.643 1701.88 532.495 1701.26 532.891 1700.55V1701.77H533.995V1695.2H532.891V1696.4C532.507 1695.71 531.667 1695.09 530.443 1695.09C528.679 1695.09 527.323 1696.41 527.323 1698.46ZM532.891 1698.47C532.891 1700.02 531.859 1700.92 530.659 1700.92C529.459 1700.92 528.439 1700.01 528.439 1698.46C528.439 1696.91 529.459 1696.04 530.659 1696.04C531.859 1696.04 532.891 1696.95 532.891 1698.47ZM536.08 1699.97C536.08 1701.29 536.74 1701.77 537.904 1701.77H538.888V1700.85H538.084C537.412 1700.85 537.172 1700.62 537.172 1699.97V1696.1H538.888V1695.2H537.172V1693.54H536.08V1695.2H535.228V1696.1H536.08V1699.97ZM546.043 1695.2H544.951V1698.81C544.951 1700.23 544.195 1700.92 543.067 1700.92C541.963 1700.92 541.231 1700.24 541.231 1698.91V1695.2H540.151V1699.05C540.151 1700.93 541.339 1701.87 542.851 1701.87C543.727 1701.87 544.531 1701.49 544.951 1700.8V1701.77H546.043V1695.2ZM548.979 1698.2C548.979 1696.67 549.771 1696.21 550.815 1696.21H551.103V1695.08C550.059 1695.08 549.351 1695.53 548.979 1696.27V1695.2H547.887V1701.77H548.979V1698.2ZM555.159 1696.01C556.287 1696.01 557.247 1696.72 557.235 1698.01H553.083C553.203 1696.72 554.091 1696.01 555.159 1696.01ZM558.231 1699.75H557.055C556.815 1700.45 556.191 1700.96 555.207 1700.96C554.091 1700.96 553.155 1700.23 553.071 1698.89H558.327C558.351 1698.67 558.363 1698.47 558.363 1698.23C558.363 1696.43 557.115 1695.09 555.207 1695.09C553.287 1695.09 551.955 1696.4 551.955 1698.47C551.955 1700.56 553.335 1701.88 555.207 1701.88C556.839 1701.88 557.895 1700.95 558.231 1699.75Z"
                fill="white" />
            <g id="Group 29">
                <rect id="Rectangle 37" x="72.3838" y="1713.9" width="42.0159" height="5.98317" rx="1.35619"
                    fill="#3AADAA" />
                <rect id="Rectangle 38" x="72.3838" y="1725.17" width="42.0159" height="5.98317" rx="1.35619"
                    fill="#3AADAA" />
                <rect id="Rectangle 39" x="72.3838" y="1736.43" width="42.0159" height="5.98317" rx="1.35619"
                    fill="#3AADAA" />
                <rect id="Rectangle 40" x="72.3838" y="1747.69" width="42.0159" height="5.98317" rx="1.35619"
                    fill="#3AADAA" />
                <rect id="Rectangle 41" x="72.3838" y="1758.95" width="42.0159" height="5.98317" rx="1.35619"
                    fill="#3AADAA" />
                <rect id="Rectangle 42" x="72.3838" y="1770.22" width="42.0159" height="5.98317" rx="1.35619"
                    fill="#3AADAA" />
            </g>
            <g id="Group 30">
                <rect id="Rectangle 37_2" x="230.728" y="1714.47" width="196.264" height="5.98317" rx="1.35619"
                    fill="#D9D9D9" />
                <rect id="Rectangle 38_2" x="230.728" y="1725.74" width="196.264" height="5.98317" rx="1.35619"
                    fill="#D9D9D9" />
                <rect id="Rectangle 39_2" x="230.728" y="1737" width="196.264" height="5.98317" rx="1.35619"
                    fill="#D9D9D9" />
                <rect id="Rectangle 40_2" x="230.728" y="1748.26" width="196.264" height="5.98317" rx="1.35619"
                    fill="#D9D9D9" />
                <rect id="Rectangle 41_2" x="230.728" y="1759.52" width="196.264" height="5.98317" rx="1.35619"
                    fill="#D9D9D9" />
                <rect id="Rectangle 42_2" x="230.728" y="1770.79" width="196.264" height="5.98317" rx="1.35619"
                    fill="#D9D9D9" />
            </g>
            <g id="Group 31">
                <rect id="Rectangle 37_3" x="513.318" y="1714.47" width="114.541" height="5.98317" rx="1.35619"
                    fill="#D9D9D9" />
                <rect id="Rectangle 38_3" x="513.318" y="1725.74" width="114.541" height="5.98317" rx="1.35619"
                    fill="#D9D9D9" />
                <rect id="Rectangle 39_3" x="513.318" y="1737" width="114.541" height="5.98317" rx="1.35619"
                    fill="#D9D9D9" />
            </g>
        </g>
    </g>
    <defs>
        <clipPath id="clip0_0_1">
            <rect width="700" height="1850" fill="white" transform="translate(0.121094 0.439453)" />
        </clipPath>
        <pattern width="1" height="1" id="theme_viin_ecommerce_houseware_s_carousel_default_image_1_id" patternunits="objectBoundingBox">
            <image width="700" height="310" preserveAspectRatio="xMidYMid slice" href="#s_carousel_default_image_1_url"/>
        </pattern>
        <pattern width="1" height="1" id="theme_viin_ecommerce_houseware_s_three_columns_default_image_1_id" patternunits="objectBoundingBox">
            <image width="220" height="178" preserveAspectRatio="xMidYMid slice" href="#s_three_columns_default_image_1_url"/>
        </pattern>
        <pattern width="1" height="1" id="theme_viin_ecommerce_houseware_s_three_columns_default_image_2_id" patternunits="objectBoundingBox">
            <image width="220" height="178" preserveAspectRatio="xMidYMid slice" href="#s_three_columns_default_image_2_url"/>
        </pattern>
        <pattern width="1" height="1" id="theme_viin_ecommerce_houseware_s_three_columns_default_image_3_id" patternunits="objectBoundingBox">
            <image width="220" height="178" preserveAspectRatio="xMidYMid slice" href="#s_three_columns_default_image_3_url"/>
        </pattern>
        <pattern width="1" height="1" id="theme_viin_ecommerce_houseware_s_text_image_default_image_id" patternunits="objectBoundingBox">
            <image width="280" height="300" preserveAspectRatio="xMidYMid slice" href="#s_text_image_default_image_url"/>
        </pattern>
        <pattern width="1" height="1" id="theme_viin_ecommerce_houseware_s_image_text_default_image_id" patternunits="objectBoundingBox">
            <image width="280" height="300" preserveAspectRatio="xMidYMid slice" href="#s_image_text_default_image_url"/>
        </pattern>
        <pattern width="1" height="1" id="theme_viin_ecommerce_houseware_s_cover_default_image_id" patternunits="objectBoundingBox">
            <image width="800" height="180" preserveAspectRatio="xMidYMid slice" href="#s_cover_default_image_url"/>
        </pattern>
        <pattern width="1" height="1" id="theme_viin_ecommerce_houseware_s_parallax_default_image_id" patternunits="objectBoundingBox">
            <image width="800" height="240" preserveAspectRatio="xMidYMid slice" href="#s_parallax_default_image_url"/>
        </pattern>
    </defs>
</svg>